%TF.GenerationSoftware,KiCad,Pcbnew,9.0.2*%
%TF.CreationDate,2025-07-28T12:51:29+08:00*%
%TF.ProjectId,PF-MKIII_Controller ,50462d4d-4b49-4494-995f-436f6e74726f,rev?*%
%TF.SameCoordinates,Original*%
%TF.FileFunction,Legend,Top*%
%TF.FilePolarity,Positive*%
%FSLAX46Y46*%
G04 Gerber Fmt 4.6, Leading zero omitted, Abs format (unit mm)*
G04 Created by KiCad (PCBNEW 9.0.2) date 2025-07-28 12:51:29*
%MOMM*%
%LPD*%
G01*
G04 APERTURE LIST*
%ADD10C,0.150000*%
%ADD11C,0.120000*%
%ADD12C,0.127000*%
%ADD13C,0.200000*%
G04 APERTURE END LIST*
D10*
X211583333Y-81284819D02*
X211250000Y-80808628D01*
X211011905Y-81284819D02*
X211011905Y-80284819D01*
X211011905Y-80284819D02*
X211392857Y-80284819D01*
X211392857Y-80284819D02*
X211488095Y-80332438D01*
X211488095Y-80332438D02*
X211535714Y-80380057D01*
X211535714Y-80380057D02*
X211583333Y-80475295D01*
X211583333Y-80475295D02*
X211583333Y-80618152D01*
X211583333Y-80618152D02*
X211535714Y-80713390D01*
X211535714Y-80713390D02*
X211488095Y-80761009D01*
X211488095Y-80761009D02*
X211392857Y-80808628D01*
X211392857Y-80808628D02*
X211011905Y-80808628D01*
X212440476Y-80618152D02*
X212440476Y-81284819D01*
X212202381Y-80237200D02*
X211964286Y-80951485D01*
X211964286Y-80951485D02*
X212583333Y-80951485D01*
X221464819Y-82218094D02*
X220464819Y-82218094D01*
X220464819Y-82218094D02*
X220464819Y-81979999D01*
X220464819Y-81979999D02*
X220512438Y-81837142D01*
X220512438Y-81837142D02*
X220607676Y-81741904D01*
X220607676Y-81741904D02*
X220702914Y-81694285D01*
X220702914Y-81694285D02*
X220893390Y-81646666D01*
X220893390Y-81646666D02*
X221036247Y-81646666D01*
X221036247Y-81646666D02*
X221226723Y-81694285D01*
X221226723Y-81694285D02*
X221321961Y-81741904D01*
X221321961Y-81741904D02*
X221417200Y-81837142D01*
X221417200Y-81837142D02*
X221464819Y-81979999D01*
X221464819Y-81979999D02*
X221464819Y-82218094D01*
X221464819Y-80694285D02*
X221464819Y-81265713D01*
X221464819Y-80979999D02*
X220464819Y-80979999D01*
X220464819Y-80979999D02*
X220607676Y-81075237D01*
X220607676Y-81075237D02*
X220702914Y-81170475D01*
X220702914Y-81170475D02*
X220750533Y-81265713D01*
X203039580Y-102866666D02*
X203087200Y-102914285D01*
X203087200Y-102914285D02*
X203134819Y-103057142D01*
X203134819Y-103057142D02*
X203134819Y-103152380D01*
X203134819Y-103152380D02*
X203087200Y-103295237D01*
X203087200Y-103295237D02*
X202991961Y-103390475D01*
X202991961Y-103390475D02*
X202896723Y-103438094D01*
X202896723Y-103438094D02*
X202706247Y-103485713D01*
X202706247Y-103485713D02*
X202563390Y-103485713D01*
X202563390Y-103485713D02*
X202372914Y-103438094D01*
X202372914Y-103438094D02*
X202277676Y-103390475D01*
X202277676Y-103390475D02*
X202182438Y-103295237D01*
X202182438Y-103295237D02*
X202134819Y-103152380D01*
X202134819Y-103152380D02*
X202134819Y-103057142D01*
X202134819Y-103057142D02*
X202182438Y-102914285D01*
X202182438Y-102914285D02*
X202230057Y-102866666D01*
X202230057Y-102485713D02*
X202182438Y-102438094D01*
X202182438Y-102438094D02*
X202134819Y-102342856D01*
X202134819Y-102342856D02*
X202134819Y-102104761D01*
X202134819Y-102104761D02*
X202182438Y-102009523D01*
X202182438Y-102009523D02*
X202230057Y-101961904D01*
X202230057Y-101961904D02*
X202325295Y-101914285D01*
X202325295Y-101914285D02*
X202420533Y-101914285D01*
X202420533Y-101914285D02*
X202563390Y-101961904D01*
X202563390Y-101961904D02*
X203134819Y-102533332D01*
X203134819Y-102533332D02*
X203134819Y-101914285D01*
X208833333Y-104359580D02*
X208785714Y-104407200D01*
X208785714Y-104407200D02*
X208642857Y-104454819D01*
X208642857Y-104454819D02*
X208547619Y-104454819D01*
X208547619Y-104454819D02*
X208404762Y-104407200D01*
X208404762Y-104407200D02*
X208309524Y-104311961D01*
X208309524Y-104311961D02*
X208261905Y-104216723D01*
X208261905Y-104216723D02*
X208214286Y-104026247D01*
X208214286Y-104026247D02*
X208214286Y-103883390D01*
X208214286Y-103883390D02*
X208261905Y-103692914D01*
X208261905Y-103692914D02*
X208309524Y-103597676D01*
X208309524Y-103597676D02*
X208404762Y-103502438D01*
X208404762Y-103502438D02*
X208547619Y-103454819D01*
X208547619Y-103454819D02*
X208642857Y-103454819D01*
X208642857Y-103454819D02*
X208785714Y-103502438D01*
X208785714Y-103502438D02*
X208833333Y-103550057D01*
X209785714Y-104454819D02*
X209214286Y-104454819D01*
X209500000Y-104454819D02*
X209500000Y-103454819D01*
X209500000Y-103454819D02*
X209404762Y-103597676D01*
X209404762Y-103597676D02*
X209309524Y-103692914D01*
X209309524Y-103692914D02*
X209214286Y-103740533D01*
X166333333Y-80704819D02*
X166000000Y-80228628D01*
X165761905Y-80704819D02*
X165761905Y-79704819D01*
X165761905Y-79704819D02*
X166142857Y-79704819D01*
X166142857Y-79704819D02*
X166238095Y-79752438D01*
X166238095Y-79752438D02*
X166285714Y-79800057D01*
X166285714Y-79800057D02*
X166333333Y-79895295D01*
X166333333Y-79895295D02*
X166333333Y-80038152D01*
X166333333Y-80038152D02*
X166285714Y-80133390D01*
X166285714Y-80133390D02*
X166238095Y-80181009D01*
X166238095Y-80181009D02*
X166142857Y-80228628D01*
X166142857Y-80228628D02*
X165761905Y-80228628D01*
X166714286Y-79800057D02*
X166761905Y-79752438D01*
X166761905Y-79752438D02*
X166857143Y-79704819D01*
X166857143Y-79704819D02*
X167095238Y-79704819D01*
X167095238Y-79704819D02*
X167190476Y-79752438D01*
X167190476Y-79752438D02*
X167238095Y-79800057D01*
X167238095Y-79800057D02*
X167285714Y-79895295D01*
X167285714Y-79895295D02*
X167285714Y-79990533D01*
X167285714Y-79990533D02*
X167238095Y-80133390D01*
X167238095Y-80133390D02*
X166666667Y-80704819D01*
X166666667Y-80704819D02*
X167285714Y-80704819D01*
X174674905Y-85756819D02*
X174674905Y-84756819D01*
X174674905Y-84756819D02*
X174913000Y-84756819D01*
X174913000Y-84756819D02*
X175055857Y-84804438D01*
X175055857Y-84804438D02*
X175151095Y-84899676D01*
X175151095Y-84899676D02*
X175198714Y-84994914D01*
X175198714Y-84994914D02*
X175246333Y-85185390D01*
X175246333Y-85185390D02*
X175246333Y-85328247D01*
X175246333Y-85328247D02*
X175198714Y-85518723D01*
X175198714Y-85518723D02*
X175151095Y-85613961D01*
X175151095Y-85613961D02*
X175055857Y-85709200D01*
X175055857Y-85709200D02*
X174913000Y-85756819D01*
X174913000Y-85756819D02*
X174674905Y-85756819D01*
X175627286Y-84852057D02*
X175674905Y-84804438D01*
X175674905Y-84804438D02*
X175770143Y-84756819D01*
X175770143Y-84756819D02*
X176008238Y-84756819D01*
X176008238Y-84756819D02*
X176103476Y-84804438D01*
X176103476Y-84804438D02*
X176151095Y-84852057D01*
X176151095Y-84852057D02*
X176198714Y-84947295D01*
X176198714Y-84947295D02*
X176198714Y-85042533D01*
X176198714Y-85042533D02*
X176151095Y-85185390D01*
X176151095Y-85185390D02*
X175579667Y-85756819D01*
X175579667Y-85756819D02*
X176198714Y-85756819D01*
X165773333Y-90874819D02*
X165440000Y-90398628D01*
X165201905Y-90874819D02*
X165201905Y-89874819D01*
X165201905Y-89874819D02*
X165582857Y-89874819D01*
X165582857Y-89874819D02*
X165678095Y-89922438D01*
X165678095Y-89922438D02*
X165725714Y-89970057D01*
X165725714Y-89970057D02*
X165773333Y-90065295D01*
X165773333Y-90065295D02*
X165773333Y-90208152D01*
X165773333Y-90208152D02*
X165725714Y-90303390D01*
X165725714Y-90303390D02*
X165678095Y-90351009D01*
X165678095Y-90351009D02*
X165582857Y-90398628D01*
X165582857Y-90398628D02*
X165201905Y-90398628D01*
X166630476Y-89874819D02*
X166440000Y-89874819D01*
X166440000Y-89874819D02*
X166344762Y-89922438D01*
X166344762Y-89922438D02*
X166297143Y-89970057D01*
X166297143Y-89970057D02*
X166201905Y-90112914D01*
X166201905Y-90112914D02*
X166154286Y-90303390D01*
X166154286Y-90303390D02*
X166154286Y-90684342D01*
X166154286Y-90684342D02*
X166201905Y-90779580D01*
X166201905Y-90779580D02*
X166249524Y-90827200D01*
X166249524Y-90827200D02*
X166344762Y-90874819D01*
X166344762Y-90874819D02*
X166535238Y-90874819D01*
X166535238Y-90874819D02*
X166630476Y-90827200D01*
X166630476Y-90827200D02*
X166678095Y-90779580D01*
X166678095Y-90779580D02*
X166725714Y-90684342D01*
X166725714Y-90684342D02*
X166725714Y-90446247D01*
X166725714Y-90446247D02*
X166678095Y-90351009D01*
X166678095Y-90351009D02*
X166630476Y-90303390D01*
X166630476Y-90303390D02*
X166535238Y-90255771D01*
X166535238Y-90255771D02*
X166344762Y-90255771D01*
X166344762Y-90255771D02*
X166249524Y-90303390D01*
X166249524Y-90303390D02*
X166201905Y-90351009D01*
X166201905Y-90351009D02*
X166154286Y-90446247D01*
X158416666Y-91334819D02*
X158416666Y-92049104D01*
X158416666Y-92049104D02*
X158369047Y-92191961D01*
X158369047Y-92191961D02*
X158273809Y-92287200D01*
X158273809Y-92287200D02*
X158130952Y-92334819D01*
X158130952Y-92334819D02*
X158035714Y-92334819D01*
X159369047Y-91334819D02*
X158892857Y-91334819D01*
X158892857Y-91334819D02*
X158845238Y-91811009D01*
X158845238Y-91811009D02*
X158892857Y-91763390D01*
X158892857Y-91763390D02*
X158988095Y-91715771D01*
X158988095Y-91715771D02*
X159226190Y-91715771D01*
X159226190Y-91715771D02*
X159321428Y-91763390D01*
X159321428Y-91763390D02*
X159369047Y-91811009D01*
X159369047Y-91811009D02*
X159416666Y-91906247D01*
X159416666Y-91906247D02*
X159416666Y-92144342D01*
X159416666Y-92144342D02*
X159369047Y-92239580D01*
X159369047Y-92239580D02*
X159321428Y-92287200D01*
X159321428Y-92287200D02*
X159226190Y-92334819D01*
X159226190Y-92334819D02*
X158988095Y-92334819D01*
X158988095Y-92334819D02*
X158892857Y-92287200D01*
X158892857Y-92287200D02*
X158845238Y-92239580D01*
X200954819Y-78166666D02*
X200478628Y-78499999D01*
X200954819Y-78738094D02*
X199954819Y-78738094D01*
X199954819Y-78738094D02*
X199954819Y-78357142D01*
X199954819Y-78357142D02*
X200002438Y-78261904D01*
X200002438Y-78261904D02*
X200050057Y-78214285D01*
X200050057Y-78214285D02*
X200145295Y-78166666D01*
X200145295Y-78166666D02*
X200288152Y-78166666D01*
X200288152Y-78166666D02*
X200383390Y-78214285D01*
X200383390Y-78214285D02*
X200431009Y-78261904D01*
X200431009Y-78261904D02*
X200478628Y-78357142D01*
X200478628Y-78357142D02*
X200478628Y-78738094D01*
X199954819Y-77261904D02*
X199954819Y-77738094D01*
X199954819Y-77738094D02*
X200431009Y-77785713D01*
X200431009Y-77785713D02*
X200383390Y-77738094D01*
X200383390Y-77738094D02*
X200335771Y-77642856D01*
X200335771Y-77642856D02*
X200335771Y-77404761D01*
X200335771Y-77404761D02*
X200383390Y-77309523D01*
X200383390Y-77309523D02*
X200431009Y-77261904D01*
X200431009Y-77261904D02*
X200526247Y-77214285D01*
X200526247Y-77214285D02*
X200764342Y-77214285D01*
X200764342Y-77214285D02*
X200859580Y-77261904D01*
X200859580Y-77261904D02*
X200907200Y-77309523D01*
X200907200Y-77309523D02*
X200954819Y-77404761D01*
X200954819Y-77404761D02*
X200954819Y-77642856D01*
X200954819Y-77642856D02*
X200907200Y-77738094D01*
X200907200Y-77738094D02*
X200859580Y-77785713D01*
X203241905Y-84714819D02*
X203241905Y-83714819D01*
X203241905Y-83714819D02*
X203480000Y-83714819D01*
X203480000Y-83714819D02*
X203622857Y-83762438D01*
X203622857Y-83762438D02*
X203718095Y-83857676D01*
X203718095Y-83857676D02*
X203765714Y-83952914D01*
X203765714Y-83952914D02*
X203813333Y-84143390D01*
X203813333Y-84143390D02*
X203813333Y-84286247D01*
X203813333Y-84286247D02*
X203765714Y-84476723D01*
X203765714Y-84476723D02*
X203718095Y-84571961D01*
X203718095Y-84571961D02*
X203622857Y-84667200D01*
X203622857Y-84667200D02*
X203480000Y-84714819D01*
X203480000Y-84714819D02*
X203241905Y-84714819D01*
X204718095Y-83714819D02*
X204241905Y-83714819D01*
X204241905Y-83714819D02*
X204194286Y-84191009D01*
X204194286Y-84191009D02*
X204241905Y-84143390D01*
X204241905Y-84143390D02*
X204337143Y-84095771D01*
X204337143Y-84095771D02*
X204575238Y-84095771D01*
X204575238Y-84095771D02*
X204670476Y-84143390D01*
X204670476Y-84143390D02*
X204718095Y-84191009D01*
X204718095Y-84191009D02*
X204765714Y-84286247D01*
X204765714Y-84286247D02*
X204765714Y-84524342D01*
X204765714Y-84524342D02*
X204718095Y-84619580D01*
X204718095Y-84619580D02*
X204670476Y-84667200D01*
X204670476Y-84667200D02*
X204575238Y-84714819D01*
X204575238Y-84714819D02*
X204337143Y-84714819D01*
X204337143Y-84714819D02*
X204241905Y-84667200D01*
X204241905Y-84667200D02*
X204194286Y-84619580D01*
X174884905Y-94482819D02*
X174884905Y-93482819D01*
X174884905Y-93482819D02*
X175123000Y-93482819D01*
X175123000Y-93482819D02*
X175265857Y-93530438D01*
X175265857Y-93530438D02*
X175361095Y-93625676D01*
X175361095Y-93625676D02*
X175408714Y-93720914D01*
X175408714Y-93720914D02*
X175456333Y-93911390D01*
X175456333Y-93911390D02*
X175456333Y-94054247D01*
X175456333Y-94054247D02*
X175408714Y-94244723D01*
X175408714Y-94244723D02*
X175361095Y-94339961D01*
X175361095Y-94339961D02*
X175265857Y-94435200D01*
X175265857Y-94435200D02*
X175123000Y-94482819D01*
X175123000Y-94482819D02*
X174884905Y-94482819D01*
X175789667Y-93482819D02*
X176408714Y-93482819D01*
X176408714Y-93482819D02*
X176075381Y-93863771D01*
X176075381Y-93863771D02*
X176218238Y-93863771D01*
X176218238Y-93863771D02*
X176313476Y-93911390D01*
X176313476Y-93911390D02*
X176361095Y-93959009D01*
X176361095Y-93959009D02*
X176408714Y-94054247D01*
X176408714Y-94054247D02*
X176408714Y-94292342D01*
X176408714Y-94292342D02*
X176361095Y-94387580D01*
X176361095Y-94387580D02*
X176313476Y-94435200D01*
X176313476Y-94435200D02*
X176218238Y-94482819D01*
X176218238Y-94482819D02*
X175932524Y-94482819D01*
X175932524Y-94482819D02*
X175837286Y-94435200D01*
X175837286Y-94435200D02*
X175789667Y-94387580D01*
X210531009Y-75785714D02*
X210578628Y-75642857D01*
X210578628Y-75642857D02*
X210626247Y-75595238D01*
X210626247Y-75595238D02*
X210721485Y-75547619D01*
X210721485Y-75547619D02*
X210864342Y-75547619D01*
X210864342Y-75547619D02*
X210959580Y-75595238D01*
X210959580Y-75595238D02*
X211007200Y-75642857D01*
X211007200Y-75642857D02*
X211054819Y-75738095D01*
X211054819Y-75738095D02*
X211054819Y-76119047D01*
X211054819Y-76119047D02*
X210054819Y-76119047D01*
X210054819Y-76119047D02*
X210054819Y-75785714D01*
X210054819Y-75785714D02*
X210102438Y-75690476D01*
X210102438Y-75690476D02*
X210150057Y-75642857D01*
X210150057Y-75642857D02*
X210245295Y-75595238D01*
X210245295Y-75595238D02*
X210340533Y-75595238D01*
X210340533Y-75595238D02*
X210435771Y-75642857D01*
X210435771Y-75642857D02*
X210483390Y-75690476D01*
X210483390Y-75690476D02*
X210531009Y-75785714D01*
X210531009Y-75785714D02*
X210531009Y-76119047D01*
X210054819Y-75261904D02*
X210054819Y-74690476D01*
X211054819Y-74976190D02*
X210054819Y-74976190D01*
X211054819Y-73833333D02*
X211054819Y-74404761D01*
X211054819Y-74119047D02*
X210054819Y-74119047D01*
X210054819Y-74119047D02*
X210197676Y-74214285D01*
X210197676Y-74214285D02*
X210292914Y-74309523D01*
X210292914Y-74309523D02*
X210340533Y-74404761D01*
X159541666Y-36887319D02*
X159541666Y-37601604D01*
X159541666Y-37601604D02*
X159494047Y-37744461D01*
X159494047Y-37744461D02*
X159398809Y-37839700D01*
X159398809Y-37839700D02*
X159255952Y-37887319D01*
X159255952Y-37887319D02*
X159160714Y-37887319D01*
X160541666Y-37887319D02*
X159970238Y-37887319D01*
X160255952Y-37887319D02*
X160255952Y-36887319D01*
X160255952Y-36887319D02*
X160160714Y-37030176D01*
X160160714Y-37030176D02*
X160065476Y-37125414D01*
X160065476Y-37125414D02*
X159970238Y-37173033D01*
X189165714Y-62929104D02*
X189641904Y-62929104D01*
X189070476Y-63214819D02*
X189403809Y-62214819D01*
X189403809Y-62214819D02*
X189737142Y-63214819D01*
X190022857Y-62310057D02*
X190070476Y-62262438D01*
X190070476Y-62262438D02*
X190165714Y-62214819D01*
X190165714Y-62214819D02*
X190403809Y-62214819D01*
X190403809Y-62214819D02*
X190499047Y-62262438D01*
X190499047Y-62262438D02*
X190546666Y-62310057D01*
X190546666Y-62310057D02*
X190594285Y-62405295D01*
X190594285Y-62405295D02*
X190594285Y-62500533D01*
X190594285Y-62500533D02*
X190546666Y-62643390D01*
X190546666Y-62643390D02*
X189975238Y-63214819D01*
X189975238Y-63214819D02*
X190594285Y-63214819D01*
X188618095Y-102854819D02*
X188618095Y-103664342D01*
X188618095Y-103664342D02*
X188665714Y-103759580D01*
X188665714Y-103759580D02*
X188713333Y-103807200D01*
X188713333Y-103807200D02*
X188808571Y-103854819D01*
X188808571Y-103854819D02*
X188999047Y-103854819D01*
X188999047Y-103854819D02*
X189094285Y-103807200D01*
X189094285Y-103807200D02*
X189141904Y-103759580D01*
X189141904Y-103759580D02*
X189189523Y-103664342D01*
X189189523Y-103664342D02*
X189189523Y-102854819D01*
X189618095Y-103807200D02*
X189760952Y-103854819D01*
X189760952Y-103854819D02*
X189999047Y-103854819D01*
X189999047Y-103854819D02*
X190094285Y-103807200D01*
X190094285Y-103807200D02*
X190141904Y-103759580D01*
X190141904Y-103759580D02*
X190189523Y-103664342D01*
X190189523Y-103664342D02*
X190189523Y-103569104D01*
X190189523Y-103569104D02*
X190141904Y-103473866D01*
X190141904Y-103473866D02*
X190094285Y-103426247D01*
X190094285Y-103426247D02*
X189999047Y-103378628D01*
X189999047Y-103378628D02*
X189808571Y-103331009D01*
X189808571Y-103331009D02*
X189713333Y-103283390D01*
X189713333Y-103283390D02*
X189665714Y-103235771D01*
X189665714Y-103235771D02*
X189618095Y-103140533D01*
X189618095Y-103140533D02*
X189618095Y-103045295D01*
X189618095Y-103045295D02*
X189665714Y-102950057D01*
X189665714Y-102950057D02*
X189713333Y-102902438D01*
X189713333Y-102902438D02*
X189808571Y-102854819D01*
X189808571Y-102854819D02*
X190046666Y-102854819D01*
X190046666Y-102854819D02*
X190189523Y-102902438D01*
X190951428Y-103331009D02*
X191094285Y-103378628D01*
X191094285Y-103378628D02*
X191141904Y-103426247D01*
X191141904Y-103426247D02*
X191189523Y-103521485D01*
X191189523Y-103521485D02*
X191189523Y-103664342D01*
X191189523Y-103664342D02*
X191141904Y-103759580D01*
X191141904Y-103759580D02*
X191094285Y-103807200D01*
X191094285Y-103807200D02*
X190999047Y-103854819D01*
X190999047Y-103854819D02*
X190618095Y-103854819D01*
X190618095Y-103854819D02*
X190618095Y-102854819D01*
X190618095Y-102854819D02*
X190951428Y-102854819D01*
X190951428Y-102854819D02*
X191046666Y-102902438D01*
X191046666Y-102902438D02*
X191094285Y-102950057D01*
X191094285Y-102950057D02*
X191141904Y-103045295D01*
X191141904Y-103045295D02*
X191141904Y-103140533D01*
X191141904Y-103140533D02*
X191094285Y-103235771D01*
X191094285Y-103235771D02*
X191046666Y-103283390D01*
X191046666Y-103283390D02*
X190951428Y-103331009D01*
X190951428Y-103331009D02*
X190618095Y-103331009D01*
X214661666Y-37552319D02*
X214661666Y-38266604D01*
X214661666Y-38266604D02*
X214614047Y-38409461D01*
X214614047Y-38409461D02*
X214518809Y-38504700D01*
X214518809Y-38504700D02*
X214375952Y-38552319D01*
X214375952Y-38552319D02*
X214280714Y-38552319D01*
X215090238Y-37647557D02*
X215137857Y-37599938D01*
X215137857Y-37599938D02*
X215233095Y-37552319D01*
X215233095Y-37552319D02*
X215471190Y-37552319D01*
X215471190Y-37552319D02*
X215566428Y-37599938D01*
X215566428Y-37599938D02*
X215614047Y-37647557D01*
X215614047Y-37647557D02*
X215661666Y-37742795D01*
X215661666Y-37742795D02*
X215661666Y-37838033D01*
X215661666Y-37838033D02*
X215614047Y-37980890D01*
X215614047Y-37980890D02*
X215042619Y-38552319D01*
X215042619Y-38552319D02*
X215661666Y-38552319D01*
X189761666Y-45859819D02*
X189761666Y-46574104D01*
X189761666Y-46574104D02*
X189714047Y-46716961D01*
X189714047Y-46716961D02*
X189618809Y-46812200D01*
X189618809Y-46812200D02*
X189475952Y-46859819D01*
X189475952Y-46859819D02*
X189380714Y-46859819D01*
X190666428Y-45859819D02*
X190475952Y-45859819D01*
X190475952Y-45859819D02*
X190380714Y-45907438D01*
X190380714Y-45907438D02*
X190333095Y-45955057D01*
X190333095Y-45955057D02*
X190237857Y-46097914D01*
X190237857Y-46097914D02*
X190190238Y-46288390D01*
X190190238Y-46288390D02*
X190190238Y-46669342D01*
X190190238Y-46669342D02*
X190237857Y-46764580D01*
X190237857Y-46764580D02*
X190285476Y-46812200D01*
X190285476Y-46812200D02*
X190380714Y-46859819D01*
X190380714Y-46859819D02*
X190571190Y-46859819D01*
X190571190Y-46859819D02*
X190666428Y-46812200D01*
X190666428Y-46812200D02*
X190714047Y-46764580D01*
X190714047Y-46764580D02*
X190761666Y-46669342D01*
X190761666Y-46669342D02*
X190761666Y-46431247D01*
X190761666Y-46431247D02*
X190714047Y-46336009D01*
X190714047Y-46336009D02*
X190666428Y-46288390D01*
X190666428Y-46288390D02*
X190571190Y-46240771D01*
X190571190Y-46240771D02*
X190380714Y-46240771D01*
X190380714Y-46240771D02*
X190285476Y-46288390D01*
X190285476Y-46288390D02*
X190237857Y-46336009D01*
X190237857Y-46336009D02*
X190190238Y-46431247D01*
X166023333Y-96534819D02*
X165690000Y-96058628D01*
X165451905Y-96534819D02*
X165451905Y-95534819D01*
X165451905Y-95534819D02*
X165832857Y-95534819D01*
X165832857Y-95534819D02*
X165928095Y-95582438D01*
X165928095Y-95582438D02*
X165975714Y-95630057D01*
X165975714Y-95630057D02*
X166023333Y-95725295D01*
X166023333Y-95725295D02*
X166023333Y-95868152D01*
X166023333Y-95868152D02*
X165975714Y-95963390D01*
X165975714Y-95963390D02*
X165928095Y-96011009D01*
X165928095Y-96011009D02*
X165832857Y-96058628D01*
X165832857Y-96058628D02*
X165451905Y-96058628D01*
X166356667Y-95534819D02*
X167023333Y-95534819D01*
X167023333Y-95534819D02*
X166594762Y-96534819D01*
X155583333Y-85454819D02*
X155250000Y-84978628D01*
X155011905Y-85454819D02*
X155011905Y-84454819D01*
X155011905Y-84454819D02*
X155392857Y-84454819D01*
X155392857Y-84454819D02*
X155488095Y-84502438D01*
X155488095Y-84502438D02*
X155535714Y-84550057D01*
X155535714Y-84550057D02*
X155583333Y-84645295D01*
X155583333Y-84645295D02*
X155583333Y-84788152D01*
X155583333Y-84788152D02*
X155535714Y-84883390D01*
X155535714Y-84883390D02*
X155488095Y-84931009D01*
X155488095Y-84931009D02*
X155392857Y-84978628D01*
X155392857Y-84978628D02*
X155011905Y-84978628D01*
X156535714Y-85454819D02*
X155964286Y-85454819D01*
X156250000Y-85454819D02*
X156250000Y-84454819D01*
X156250000Y-84454819D02*
X156154762Y-84597676D01*
X156154762Y-84597676D02*
X156059524Y-84692914D01*
X156059524Y-84692914D02*
X155964286Y-84740533D01*
X153583333Y-80704819D02*
X153250000Y-80228628D01*
X153011905Y-80704819D02*
X153011905Y-79704819D01*
X153011905Y-79704819D02*
X153392857Y-79704819D01*
X153392857Y-79704819D02*
X153488095Y-79752438D01*
X153488095Y-79752438D02*
X153535714Y-79800057D01*
X153535714Y-79800057D02*
X153583333Y-79895295D01*
X153583333Y-79895295D02*
X153583333Y-80038152D01*
X153583333Y-80038152D02*
X153535714Y-80133390D01*
X153535714Y-80133390D02*
X153488095Y-80181009D01*
X153488095Y-80181009D02*
X153392857Y-80228628D01*
X153392857Y-80228628D02*
X153011905Y-80228628D01*
X153916667Y-79704819D02*
X154535714Y-79704819D01*
X154535714Y-79704819D02*
X154202381Y-80085771D01*
X154202381Y-80085771D02*
X154345238Y-80085771D01*
X154345238Y-80085771D02*
X154440476Y-80133390D01*
X154440476Y-80133390D02*
X154488095Y-80181009D01*
X154488095Y-80181009D02*
X154535714Y-80276247D01*
X154535714Y-80276247D02*
X154535714Y-80514342D01*
X154535714Y-80514342D02*
X154488095Y-80609580D01*
X154488095Y-80609580D02*
X154440476Y-80657200D01*
X154440476Y-80657200D02*
X154345238Y-80704819D01*
X154345238Y-80704819D02*
X154059524Y-80704819D01*
X154059524Y-80704819D02*
X153964286Y-80657200D01*
X153964286Y-80657200D02*
X153916667Y-80609580D01*
D11*
%TO.C,R4*%
X214620000Y-82750000D02*
X213670000Y-82750000D01*
X208880000Y-82750000D02*
X209830000Y-82750000D01*
X209830000Y-81830000D02*
X213670000Y-81830000D01*
X213670000Y-83670000D01*
X209830000Y-83670000D01*
X209830000Y-81830000D01*
%TO.C,D1*%
X220010000Y-79770000D02*
X219830000Y-79770000D01*
X220010000Y-79770000D02*
X220010000Y-83190000D01*
X217670000Y-79770000D02*
X217490000Y-79770000D01*
X217490000Y-79770000D02*
X217490000Y-83190000D01*
X220010000Y-79890000D02*
X219830000Y-79890000D01*
X217670000Y-79890000D02*
X217490000Y-79890000D01*
X220010000Y-80010000D02*
X219830000Y-80010000D01*
X217670000Y-80010000D02*
X217490000Y-80010000D01*
X220010000Y-83190000D02*
X219736000Y-83190000D01*
X217764000Y-83190000D02*
X217490000Y-83190000D01*
%TO.C,C2*%
X201735000Y-102438748D02*
X201735000Y-102961252D01*
X200265000Y-102438748D02*
X200265000Y-102961252D01*
%TO.C,C1*%
X204415580Y-100760000D02*
X204134420Y-100760000D01*
X204415580Y-99740000D02*
X204134420Y-99740000D01*
%TO.C,J3*%
X167010000Y-78250000D02*
X174989999Y-78250000D01*
X167010001Y-68750000D02*
X167010000Y-78250000D01*
X174630000Y-71916667D02*
X174990000Y-71916667D01*
X174630000Y-75083333D02*
X174630000Y-71916667D01*
X174989999Y-78250000D02*
X174990000Y-75083333D01*
X174990000Y-68750000D02*
X167010001Y-68750000D01*
X174990000Y-71916667D02*
X174990000Y-68750000D01*
X174990000Y-75083333D02*
X174630000Y-75083333D01*
%TO.C,R2*%
X169570000Y-80250000D02*
X170520000Y-80250000D01*
X175310000Y-80250000D02*
X174360000Y-80250000D01*
X170520000Y-79330000D02*
X174360000Y-79330000D01*
X174360000Y-81170000D01*
X170520000Y-81170000D01*
X170520000Y-79330000D01*
%TO.C,D2*%
X172853000Y-89561188D02*
X172853000Y-90807000D01*
X173028000Y-87462000D02*
G75*
G02*
X178389835Y-89003784I2385000J-1800000D01*
G01*
X177804334Y-91056887D02*
G75*
G02*
X172853000Y-90806830I-2391334J1794887D01*
G01*
%TO.C,R6*%
X163070000Y-88500000D02*
X164020000Y-88500000D01*
X168810000Y-88500000D02*
X167860000Y-88500000D01*
X167860000Y-89420000D02*
X164020000Y-89420000D01*
X164020000Y-87580000D01*
X167860000Y-87580000D01*
X167860000Y-89420000D01*
%TO.C,J5*%
X157370000Y-88230000D02*
X157370000Y-85580000D01*
X160130000Y-85580000D02*
X157370000Y-85580000D01*
X160130000Y-88230000D02*
X157370000Y-88230000D01*
X160130000Y-88230000D02*
X160130000Y-85580000D01*
X160130000Y-89500000D02*
X160130000Y-90880000D01*
X160130000Y-90880000D02*
X158750000Y-90880000D01*
%TO.C,R5*%
X200500000Y-75130000D02*
X200500000Y-76080000D01*
X200500000Y-80870000D02*
X200500000Y-79920000D01*
X201420000Y-76080000D02*
X199580000Y-76080000D01*
X199580000Y-79920000D01*
X201420000Y-79920000D01*
X201420000Y-76080000D01*
%TO.C,D5*%
X202270000Y-81014000D02*
X202270000Y-80740000D01*
X202270000Y-83260000D02*
X202270000Y-82986000D01*
X205450000Y-80920000D02*
X205450000Y-80740000D01*
X205450000Y-83260000D02*
X205450000Y-83080000D01*
X205570000Y-80920000D02*
X205570000Y-80740000D01*
X205570000Y-83260000D02*
X205570000Y-83080000D01*
X205690000Y-80740000D02*
X202270000Y-80740000D01*
X205690000Y-80920000D02*
X205690000Y-80740000D01*
X205690000Y-83260000D02*
X202270000Y-83260000D01*
X205690000Y-83260000D02*
X205690000Y-83080000D01*
%TO.C,D3*%
X173063000Y-98287188D02*
X173063000Y-99533000D01*
X173238000Y-96188000D02*
G75*
G02*
X178599835Y-97729784I2385000J-1800000D01*
G01*
X178014334Y-99782887D02*
G75*
G02*
X173063000Y-99532830I-2391334J1794887D01*
G01*
%TO.C,J7*%
X202220000Y-79750000D02*
X210199999Y-79750000D01*
X202220001Y-70250000D02*
X202220000Y-79750000D01*
X209840000Y-73416667D02*
X210200000Y-73416667D01*
X209840000Y-76583333D02*
X209840000Y-73416667D01*
X210199999Y-79750000D02*
X210200000Y-76583333D01*
X210200000Y-70250000D02*
X202220001Y-70250000D01*
X210200000Y-73416667D02*
X210200000Y-70250000D01*
X210200000Y-76583333D02*
X209840000Y-76583333D01*
%TO.C,BT1*%
X211390000Y-77110000D02*
X211390000Y-78360000D01*
X211390000Y-78360000D02*
X212640000Y-78360000D01*
X211490000Y-76300000D02*
X211490000Y-76600000D01*
X211490000Y-76600000D02*
X211690000Y-76600000D01*
X211590000Y-76300000D02*
X211590000Y-76600000D01*
X211690000Y-71940000D02*
X211690000Y-78060000D01*
X211690000Y-75500000D02*
X212300000Y-75500000D01*
X211690000Y-76300000D02*
X211490000Y-76300000D01*
X211690000Y-78060000D02*
X216410000Y-78060000D01*
X212300000Y-72550000D02*
X212300000Y-74500000D01*
X212300000Y-74500000D02*
X211690000Y-74500000D01*
X212300000Y-75500000D02*
X212300000Y-77450000D01*
X212300000Y-77450000D02*
X215800000Y-77450000D01*
X213000000Y-71940000D02*
X213000000Y-72550000D01*
X213000000Y-78060000D02*
X213000000Y-77450000D01*
X214300000Y-71940000D02*
X214300000Y-72550000D01*
X214300000Y-78060000D02*
X214300000Y-77450000D01*
X215300000Y-74900000D02*
X215800000Y-74900000D01*
X215300000Y-75100000D02*
X215300000Y-74900000D01*
X215800000Y-72550000D02*
X212300000Y-72550000D01*
X215800000Y-75000000D02*
X215300000Y-75000000D01*
X215800000Y-75100000D02*
X215300000Y-75100000D01*
X215800000Y-77450000D02*
X215800000Y-72550000D01*
X216410000Y-71940000D02*
X211690000Y-71940000D01*
X216410000Y-78060000D02*
X216410000Y-71940000D01*
D12*
%TO.C,J1*%
X151400000Y-47767500D02*
X154550000Y-47767500D01*
X154550000Y-57567500D02*
X151400000Y-57567500D01*
X154550000Y-57837500D02*
X154550000Y-57567500D01*
X156430000Y-44667500D02*
X157050000Y-44667500D01*
X157050000Y-38367500D02*
X167950000Y-38367500D01*
X157050000Y-44667500D02*
X157050000Y-38367500D01*
X157650000Y-60567500D02*
X156430000Y-60567500D01*
X157650000Y-63767500D02*
X157650000Y-60567500D01*
X167350000Y-60567500D02*
X167350000Y-63767500D01*
X167950000Y-38367500D02*
X167950000Y-44667500D01*
X167950000Y-44667500D02*
X168580000Y-44667500D01*
X168580000Y-60567500D02*
X167350000Y-60567500D01*
X170450000Y-48567500D02*
X172000000Y-48567500D01*
X170450000Y-56667500D02*
X170450000Y-57787500D01*
X172000000Y-48567500D02*
X172000000Y-56667500D01*
X172000000Y-56667500D02*
X170450000Y-56667500D01*
D13*
X156550000Y-39317500D02*
G75*
G02*
X156350000Y-39317500I-100000J0D01*
G01*
X156350000Y-39317500D02*
G75*
G02*
X156550000Y-39317500I100000J0D01*
G01*
D11*
%TO.C,A2*%
X180860000Y-63900000D02*
X180860000Y-66570000D01*
X180860000Y-69110000D02*
X180860000Y-107340000D01*
X180860000Y-107340000D02*
X185940000Y-107340000D01*
X183530000Y-66570000D02*
X180860000Y-66570000D01*
X183530000Y-69110000D02*
X180860000Y-69110000D01*
X183530000Y-69110000D02*
X183530000Y-66570000D01*
X183530000Y-69110000D02*
X183530000Y-104670000D01*
X183530000Y-104670000D02*
X180860000Y-104670000D01*
X185940000Y-99460000D02*
X193820000Y-99460000D01*
X185940000Y-109880000D02*
X185940000Y-99460000D01*
X193820000Y-99460000D02*
X193820000Y-109880000D01*
X193820000Y-109880000D02*
X185940000Y-109880000D01*
X196230000Y-66570000D02*
X196230000Y-104670000D01*
X196230000Y-66570000D02*
X198900000Y-66570000D01*
X196230000Y-104670000D02*
X198900000Y-104670000D01*
X198900000Y-63900000D02*
X180860000Y-63900000D01*
X198900000Y-107340000D02*
X193820000Y-107340000D01*
X198900000Y-107340000D02*
X198900000Y-63900000D01*
D12*
%TO.C,J2*%
X206520000Y-48432500D02*
X209670000Y-48432500D01*
X209670000Y-58232500D02*
X206520000Y-58232500D01*
X209670000Y-58502500D02*
X209670000Y-58232500D01*
X211550000Y-45332500D02*
X212170000Y-45332500D01*
X212170000Y-39032500D02*
X223070000Y-39032500D01*
X212170000Y-45332500D02*
X212170000Y-39032500D01*
X212770000Y-61232500D02*
X211550000Y-61232500D01*
X212770000Y-64432500D02*
X212770000Y-61232500D01*
X222470000Y-61232500D02*
X222470000Y-64432500D01*
X223070000Y-39032500D02*
X223070000Y-45332500D01*
X223070000Y-45332500D02*
X223700000Y-45332500D01*
X223700000Y-61232500D02*
X222470000Y-61232500D01*
X225570000Y-49232500D02*
X227120000Y-49232500D01*
X225570000Y-57332500D02*
X225570000Y-58452500D01*
X227120000Y-49232500D02*
X227120000Y-57332500D01*
X227120000Y-57332500D02*
X225570000Y-57332500D01*
D13*
X211670000Y-39982500D02*
G75*
G02*
X211470000Y-39982500I-100000J0D01*
G01*
X211470000Y-39982500D02*
G75*
G02*
X211670000Y-39982500I100000J0D01*
G01*
D11*
%TO.C,J4*%
X153010000Y-78250000D02*
X160989999Y-78250000D01*
X153010001Y-68750000D02*
X153010000Y-78250000D01*
X160630000Y-71916667D02*
X160990000Y-71916667D01*
X160630000Y-75083333D02*
X160630000Y-71916667D01*
X160989999Y-78250000D02*
X160990000Y-75083333D01*
X160990000Y-68750000D02*
X153010001Y-68750000D01*
X160990000Y-71916667D02*
X160990000Y-68750000D01*
X160990000Y-75083333D02*
X160630000Y-75083333D01*
%TO.C,J6*%
X177095000Y-37405000D02*
X177095000Y-63405000D01*
X177095000Y-63405000D02*
X183095000Y-63405000D01*
X177725000Y-41975000D02*
X177725000Y-58875000D01*
X177725000Y-58875000D02*
X202425000Y-58875000D01*
X179225000Y-43455000D02*
X179225000Y-54315000D01*
X179225000Y-54315000D02*
X200965000Y-54315000D01*
X183095000Y-61405000D02*
X197095000Y-61405000D01*
X183095000Y-63405000D02*
X183095000Y-61405000D01*
X197095000Y-61405000D02*
X197095000Y-63405000D01*
X197095000Y-63405000D02*
X203095000Y-63405000D01*
X200965000Y-43455000D02*
X179225000Y-43455000D01*
X200965000Y-54315000D02*
X200965000Y-43455000D01*
X202425000Y-41975000D02*
X177725000Y-41975000D01*
X202425000Y-58875000D02*
X202425000Y-41975000D01*
X203095000Y-37405000D02*
X177095000Y-37405000D01*
X203095000Y-63405000D02*
X203095000Y-37405000D01*
%TO.C,R7*%
X163320000Y-98000000D02*
X164270000Y-98000000D01*
X169060000Y-98000000D02*
X168110000Y-98000000D01*
X164270000Y-97080000D02*
X168110000Y-97080000D01*
X168110000Y-98920000D01*
X164270000Y-98920000D01*
X164270000Y-97080000D01*
%TO.C,R1*%
X152880000Y-83000000D02*
X153830000Y-83000000D01*
X158620000Y-83000000D02*
X157670000Y-83000000D01*
X153830000Y-82080000D02*
X157670000Y-82080000D01*
X157670000Y-83920000D01*
X153830000Y-83920000D01*
X153830000Y-82080000D01*
%TO.C,R3*%
X156630000Y-80250000D02*
X157580000Y-80250000D01*
X162370000Y-80250000D02*
X161420000Y-80250000D01*
X157580000Y-79330000D02*
X161420000Y-79330000D01*
X161420000Y-81170000D01*
X157580000Y-81170000D01*
X157580000Y-79330000D01*
%TD*%
M02*
