%TF.GenerationSoftware,KiCad,Pcbnew,9.0.2*%
%TF.CreationDate,2025-07-28T12:51:29+08:00*%
%TF.ProjectId,PF-MKIII_Controller ,50462d4d-4b49-4494-995f-436f6e74726f,rev?*%
%TF.SameCoordinates,Original*%
%TF.FileFunction,Copper,L2,Bot*%
%TF.FilePolarity,Positive*%
%FSLAX46Y46*%
G04 Gerber Fmt 4.6, Leading zero omitted, Abs format (unit mm)*
G04 Created by KiCad (PCBNEW 9.0.2) date 2025-07-28 12:51:29*
%MOMM*%
%LPD*%
G01*
G04 APERTURE LIST*
G04 Aperture macros list*
%AMRoundRect*
0 Rectangle with rounded corners*
0 $1 Rounding radius*
0 $2 $3 $4 $5 $6 $7 $8 $9 X,Y pos of 4 corners*
0 Add a 4 corners polygon primitive as box body*
4,1,4,$2,$3,$4,$5,$6,$7,$8,$9,$2,$3,0*
0 Add four circle primitives for the rounded corners*
1,1,$1+$1,$2,$3*
1,1,$1+$1,$4,$5*
1,1,$1+$1,$6,$7*
1,1,$1+$1,$8,$9*
0 Add four rect primitives between the rounded corners*
20,1,$1+$1,$2,$3,$4,$5,0*
20,1,$1+$1,$4,$5,$6,$7,0*
20,1,$1+$1,$6,$7,$8,$9,0*
20,1,$1+$1,$8,$9,$2,$3,0*%
G04 Aperture macros list end*
%TA.AperFunction,ComponentPad*%
%ADD10C,1.400000*%
%TD*%
%TA.AperFunction,ComponentPad*%
%ADD11C,1.800000*%
%TD*%
%TA.AperFunction,ComponentPad*%
%ADD12R,1.800000X1.800000*%
%TD*%
%TA.AperFunction,ComponentPad*%
%ADD13O,2.000000X2.500000*%
%TD*%
%TA.AperFunction,ComponentPad*%
%ADD14O,1.850000X2.500000*%
%TD*%
%TA.AperFunction,WasherPad*%
%ADD15C,3.000000*%
%TD*%
%TA.AperFunction,ComponentPad*%
%ADD16RoundRect,0.450000X-0.450000X-0.450000X0.450000X-0.450000X0.450000X0.450000X-0.450000X0.450000X0*%
%TD*%
%TA.AperFunction,ComponentPad*%
%ADD17R,1.700000X1.700000*%
%TD*%
%TA.AperFunction,ComponentPad*%
%ADD18C,1.700000*%
%TD*%
%TA.AperFunction,ComponentPad*%
%ADD19RoundRect,0.250000X0.625000X-0.350000X0.625000X0.350000X-0.625000X0.350000X-0.625000X-0.350000X0*%
%TD*%
%TA.AperFunction,ComponentPad*%
%ADD20O,1.750000X1.200000*%
%TD*%
%TA.AperFunction,ComponentPad*%
%ADD21C,1.778000*%
%TD*%
%TA.AperFunction,ComponentPad*%
%ADD22C,2.286000*%
%TD*%
%TA.AperFunction,ComponentPad*%
%ADD23R,1.600000X1.600000*%
%TD*%
%TA.AperFunction,ComponentPad*%
%ADD24O,1.600000X1.600000*%
%TD*%
%TA.AperFunction,ComponentPad*%
%ADD25C,1.600000*%
%TD*%
%TA.AperFunction,ViaPad*%
%ADD26C,0.812800*%
%TD*%
%TA.AperFunction,ViaPad*%
%ADD27C,0.808000*%
%TD*%
%TA.AperFunction,ViaPad*%
%ADD28C,0.889000*%
%TD*%
%TA.AperFunction,Conductor*%
%ADD29C,0.508000*%
%TD*%
%TA.AperFunction,Conductor*%
%ADD30C,0.200000*%
%TD*%
%TA.AperFunction,Conductor*%
%ADD31C,0.762000*%
%TD*%
%TA.AperFunction,Conductor*%
%ADD32C,0.254000*%
%TD*%
%TA.AperFunction,Conductor*%
%ADD33C,0.381000*%
%TD*%
G04 APERTURE END LIST*
D10*
%TO.P,R4,1*%
%TO.N,/A6*%
X207940000Y-82750000D03*
%TO.P,R4,2*%
%TO.N,Net-(D1-A)*%
X215560000Y-82750000D03*
%TD*%
D11*
%TO.P,D1,2,A*%
%TO.N,Net-(D1-A)*%
X218750000Y-82750000D03*
D12*
%TO.P,D1,1,K*%
%TO.N,GND*%
X218750000Y-80210000D03*
%TD*%
D13*
%TO.P,J3,1,Pin_1*%
%TO.N,+3.3V*%
X173740000Y-70500000D03*
D14*
%TO.P,J3,2,Pin_2*%
%TO.N,GND*%
X171000000Y-70500000D03*
D13*
%TO.P,J3,3,Pin_3*%
X168260000Y-70500000D03*
%TO.P,J3,4,Pin_4*%
X168260000Y-76500000D03*
D14*
%TO.P,J3,5,Pin_5*%
X171000000Y-76500000D03*
D13*
%TO.P,J3,6,Pin_6*%
%TO.N,/D0*%
X173740000Y-76500000D03*
%TD*%
D10*
%TO.P,R2,1*%
%TO.N,GND*%
X168630000Y-80250000D03*
%TO.P,R2,2*%
%TO.N,/D0*%
X176250000Y-80250000D03*
%TD*%
D15*
%TO.P,,*%
%TO.N,*%
X155000000Y-35000000D03*
%TD*%
D16*
%TO.P,D2,1,RA*%
%TO.N,/R1*%
X173000000Y-88500000D03*
D11*
%TO.P,D2,2,K*%
%TO.N,Net-(D2-K)*%
X174778000Y-90024000D03*
%TO.P,D2,3,GA*%
%TO.N,/G1*%
X176302000Y-88500000D03*
%TO.P,D2,4,BA*%
%TO.N,/B1*%
X177826000Y-90024000D03*
%TD*%
D15*
%TO.P,,*%
%TO.N,*%
X225000000Y-102500000D03*
%TD*%
D10*
%TO.P,R6,1*%
%TO.N,Net-(D2-K)*%
X169750000Y-88500000D03*
%TO.P,R6,2*%
%TO.N,GND*%
X162130000Y-88500000D03*
%TD*%
D17*
%TO.P,J5,1,Pin_1*%
%TO.N,+3.3V*%
X158750000Y-89500000D03*
D18*
%TO.P,J5,2,Pin_2*%
%TO.N,/Gait*%
X158750000Y-86960000D03*
%TD*%
D10*
%TO.P,R5,1*%
%TO.N,/A7*%
X200500000Y-74190000D03*
%TO.P,R5,2*%
%TO.N,Net-(D5-A)*%
X200500000Y-81810000D03*
%TD*%
D12*
%TO.P,D5,1,K*%
%TO.N,GND*%
X205250000Y-82000000D03*
D11*
%TO.P,D5,2,A*%
%TO.N,Net-(D5-A)*%
X202710000Y-82000000D03*
%TD*%
D15*
%TO.P,,*%
%TO.N,*%
X155000000Y-102500000D03*
%TD*%
D16*
%TO.P,D3,1,RA*%
%TO.N,/R2*%
X173210000Y-97226000D03*
D11*
%TO.P,D3,2,K*%
%TO.N,Net-(D3-K)*%
X174988000Y-98750000D03*
%TO.P,D3,3,GA*%
%TO.N,/G2*%
X176512000Y-97226000D03*
%TO.P,D3,4,BA*%
%TO.N,/B2*%
X178036000Y-98750000D03*
%TD*%
D13*
%TO.P,J7,1,Pin_1*%
%TO.N,Net-(A2-VIN)*%
X208950000Y-72000000D03*
D14*
%TO.P,J7,2,Pin_2*%
%TO.N,GND*%
X206210000Y-72000000D03*
D13*
%TO.P,J7,3,Pin_3*%
X203470000Y-72000000D03*
%TO.P,J7,4,Pin_4*%
X203470000Y-78000000D03*
D14*
%TO.P,J7,5,Pin_5*%
X206210000Y-78000000D03*
D13*
%TO.P,J7,6,Pin_6*%
%TO.N,Net-(BT1-+)*%
X208950000Y-78000000D03*
%TD*%
D19*
%TO.P,BT1,1,+*%
%TO.N,Net-(BT1-+)*%
X213500000Y-76000000D03*
D20*
%TO.P,BT1,2,-*%
%TO.N,GND*%
X213500000Y-74000000D03*
%TD*%
D21*
%TO.P,J1,B1A,SEL+*%
%TO.N,/B0*%
X159325000Y-39967500D03*
%TO.P,J1,B1B*%
%TO.N,N/C*%
X165675000Y-39967500D03*
%TO.P,J1,B2A,SEL-*%
%TO.N,GND*%
X159325000Y-45047500D03*
%TO.P,J1,B2B*%
%TO.N,N/C*%
X165675000Y-45047500D03*
%TO.P,J1,H1,H+*%
%TO.N,+3.3V*%
X159960000Y-62827500D03*
%TO.P,J1,H2,H*%
%TO.N,/A1*%
X162500000Y-62827500D03*
%TO.P,J1,H3,H-*%
%TO.N,GND*%
X165040000Y-62827500D03*
D22*
%TO.P,J1,S1,SHIELD*%
%TO.N,unconnected-(J1-SHIELD-PadS1)*%
X154880000Y-46000000D03*
%TO.P,J1,S2,SHIELD__1*%
%TO.N,unconnected-(J1-SHIELD__1-PadS2)*%
X154880000Y-59335000D03*
%TO.P,J1,S3,SHIELD__2*%
%TO.N,unconnected-(J1-SHIELD__2-PadS3)*%
X170120000Y-59335000D03*
%TO.P,J1,S4,SHIELD__3*%
%TO.N,unconnected-(J1-SHIELD__3-PadS4)*%
X170120000Y-46000000D03*
D21*
%TO.P,J1,V1,V+*%
%TO.N,+3.3V*%
X152340000Y-50127500D03*
%TO.P,J1,V2,V*%
%TO.N,/A0*%
X152340000Y-52667500D03*
%TO.P,J1,V3,V-*%
%TO.N,GND*%
X152340000Y-55207500D03*
%TD*%
D23*
%TO.P,A2,1,D1/TX*%
%TO.N,/D1*%
X182260000Y-67840000D03*
D24*
%TO.P,A2,2,D0/RX*%
%TO.N,/D0*%
X182260000Y-70380000D03*
%TO.P,A2,3,~{RESET}*%
%TO.N,unconnected-(A2-~{RESET}-Pad3)*%
X182260000Y-72920000D03*
%TO.P,A2,4,GND*%
%TO.N,GND*%
X182260000Y-75460000D03*
%TO.P,A2,5,D2*%
%TO.N,/CE*%
X182260000Y-78000000D03*
%TO.P,A2,6,D3*%
%TO.N,/Gait*%
X182260000Y-80540000D03*
%TO.P,A2,7,D4*%
%TO.N,/R1*%
X182260000Y-83080000D03*
%TO.P,A2,8,D5*%
%TO.N,/G1*%
X182260000Y-85620000D03*
%TO.P,A2,9,D6*%
%TO.N,/B1*%
X182260000Y-88160000D03*
%TO.P,A2,10,D7*%
%TO.N,/R2*%
X182260000Y-90700000D03*
%TO.P,A2,11,D8*%
%TO.N,/G2*%
X182260000Y-93240000D03*
%TO.P,A2,12,D9*%
%TO.N,/B2*%
X182260000Y-95780000D03*
%TO.P,A2,13,D10/CS*%
%TO.N,/CS*%
X182260000Y-98320000D03*
%TO.P,A2,14,D11/COPI*%
%TO.N,/MOSI*%
X182260000Y-100860000D03*
%TO.P,A2,15,D12/CIPO*%
%TO.N,/MISO*%
X182260000Y-103400000D03*
%TO.P,A2,16,D13/SCK*%
%TO.N,/SCK*%
X197500000Y-103400000D03*
%TO.P,A2,17,3V3*%
%TO.N,+3.3V*%
X197500000Y-100860000D03*
%TO.P,A2,18,B0*%
%TO.N,/B0*%
X197500000Y-98320000D03*
%TO.P,A2,19,A0*%
%TO.N,/A0*%
X197500000Y-95780000D03*
%TO.P,A2,20,A1*%
%TO.N,/A1*%
X197500000Y-93240000D03*
%TO.P,A2,21,A2*%
%TO.N,/A2*%
X197500000Y-90700000D03*
%TO.P,A2,22,A3*%
%TO.N,/A3*%
X197500000Y-88160000D03*
%TO.P,A2,23,SDA/A4*%
%TO.N,/SDA*%
X197500000Y-85620000D03*
%TO.P,A2,24,SCL/A5*%
%TO.N,/SCL*%
X197500000Y-83080000D03*
%TO.P,A2,25,A6*%
%TO.N,/A6*%
X197500000Y-80540000D03*
%TO.P,A2,26,A7*%
%TO.N,/A7*%
X197500000Y-78000000D03*
%TO.P,A2,27,VUSB/5V*%
%TO.N,unconnected-(A2-VUSB{slash}5V-Pad27)*%
X197500000Y-75460000D03*
%TO.P,A2,28,B1*%
%TO.N,/B11*%
X197500000Y-72920000D03*
%TO.P,A2,29,GND*%
%TO.N,GND*%
X197500000Y-70380000D03*
%TO.P,A2,30,VIN*%
%TO.N,Net-(A2-VIN)*%
X197500000Y-67840000D03*
%TD*%
D15*
%TO.P,,*%
%TO.N,*%
X225000000Y-35000000D03*
%TD*%
D21*
%TO.P,J2,B1A,SEL+*%
%TO.N,/B11*%
X214445000Y-40632500D03*
%TO.P,J2,B1B*%
%TO.N,N/C*%
X220795000Y-40632500D03*
%TO.P,J2,B2A,SEL-*%
%TO.N,GND*%
X214445000Y-45712500D03*
%TO.P,J2,B2B*%
%TO.N,N/C*%
X220795000Y-45712500D03*
%TO.P,J2,H1,H+*%
%TO.N,+3.3V*%
X215080000Y-63492500D03*
%TO.P,J2,H2,H*%
%TO.N,/A3*%
X217620000Y-63492500D03*
%TO.P,J2,H3,H-*%
%TO.N,GND*%
X220160000Y-63492500D03*
D22*
%TO.P,J2,S1,SHIELD*%
%TO.N,unconnected-(J2-SHIELD-PadS1)*%
X210000000Y-46665000D03*
%TO.P,J2,S2,SHIELD__1*%
%TO.N,unconnected-(J2-SHIELD__1-PadS2)*%
X210000000Y-60000000D03*
%TO.P,J2,S3,SHIELD__2*%
%TO.N,unconnected-(J2-SHIELD__2-PadS3)*%
X225240000Y-60000000D03*
%TO.P,J2,S4,SHIELD__3*%
%TO.N,unconnected-(J2-SHIELD__3-PadS4)*%
X225240000Y-46665000D03*
D21*
%TO.P,J2,V1,V+*%
%TO.N,+3.3V*%
X207460000Y-50792500D03*
%TO.P,J2,V2,V*%
%TO.N,/A2*%
X207460000Y-53332500D03*
%TO.P,J2,V3,V-*%
%TO.N,GND*%
X207460000Y-55872500D03*
%TD*%
D13*
%TO.P,J4,1,Pin_1*%
%TO.N,+3.3V*%
X159740000Y-70500000D03*
D14*
%TO.P,J4,2,Pin_2*%
%TO.N,GND*%
X157000000Y-70500000D03*
D13*
%TO.P,J4,3,Pin_3*%
X154260000Y-70500000D03*
%TO.P,J4,4,Pin_4*%
X154260000Y-76500000D03*
D14*
%TO.P,J4,5,Pin_5*%
X157000000Y-76500000D03*
D13*
%TO.P,J4,6,Pin_6*%
%TO.N,/D1*%
X159740000Y-76500000D03*
%TD*%
D15*
%TO.P,J6,*%
%TO.N,*%
X179095000Y-39405000D03*
X179095000Y-61405000D03*
X201095000Y-39405000D03*
X201095000Y-61405000D03*
D25*
%TO.P,J6,1,Pin_1*%
%TO.N,/SDA*%
X186285000Y-38905000D03*
%TO.P,J6,2,Pin_2*%
%TO.N,/SCL*%
X188825000Y-38905000D03*
%TO.P,J6,3,Pin_3*%
%TO.N,+3.3V*%
X191365000Y-38905000D03*
%TO.P,J6,4,Pin_4*%
%TO.N,GND*%
X193905000Y-38905000D03*
%TD*%
D10*
%TO.P,R7,1*%
%TO.N,GND*%
X162380000Y-98000000D03*
%TO.P,R7,2*%
%TO.N,Net-(D3-K)*%
X170000000Y-98000000D03*
%TD*%
%TO.P,R1,1*%
%TO.N,GND*%
X151940000Y-83000000D03*
%TO.P,R1,2*%
%TO.N,/Gait*%
X159560000Y-83000000D03*
%TD*%
%TO.P,R3,1*%
%TO.N,GND*%
X155690000Y-80250000D03*
%TO.P,R3,2*%
%TO.N,/D1*%
X163310000Y-80250000D03*
%TD*%
D17*
%TO.P,U1,1,GND*%
%TO.N,GND*%
X201710000Y-98080000D03*
D18*
%TO.P,U1,2,VCC*%
%TO.N,+3.3V*%
X204250000Y-98080000D03*
%TO.P,U1,3,CE*%
%TO.N,/CE*%
X201710000Y-95540000D03*
%TO.P,U1,4,~{CSN}*%
%TO.N,/CS*%
X204250000Y-95540000D03*
%TO.P,U1,5,SCK*%
%TO.N,/SCK*%
X201710000Y-93000000D03*
%TO.P,U1,6,MOSI*%
%TO.N,/MOSI*%
X204250000Y-93000000D03*
%TO.P,U1,7,MISO*%
%TO.N,/MISO*%
X201710000Y-90460000D03*
%TO.P,U1,8,IRQ*%
%TO.N,unconnected-(U1-IRQ-Pad8)*%
X204250000Y-90460000D03*
%TD*%
D26*
%TO.N,GND*%
X195500000Y-104500000D03*
X199500000Y-96000000D03*
D27*
%TO.N,/A1*%
X182500000Y-65000000D03*
D28*
%TO.N,GND*%
X172250000Y-64500000D03*
X211250000Y-67000000D03*
D27*
%TO.N,/A0*%
X178500000Y-77750000D03*
X184500000Y-79500000D03*
%TO.N,/D0*%
X176250000Y-76500000D03*
%TO.N,+3.3V*%
X191365000Y-62865000D03*
X191365000Y-94725000D03*
%TO.N,/D1*%
X163250000Y-76500000D03*
%TD*%
D29*
%TO.N,GND*%
X201710000Y-98080000D02*
X201580000Y-98080000D01*
X201580000Y-98080000D02*
X199500000Y-96000000D01*
D30*
%TO.N,/A6*%
X197500000Y-80540000D02*
X197500000Y-81000000D01*
X197500000Y-81000000D02*
X200250000Y-83750000D01*
X206940000Y-83750000D02*
X207940000Y-82750000D01*
X200250000Y-83750000D02*
X206940000Y-83750000D01*
D31*
%TO.N,Net-(A2-VIN)*%
X197500000Y-67840000D02*
X204840000Y-67840000D01*
X204840000Y-67840000D02*
X208750000Y-71750000D01*
X208750000Y-71750000D02*
X208750000Y-72000000D01*
D32*
%TO.N,/SCK*%
X197500000Y-103400000D02*
X203600000Y-103400000D01*
X203600000Y-103400000D02*
X206250000Y-100750000D01*
X206250000Y-93000000D02*
X205072000Y-91822000D01*
X206250000Y-100750000D02*
X206250000Y-93000000D01*
X205072000Y-91822000D02*
X202888000Y-91822000D01*
X202888000Y-91822000D02*
X201710000Y-93000000D01*
D30*
%TO.N,/A2*%
X207761160Y-85500000D02*
X202700000Y-85500000D01*
X218810000Y-74451160D02*
X207761160Y-85500000D01*
X202700000Y-85500000D02*
X197500000Y-90700000D01*
X218810000Y-62999585D02*
X218810000Y-74451160D01*
X209142915Y-53332500D02*
X218810000Y-62999585D01*
X207460000Y-53332500D02*
X209142915Y-53332500D01*
%TO.N,/A1*%
X194750000Y-90490000D02*
X197500000Y-93240000D01*
X182500000Y-65000000D02*
X194750000Y-77250000D01*
X194750000Y-77250000D02*
X194750000Y-90490000D01*
%TO.N,/A0*%
X178500000Y-77750000D02*
X175250000Y-74500000D01*
X158226000Y-58553500D02*
X152340000Y-52667500D01*
X161650108Y-74500000D02*
X158226000Y-71075892D01*
X158226000Y-71075892D02*
X158226000Y-58553500D01*
X175250000Y-74500000D02*
X161650108Y-74500000D01*
X184500000Y-82780000D02*
X184500000Y-79500000D01*
X197500000Y-95780000D02*
X184500000Y-82780000D01*
D33*
%TO.N,/D0*%
X173540000Y-76500000D02*
X176250000Y-76500000D01*
D29*
%TO.N,+3.3V*%
X187950000Y-59450000D02*
X173315034Y-59450000D01*
X200072661Y-63492500D02*
X215080000Y-63492500D01*
X158750000Y-98000000D02*
X158750000Y-89500000D01*
X161304000Y-61483500D02*
X159960000Y-62827500D01*
D31*
X191365000Y-94725000D02*
X197500000Y-100860000D01*
D29*
X173315034Y-59450000D02*
X171281534Y-61483500D01*
X191365000Y-62865000D02*
X187950000Y-59450000D01*
X191365000Y-38905000D02*
X191365000Y-41250000D01*
X162250000Y-70500000D02*
X159540000Y-70500000D01*
X198834839Y-62865000D02*
X199140000Y-62559839D01*
X168750000Y-61483500D02*
X157394000Y-50127500D01*
X197500000Y-100860000D02*
X192860000Y-105500000D01*
X168750000Y-64000000D02*
X162250000Y-70500000D01*
X171281534Y-61483500D02*
X168750000Y-61483500D01*
X192860000Y-105500000D02*
X166250000Y-105500000D01*
X191365000Y-62865000D02*
X198834839Y-62865000D01*
X166250000Y-105500000D02*
X158750000Y-98000000D01*
X168750000Y-61483500D02*
X168750000Y-64000000D01*
X191365000Y-41250000D02*
X191365000Y-62865000D01*
X191365000Y-62865000D02*
X181175000Y-62865000D01*
X199140000Y-62559839D02*
X199140000Y-59112500D01*
X199140000Y-59112500D02*
X207460000Y-50792500D01*
X157394000Y-50127500D02*
X152340000Y-50127500D01*
X168750000Y-61483500D02*
X161304000Y-61483500D01*
X200072661Y-63492500D02*
X199140000Y-62559839D01*
X181175000Y-62865000D02*
X173540000Y-70500000D01*
D33*
%TO.N,/A7*%
X197500000Y-78000000D02*
X200500000Y-75000000D01*
X200500000Y-75000000D02*
X200500000Y-74190000D01*
D30*
%TO.N,/CE*%
X185750000Y-83047050D02*
X185750000Y-79000000D01*
X185750000Y-79000000D02*
X184750000Y-78000000D01*
X201710000Y-95540000D02*
X200849000Y-94679000D01*
X184750000Y-78000000D02*
X182260000Y-78000000D01*
X200849000Y-94679000D02*
X197381950Y-94679000D01*
X197381950Y-94679000D02*
X185750000Y-83047050D01*
D33*
%TO.N,/D1*%
X159540000Y-76500000D02*
X163250000Y-76500000D01*
D31*
%TO.N,Net-(BT1-+)*%
X208750000Y-78000000D02*
X210750000Y-76000000D01*
X210750000Y-76000000D02*
X213500000Y-76000000D01*
%TD*%
%TA.AperFunction,Conductor*%
%TO.N,GND*%
G36*
X205889920Y-77754394D02*
G01*
X205837259Y-77845606D01*
X205810000Y-77947339D01*
X205810000Y-78052661D01*
X205837259Y-78154394D01*
X205889920Y-78245606D01*
X205894314Y-78250000D01*
X203985686Y-78250000D01*
X203990080Y-78245606D01*
X204042741Y-78154394D01*
X204070000Y-78052661D01*
X204070000Y-77947339D01*
X204042741Y-77845606D01*
X203990080Y-77754394D01*
X203985686Y-77750000D01*
X205894314Y-77750000D01*
X205889920Y-77754394D01*
G37*
%TD.AperFunction*%
%TA.AperFunction,Conductor*%
G36*
X156679920Y-76254394D02*
G01*
X156627259Y-76345606D01*
X156600000Y-76447339D01*
X156600000Y-76552661D01*
X156627259Y-76654394D01*
X156679920Y-76745606D01*
X156684314Y-76750000D01*
X154775686Y-76750000D01*
X154780080Y-76745606D01*
X154832741Y-76654394D01*
X154860000Y-76552661D01*
X154860000Y-76447339D01*
X154832741Y-76345606D01*
X154780080Y-76254394D01*
X154775686Y-76250000D01*
X156684314Y-76250000D01*
X156679920Y-76254394D01*
G37*
%TD.AperFunction*%
%TA.AperFunction,Conductor*%
G36*
X225002211Y-28000578D02*
G01*
X225494924Y-28018176D01*
X225503717Y-28018804D01*
X225991755Y-28071274D01*
X226000471Y-28072527D01*
X226483520Y-28159679D01*
X226492128Y-28161552D01*
X226967713Y-28282938D01*
X226976177Y-28285423D01*
X227441866Y-28440419D01*
X227450160Y-28443512D01*
X227903602Y-28631335D01*
X227911653Y-28635012D01*
X228237022Y-28797879D01*
X228350551Y-28854708D01*
X228358287Y-28858931D01*
X228780432Y-29109401D01*
X228787842Y-29114164D01*
X229035063Y-29285813D01*
X229191001Y-29394083D01*
X229198087Y-29399387D01*
X229395443Y-29558426D01*
X229580257Y-29707358D01*
X229586940Y-29713149D01*
X229946152Y-30047588D01*
X229952411Y-30053847D01*
X230286850Y-30413059D01*
X230292647Y-30419749D01*
X230600612Y-30801912D01*
X230605916Y-30808998D01*
X230885827Y-31212145D01*
X230890602Y-31219574D01*
X231141062Y-31641703D01*
X231145294Y-31649453D01*
X231364987Y-32088346D01*
X231368664Y-32096397D01*
X231556487Y-32549839D01*
X231559580Y-32558133D01*
X231714571Y-33023807D01*
X231717065Y-33032300D01*
X231838442Y-33507851D01*
X231840324Y-33516500D01*
X231927468Y-33999505D01*
X231928728Y-34008267D01*
X231981193Y-34496264D01*
X231981824Y-34505093D01*
X231999421Y-34997788D01*
X231999500Y-35002214D01*
X231999500Y-82376000D01*
X231979815Y-82443039D01*
X231927011Y-82488794D01*
X231875500Y-82500000D01*
X220231434Y-82500000D01*
X220164395Y-82480315D01*
X220118640Y-82427511D01*
X220113503Y-82414317D01*
X220047897Y-82212399D01*
X220047895Y-82212393D01*
X220013237Y-82144375D01*
X219947815Y-82015978D01*
X219930478Y-81992116D01*
X219818247Y-81837641D01*
X219818243Y-81837636D01*
X219767683Y-81787076D01*
X219734198Y-81725753D01*
X219739182Y-81656061D01*
X219781054Y-81600128D01*
X219812031Y-81583213D01*
X219892086Y-81553354D01*
X219892093Y-81553350D01*
X220007187Y-81467190D01*
X220007190Y-81467187D01*
X220093350Y-81352093D01*
X220093354Y-81352086D01*
X220143596Y-81217379D01*
X220143598Y-81217372D01*
X220149999Y-81157844D01*
X220150000Y-81157827D01*
X220150000Y-80460000D01*
X219125278Y-80460000D01*
X219169333Y-80383694D01*
X219200000Y-80269244D01*
X219200000Y-80150756D01*
X219169333Y-80036306D01*
X219125278Y-79960000D01*
X220150000Y-79960000D01*
X220150000Y-79262172D01*
X220149999Y-79262155D01*
X220143598Y-79202627D01*
X220143596Y-79202620D01*
X220093354Y-79067913D01*
X220093350Y-79067906D01*
X220007190Y-78952812D01*
X220007187Y-78952809D01*
X219892093Y-78866649D01*
X219892086Y-78866645D01*
X219757379Y-78816403D01*
X219757372Y-78816401D01*
X219697844Y-78810000D01*
X219000000Y-78810000D01*
X219000000Y-79834722D01*
X218923694Y-79790667D01*
X218809244Y-79760000D01*
X218690756Y-79760000D01*
X218576306Y-79790667D01*
X218500000Y-79834722D01*
X218500000Y-78810000D01*
X217802155Y-78810000D01*
X217742627Y-78816401D01*
X217742620Y-78816403D01*
X217607913Y-78866645D01*
X217607906Y-78866649D01*
X217492812Y-78952809D01*
X217492809Y-78952812D01*
X217406649Y-79067906D01*
X217406645Y-79067913D01*
X217356403Y-79202620D01*
X217356401Y-79202627D01*
X217350000Y-79262155D01*
X217350000Y-79960000D01*
X218374722Y-79960000D01*
X218330667Y-80036306D01*
X218300000Y-80150756D01*
X218300000Y-80269244D01*
X218330667Y-80383694D01*
X218374722Y-80460000D01*
X217350000Y-80460000D01*
X217350000Y-81157844D01*
X217356401Y-81217372D01*
X217356403Y-81217379D01*
X217406645Y-81352086D01*
X217406649Y-81352093D01*
X217492809Y-81467187D01*
X217492812Y-81467190D01*
X217607906Y-81553350D01*
X217607913Y-81553354D01*
X217687968Y-81583213D01*
X217743902Y-81625084D01*
X217768319Y-81690549D01*
X217753467Y-81758822D01*
X217732317Y-81787075D01*
X217681756Y-81837636D01*
X217681752Y-81837641D01*
X217552187Y-82015974D01*
X217452104Y-82212393D01*
X217452102Y-82212399D01*
X217386497Y-82414317D01*
X217347060Y-82471993D01*
X217282702Y-82499192D01*
X217268566Y-82500000D01*
X216831142Y-82500000D01*
X216764103Y-82480315D01*
X216718348Y-82427511D01*
X216713211Y-82414319D01*
X216672547Y-82289168D01*
X216672545Y-82289165D01*
X216672545Y-82289163D01*
X216586759Y-82120800D01*
X216562953Y-82088034D01*
X216475690Y-81967927D01*
X216342073Y-81834310D01*
X216189199Y-81723240D01*
X216142636Y-81699515D01*
X216020836Y-81637454D01*
X215841118Y-81579059D01*
X215654486Y-81549500D01*
X215654481Y-81549500D01*
X215465519Y-81549500D01*
X215465514Y-81549500D01*
X215278881Y-81579059D01*
X215099163Y-81637454D01*
X214930800Y-81723240D01*
X214856987Y-81776869D01*
X214777927Y-81834310D01*
X214777925Y-81834312D01*
X214777924Y-81834312D01*
X214644312Y-81967924D01*
X214644312Y-81967925D01*
X214644310Y-81967927D01*
X214609402Y-82015974D01*
X214533240Y-82120800D01*
X214447454Y-82289163D01*
X214419704Y-82374567D01*
X214406790Y-82414317D01*
X214406789Y-82414319D01*
X214367351Y-82471994D01*
X214302992Y-82499192D01*
X214288858Y-82500000D01*
X211909756Y-82500000D01*
X211842717Y-82480315D01*
X211796962Y-82427511D01*
X211787018Y-82358353D01*
X211816043Y-82294797D01*
X211822075Y-82288319D01*
X214939224Y-79171170D01*
X217048663Y-77061731D01*
X219168506Y-74941888D01*
X219168511Y-74941884D01*
X219178714Y-74931680D01*
X219178716Y-74931680D01*
X219290520Y-74819876D01*
X219369577Y-74682944D01*
X219410500Y-74530217D01*
X219410500Y-64871872D01*
X219430185Y-64804833D01*
X219482989Y-64759078D01*
X219552147Y-64749134D01*
X219590795Y-64761387D01*
X219626808Y-64779737D01*
X219626811Y-64779738D01*
X219834740Y-64847297D01*
X220050684Y-64881500D01*
X220269316Y-64881500D01*
X220485259Y-64847297D01*
X220693188Y-64779738D01*
X220693191Y-64779737D01*
X220887995Y-64680478D01*
X220949638Y-64635691D01*
X220949639Y-64635691D01*
X220244093Y-63930147D01*
X220331571Y-63906708D01*
X220432930Y-63848189D01*
X220515689Y-63765430D01*
X220574208Y-63664071D01*
X220597647Y-63576595D01*
X221303191Y-64282139D01*
X221303191Y-64282138D01*
X221347978Y-64220495D01*
X221447237Y-64025691D01*
X221447238Y-64025688D01*
X221514797Y-63817759D01*
X221549000Y-63601816D01*
X221549000Y-63383183D01*
X221514797Y-63167240D01*
X221447238Y-62959311D01*
X221447237Y-62959308D01*
X221347980Y-62764508D01*
X221303191Y-62702860D01*
X220597647Y-63408404D01*
X220574208Y-63320929D01*
X220515689Y-63219570D01*
X220432930Y-63136811D01*
X220331571Y-63078292D01*
X220244092Y-63054852D01*
X220949638Y-62349307D01*
X220949638Y-62349306D01*
X220887995Y-62304521D01*
X220887993Y-62304520D01*
X220693191Y-62205262D01*
X220693188Y-62205261D01*
X220485259Y-62137702D01*
X220269316Y-62103500D01*
X220050684Y-62103500D01*
X219834740Y-62137702D01*
X219626811Y-62205261D01*
X219626808Y-62205262D01*
X219432001Y-62304523D01*
X219370360Y-62349306D01*
X219370360Y-62349307D01*
X220075905Y-63054852D01*
X219988429Y-63078292D01*
X219887070Y-63136811D01*
X219804311Y-63219570D01*
X219745792Y-63320929D01*
X219722352Y-63408406D01*
X219446820Y-63132873D01*
X219413335Y-63071550D01*
X219410501Y-63045192D01*
X219410501Y-62920529D01*
X219374752Y-62787114D01*
X219369577Y-62767801D01*
X219341007Y-62718315D01*
X219290524Y-62630875D01*
X219290518Y-62630867D01*
X216613114Y-59953463D01*
X216530299Y-59870648D01*
X223596500Y-59870648D01*
X223596500Y-60129351D01*
X223630837Y-60346147D01*
X223636968Y-60384854D01*
X223716909Y-60630885D01*
X223834353Y-60861382D01*
X223986408Y-61070668D01*
X224169332Y-61253592D01*
X224378618Y-61405647D01*
X224609115Y-61523091D01*
X224855146Y-61603032D01*
X224950961Y-61618207D01*
X225110649Y-61643500D01*
X225110654Y-61643500D01*
X225369351Y-61643500D01*
X225511294Y-61621017D01*
X225624854Y-61603032D01*
X225870885Y-61523091D01*
X226101382Y-61405647D01*
X226310668Y-61253592D01*
X226493592Y-61070668D01*
X226645647Y-60861382D01*
X226763091Y-60630885D01*
X226843032Y-60384854D01*
X226872883Y-60196382D01*
X226883500Y-60129351D01*
X226883500Y-59870648D01*
X226853648Y-59682175D01*
X226843032Y-59615146D01*
X226763091Y-59369115D01*
X226645647Y-59138618D01*
X226493592Y-58929332D01*
X226310668Y-58746408D01*
X226101382Y-58594353D01*
X225870885Y-58476909D01*
X225624854Y-58396968D01*
X225624852Y-58396967D01*
X225624850Y-58396967D01*
X225369351Y-58356500D01*
X225369346Y-58356500D01*
X225110654Y-58356500D01*
X225110649Y-58356500D01*
X224855149Y-58396967D01*
X224609112Y-58476910D01*
X224378617Y-58594353D01*
X224169329Y-58746410D01*
X223986410Y-58929329D01*
X223834353Y-59138617D01*
X223716910Y-59369112D01*
X223636967Y-59615149D01*
X223596500Y-59870648D01*
X216530299Y-59870648D01*
X209630505Y-52970855D01*
X209630503Y-52970852D01*
X209511632Y-52851981D01*
X209511624Y-52851975D01*
X209420070Y-52799117D01*
X209420068Y-52799116D01*
X209374705Y-52772925D01*
X209374704Y-52772924D01*
X209362178Y-52769567D01*
X209221972Y-52731999D01*
X209063858Y-52731999D01*
X209056262Y-52731999D01*
X209056246Y-52732000D01*
X208789490Y-52732000D01*
X208722451Y-52712315D01*
X208679005Y-52664295D01*
X208648407Y-52604243D01*
X208640147Y-52592874D01*
X208519857Y-52427306D01*
X208365199Y-52272648D01*
X208214028Y-52162816D01*
X208171364Y-52107489D01*
X208165385Y-52037876D01*
X208197990Y-51976080D01*
X208214023Y-51962186D01*
X208365199Y-51852352D01*
X208519852Y-51697699D01*
X208519854Y-51697695D01*
X208519857Y-51697693D01*
X208585282Y-51607642D01*
X208648407Y-51520757D01*
X208747701Y-51325883D01*
X208815286Y-51117875D01*
X208832912Y-51006582D01*
X208849500Y-50901861D01*
X208849500Y-50683138D01*
X208829595Y-50557471D01*
X208815286Y-50467125D01*
X208747701Y-50259117D01*
X208747701Y-50259116D01*
X208713315Y-50191632D01*
X208648407Y-50064243D01*
X208640147Y-50052874D01*
X208519857Y-49887306D01*
X208365193Y-49732642D01*
X208188260Y-49604095D01*
X208188259Y-49604094D01*
X208188257Y-49604093D01*
X208125825Y-49572282D01*
X207993383Y-49504798D01*
X207993380Y-49504797D01*
X207785376Y-49437214D01*
X207569361Y-49403000D01*
X207569356Y-49403000D01*
X207350644Y-49403000D01*
X207350639Y-49403000D01*
X207134623Y-49437214D01*
X206926619Y-49504797D01*
X206926616Y-49504798D01*
X206731739Y-49604095D01*
X206554806Y-49732642D01*
X206400142Y-49887306D01*
X206271595Y-50064239D01*
X206172298Y-50259116D01*
X206172297Y-50259119D01*
X206104714Y-50467123D01*
X206070500Y-50683138D01*
X206070500Y-50901861D01*
X206089755Y-51023432D01*
X206080800Y-51092725D01*
X206054963Y-51130511D01*
X198553943Y-58631530D01*
X198553942Y-58631531D01*
X198471372Y-58755107D01*
X198471367Y-58755117D01*
X198440134Y-58830523D01*
X198440134Y-58830524D01*
X198426292Y-58863941D01*
X198414494Y-58892422D01*
X198414493Y-58892426D01*
X198385499Y-59038185D01*
X198385499Y-59192925D01*
X198385500Y-59192946D01*
X198385500Y-61986500D01*
X198365815Y-62053539D01*
X198313011Y-62099294D01*
X198261500Y-62110500D01*
X192243500Y-62110500D01*
X192176461Y-62090815D01*
X192130706Y-62038011D01*
X192119500Y-61986500D01*
X192119500Y-46535648D01*
X208356500Y-46535648D01*
X208356500Y-46794351D01*
X208389104Y-47000202D01*
X208396968Y-47049854D01*
X208476909Y-47295885D01*
X208594353Y-47526382D01*
X208746408Y-47735668D01*
X208929332Y-47918592D01*
X209138618Y-48070647D01*
X209369115Y-48188091D01*
X209615146Y-48268032D01*
X209710961Y-48283207D01*
X209870649Y-48308500D01*
X209870654Y-48308500D01*
X210129351Y-48308500D01*
X210271294Y-48286017D01*
X210384854Y-48268032D01*
X210630885Y-48188091D01*
X210861382Y-48070647D01*
X211070668Y-47918592D01*
X211253592Y-47735668D01*
X211405647Y-47526382D01*
X211523091Y-47295885D01*
X211603032Y-47049854D01*
X211643500Y-46794346D01*
X211643500Y-46535654D01*
X211643500Y-46535648D01*
X211603032Y-46280149D01*
X211603032Y-46280146D01*
X211523091Y-46034115D01*
X211405647Y-45803618D01*
X211260023Y-45603183D01*
X213056000Y-45603183D01*
X213056000Y-45821816D01*
X213090202Y-46037759D01*
X213157761Y-46245688D01*
X213157762Y-46245691D01*
X213257020Y-46440493D01*
X213257021Y-46440495D01*
X213301806Y-46502138D01*
X213301807Y-46502138D01*
X214002861Y-45801084D01*
X214025667Y-45886194D01*
X214084910Y-45988806D01*
X214168694Y-46072590D01*
X214271306Y-46131833D01*
X214356414Y-46154637D01*
X213655360Y-46855691D01*
X213717008Y-46900480D01*
X213911808Y-46999737D01*
X213911811Y-46999738D01*
X214119740Y-47067297D01*
X214335684Y-47101500D01*
X214554316Y-47101500D01*
X214770259Y-47067297D01*
X214978188Y-46999738D01*
X214978191Y-46999737D01*
X215172995Y-46900478D01*
X215234638Y-46855691D01*
X215234639Y-46855691D01*
X214533585Y-46154638D01*
X214618694Y-46131833D01*
X214721306Y-46072590D01*
X214805090Y-45988806D01*
X214864333Y-45886194D01*
X214887137Y-45801085D01*
X215588191Y-46502139D01*
X215588191Y-46502138D01*
X215632978Y-46440495D01*
X215732237Y-46245691D01*
X215732238Y-46245688D01*
X215799797Y-46037759D01*
X215834000Y-45821816D01*
X215834000Y-45603183D01*
X215833993Y-45603138D01*
X219405500Y-45603138D01*
X219405500Y-45821861D01*
X219439714Y-46037876D01*
X219507297Y-46245880D01*
X219507298Y-46245883D01*
X219574782Y-46378325D01*
X219606592Y-46440756D01*
X219606595Y-46440760D01*
X219735142Y-46617693D01*
X219889806Y-46772357D01*
X220004508Y-46855691D01*
X220066743Y-46900907D01*
X220194132Y-46965815D01*
X220261616Y-47000201D01*
X220261619Y-47000202D01*
X220365621Y-47033993D01*
X220469625Y-47067786D01*
X220569672Y-47083632D01*
X220685639Y-47102000D01*
X220685644Y-47102000D01*
X220904361Y-47102000D01*
X221009082Y-47085412D01*
X221120375Y-47067786D01*
X221328383Y-47000201D01*
X221523257Y-46900907D01*
X221622601Y-46828729D01*
X221700193Y-46772357D01*
X221700195Y-46772354D01*
X221700199Y-46772352D01*
X221854852Y-46617699D01*
X221914465Y-46535648D01*
X223596500Y-46535648D01*
X223596500Y-46794351D01*
X223629104Y-47000202D01*
X223636968Y-47049854D01*
X223716909Y-47295885D01*
X223834353Y-47526382D01*
X223986408Y-47735668D01*
X224169332Y-47918592D01*
X224378618Y-48070647D01*
X224609115Y-48188091D01*
X224855146Y-48268032D01*
X224950961Y-48283207D01*
X225110649Y-48308500D01*
X225110654Y-48308500D01*
X225369351Y-48308500D01*
X225511294Y-48286017D01*
X225624854Y-48268032D01*
X225870885Y-48188091D01*
X226101382Y-48070647D01*
X226310668Y-47918592D01*
X226493592Y-47735668D01*
X226645647Y-47526382D01*
X226763091Y-47295885D01*
X226843032Y-47049854D01*
X226883499Y-46794355D01*
X226883500Y-46794351D01*
X226883500Y-46535648D01*
X226843032Y-46280149D01*
X226843032Y-46280146D01*
X226763091Y-46034115D01*
X226645647Y-45803618D01*
X226493592Y-45594332D01*
X226310668Y-45411408D01*
X226101382Y-45259353D01*
X225870885Y-45141909D01*
X225624854Y-45061968D01*
X225624852Y-45061967D01*
X225624850Y-45061967D01*
X225369351Y-45021500D01*
X225369346Y-45021500D01*
X225110654Y-45021500D01*
X225110649Y-45021500D01*
X224855149Y-45061967D01*
X224609112Y-45141910D01*
X224378617Y-45259353D01*
X224169329Y-45411410D01*
X223986410Y-45594329D01*
X223834353Y-45803617D01*
X223716910Y-46034112D01*
X223636967Y-46280149D01*
X223596500Y-46535648D01*
X221914465Y-46535648D01*
X221983407Y-46440757D01*
X222082701Y-46245883D01*
X222150286Y-46037875D01*
X222174310Y-45886194D01*
X222184500Y-45821861D01*
X222184500Y-45603138D01*
X222162910Y-45466833D01*
X222150286Y-45387125D01*
X222108771Y-45259353D01*
X222082702Y-45179119D01*
X222082701Y-45179116D01*
X222023010Y-45061968D01*
X221983407Y-44984243D01*
X221949943Y-44938183D01*
X221854857Y-44807306D01*
X221700193Y-44652642D01*
X221523260Y-44524095D01*
X221523259Y-44524094D01*
X221523257Y-44524093D01*
X221430654Y-44476909D01*
X221328383Y-44424798D01*
X221328380Y-44424797D01*
X221120376Y-44357214D01*
X220904361Y-44323000D01*
X220904356Y-44323000D01*
X220685644Y-44323000D01*
X220685639Y-44323000D01*
X220469623Y-44357214D01*
X220261619Y-44424797D01*
X220261616Y-44424798D01*
X220066739Y-44524095D01*
X219889806Y-44652642D01*
X219735142Y-44807306D01*
X219606595Y-44984239D01*
X219507298Y-45179116D01*
X219507297Y-45179119D01*
X219439714Y-45387123D01*
X219405500Y-45603138D01*
X215833993Y-45603138D01*
X215799797Y-45387240D01*
X215732238Y-45179311D01*
X215732237Y-45179308D01*
X215632980Y-44984508D01*
X215588191Y-44922860D01*
X214887137Y-45623914D01*
X214864333Y-45538806D01*
X214805090Y-45436194D01*
X214721306Y-45352410D01*
X214618694Y-45293167D01*
X214533583Y-45270361D01*
X215234638Y-44569307D01*
X215234638Y-44569306D01*
X215172995Y-44524521D01*
X215172993Y-44524520D01*
X214978191Y-44425262D01*
X214978188Y-44425261D01*
X214770259Y-44357702D01*
X214554316Y-44323500D01*
X214335684Y-44323500D01*
X214119740Y-44357702D01*
X213911811Y-44425261D01*
X213911808Y-44425262D01*
X213717001Y-44524523D01*
X213655360Y-44569306D01*
X213655360Y-44569307D01*
X214356414Y-45270361D01*
X214271306Y-45293167D01*
X214168694Y-45352410D01*
X214084910Y-45436194D01*
X214025667Y-45538806D01*
X214002861Y-45623914D01*
X213301807Y-44922860D01*
X213301806Y-44922860D01*
X213257023Y-44984501D01*
X213157762Y-45179308D01*
X213157761Y-45179311D01*
X213090202Y-45387240D01*
X213056000Y-45603183D01*
X211260023Y-45603183D01*
X211253592Y-45594332D01*
X211070668Y-45411408D01*
X210861382Y-45259353D01*
X210630885Y-45141909D01*
X210384854Y-45061968D01*
X210384852Y-45061967D01*
X210384850Y-45061967D01*
X210129351Y-45021500D01*
X210129346Y-45021500D01*
X209870654Y-45021500D01*
X209870649Y-45021500D01*
X209615149Y-45061967D01*
X209369112Y-45141910D01*
X209138617Y-45259353D01*
X208929329Y-45411410D01*
X208746410Y-45594329D01*
X208594353Y-45803617D01*
X208476910Y-46034112D01*
X208396967Y-46280149D01*
X208356500Y-46535648D01*
X192119500Y-46535648D01*
X192119500Y-40027510D01*
X192129223Y-39994394D01*
X192139065Y-39960656D01*
X192139160Y-39960554D01*
X192139185Y-39960471D01*
X192162131Y-39933942D01*
X192166223Y-39930383D01*
X192212219Y-39896966D01*
X192356966Y-39752219D01*
X192356968Y-39752215D01*
X192356971Y-39752213D01*
X192477286Y-39586611D01*
X192477415Y-39586359D01*
X192524795Y-39493369D01*
X192572769Y-39442573D01*
X192640590Y-39425778D01*
X192706725Y-39448315D01*
X192745765Y-39493369D01*
X192793141Y-39586350D01*
X192793147Y-39586359D01*
X192825523Y-39630921D01*
X192825524Y-39630922D01*
X193505000Y-38951446D01*
X193505000Y-38957661D01*
X193532259Y-39059394D01*
X193584920Y-39150606D01*
X193659394Y-39225080D01*
X193750606Y-39277741D01*
X193852339Y-39305000D01*
X193858553Y-39305000D01*
X193179076Y-39984474D01*
X193223650Y-40016859D01*
X193405968Y-40109755D01*
X193600582Y-40172990D01*
X193802683Y-40205000D01*
X194007317Y-40205000D01*
X194209417Y-40172990D01*
X194404031Y-40109755D01*
X194586349Y-40016859D01*
X194630921Y-39984474D01*
X193951447Y-39305000D01*
X193957661Y-39305000D01*
X194059394Y-39277741D01*
X194150606Y-39225080D01*
X194225080Y-39150606D01*
X194277741Y-39059394D01*
X194305000Y-38957661D01*
X194305000Y-38951447D01*
X194984474Y-39630921D01*
X195016859Y-39586349D01*
X195109754Y-39404031D01*
X195152047Y-39273872D01*
X199094500Y-39273872D01*
X199094500Y-39536127D01*
X199108456Y-39642125D01*
X199128730Y-39796116D01*
X199190732Y-40027510D01*
X199196602Y-40049418D01*
X199196605Y-40049428D01*
X199296953Y-40291690D01*
X199296958Y-40291700D01*
X199428075Y-40518803D01*
X199587718Y-40726851D01*
X199587726Y-40726860D01*
X199773140Y-40912274D01*
X199773148Y-40912281D01*
X199981196Y-41071924D01*
X200208299Y-41203041D01*
X200208309Y-41203046D01*
X200450571Y-41303394D01*
X200450581Y-41303398D01*
X200703884Y-41371270D01*
X200963880Y-41405500D01*
X200963887Y-41405500D01*
X201226113Y-41405500D01*
X201226120Y-41405500D01*
X201486116Y-41371270D01*
X201739419Y-41303398D01*
X201981697Y-41203043D01*
X202208803Y-41071924D01*
X202416851Y-40912282D01*
X202416855Y-40912277D01*
X202416860Y-40912274D01*
X202602274Y-40726860D01*
X202602277Y-40726855D01*
X202602282Y-40726851D01*
X202758598Y-40523138D01*
X213055500Y-40523138D01*
X213055500Y-40741861D01*
X213089714Y-40957876D01*
X213157297Y-41165880D01*
X213157298Y-41165883D01*
X213256595Y-41360760D01*
X213385142Y-41537693D01*
X213539806Y-41692357D01*
X213705374Y-41812647D01*
X213716743Y-41820907D01*
X213844132Y-41885815D01*
X213911616Y-41920201D01*
X213911619Y-41920202D01*
X214015621Y-41953993D01*
X214119625Y-41987786D01*
X214219672Y-42003632D01*
X214335639Y-42022000D01*
X214335644Y-42022000D01*
X214554361Y-42022000D01*
X214659082Y-42005412D01*
X214770375Y-41987786D01*
X214978383Y-41920201D01*
X215173257Y-41820907D01*
X215272601Y-41748729D01*
X215350193Y-41692357D01*
X215350195Y-41692354D01*
X215350199Y-41692352D01*
X215504852Y-41537699D01*
X215504854Y-41537695D01*
X215504857Y-41537693D01*
X215561229Y-41460101D01*
X215633407Y-41360757D01*
X215732701Y-41165883D01*
X215800286Y-40957875D01*
X215817912Y-40846582D01*
X215834500Y-40741861D01*
X215834500Y-40523138D01*
X219405500Y-40523138D01*
X219405500Y-40741861D01*
X219439714Y-40957876D01*
X219507297Y-41165880D01*
X219507298Y-41165883D01*
X219606595Y-41360760D01*
X219735142Y-41537693D01*
X219889806Y-41692357D01*
X220055374Y-41812647D01*
X220066743Y-41820907D01*
X220194132Y-41885815D01*
X220261616Y-41920201D01*
X220261619Y-41920202D01*
X220365621Y-41953993D01*
X220469625Y-41987786D01*
X220569672Y-42003632D01*
X220685639Y-42022000D01*
X220685644Y-42022000D01*
X220904361Y-42022000D01*
X221009082Y-42005412D01*
X221120375Y-41987786D01*
X221328383Y-41920201D01*
X221523257Y-41820907D01*
X221622601Y-41748729D01*
X221700193Y-41692357D01*
X221700195Y-41692354D01*
X221700199Y-41692352D01*
X221854852Y-41537699D01*
X221854854Y-41537695D01*
X221854857Y-41537693D01*
X221911229Y-41460101D01*
X221983407Y-41360757D01*
X222082701Y-41165883D01*
X222150286Y-40957875D01*
X222167912Y-40846582D01*
X222184500Y-40741861D01*
X222184500Y-40523138D01*
X222164595Y-40397471D01*
X222150286Y-40307125D01*
X222106862Y-40173477D01*
X222082702Y-40099119D01*
X222082701Y-40099116D01*
X222040788Y-40016859D01*
X221983407Y-39904243D01*
X221975147Y-39892874D01*
X221854857Y-39727306D01*
X221700193Y-39572642D01*
X221523260Y-39444095D01*
X221523259Y-39444094D01*
X221523257Y-39444093D01*
X221460825Y-39412282D01*
X221328383Y-39344798D01*
X221328380Y-39344797D01*
X221120376Y-39277214D01*
X220904361Y-39243000D01*
X220904356Y-39243000D01*
X220685644Y-39243000D01*
X220685639Y-39243000D01*
X220469623Y-39277214D01*
X220261619Y-39344797D01*
X220261616Y-39344798D01*
X220066739Y-39444095D01*
X219889806Y-39572642D01*
X219735142Y-39727306D01*
X219606595Y-39904239D01*
X219507298Y-40099116D01*
X219507297Y-40099119D01*
X219439714Y-40307123D01*
X219405500Y-40523138D01*
X215834500Y-40523138D01*
X215814595Y-40397471D01*
X215800286Y-40307125D01*
X215756862Y-40173477D01*
X215732702Y-40099119D01*
X215732701Y-40099116D01*
X215690788Y-40016859D01*
X215633407Y-39904243D01*
X215625147Y-39892874D01*
X215504857Y-39727306D01*
X215350193Y-39572642D01*
X215173260Y-39444095D01*
X215173259Y-39444094D01*
X215173257Y-39444093D01*
X215110825Y-39412282D01*
X214978383Y-39344798D01*
X214978380Y-39344797D01*
X214770376Y-39277214D01*
X214554361Y-39243000D01*
X214554356Y-39243000D01*
X214335644Y-39243000D01*
X214335639Y-39243000D01*
X214119623Y-39277214D01*
X213911619Y-39344797D01*
X213911616Y-39344798D01*
X213716739Y-39444095D01*
X213539806Y-39572642D01*
X213385142Y-39727306D01*
X213256595Y-39904239D01*
X213157298Y-40099116D01*
X213157297Y-40099119D01*
X213089714Y-40307123D01*
X213055500Y-40523138D01*
X202758598Y-40523138D01*
X202761924Y-40518803D01*
X202893043Y-40291697D01*
X202993398Y-40049419D01*
X203061270Y-39796116D01*
X203095500Y-39536120D01*
X203095500Y-39273880D01*
X203061270Y-39013884D01*
X202993398Y-38760581D01*
X202951485Y-38659394D01*
X202893046Y-38518309D01*
X202893041Y-38518299D01*
X202761924Y-38291196D01*
X202602281Y-38083148D01*
X202602274Y-38083140D01*
X202416860Y-37897726D01*
X202416851Y-37897718D01*
X202208803Y-37738075D01*
X201981700Y-37606958D01*
X201981690Y-37606953D01*
X201739428Y-37506605D01*
X201739421Y-37506603D01*
X201739419Y-37506602D01*
X201486116Y-37438730D01*
X201428339Y-37431123D01*
X201226127Y-37404500D01*
X201226120Y-37404500D01*
X200963880Y-37404500D01*
X200963872Y-37404500D01*
X200732772Y-37434926D01*
X200703884Y-37438730D01*
X200450581Y-37506602D01*
X200450571Y-37506605D01*
X200208309Y-37606953D01*
X200208299Y-37606958D01*
X199981196Y-37738075D01*
X199773148Y-37897718D01*
X199587718Y-38083148D01*
X199428075Y-38291196D01*
X199296958Y-38518299D01*
X199296953Y-38518309D01*
X199196605Y-38760571D01*
X199196602Y-38760581D01*
X199128730Y-39013885D01*
X199094500Y-39273872D01*
X195152047Y-39273872D01*
X195165814Y-39231502D01*
X195165815Y-39231500D01*
X195172988Y-39209424D01*
X195172989Y-39209418D01*
X195205000Y-39007317D01*
X195205000Y-38802682D01*
X195172990Y-38600582D01*
X195109755Y-38405968D01*
X195016859Y-38223650D01*
X194984474Y-38179077D01*
X194984474Y-38179076D01*
X194305000Y-38858551D01*
X194305000Y-38852339D01*
X194277741Y-38750606D01*
X194225080Y-38659394D01*
X194150606Y-38584920D01*
X194059394Y-38532259D01*
X193957661Y-38505000D01*
X193951446Y-38505000D01*
X194630922Y-37825524D01*
X194630921Y-37825523D01*
X194586359Y-37793147D01*
X194586350Y-37793141D01*
X194404031Y-37700244D01*
X194209417Y-37637009D01*
X194007317Y-37605000D01*
X193802683Y-37605000D01*
X193600582Y-37637009D01*
X193405968Y-37700244D01*
X193223644Y-37793143D01*
X193179077Y-37825523D01*
X193179077Y-37825524D01*
X193858554Y-38505000D01*
X193852339Y-38505000D01*
X193750606Y-38532259D01*
X193659394Y-38584920D01*
X193584920Y-38659394D01*
X193532259Y-38750606D01*
X193505000Y-38852339D01*
X193505000Y-38858553D01*
X192825524Y-38179077D01*
X192825523Y-38179077D01*
X192793143Y-38223644D01*
X192745765Y-38316630D01*
X192697790Y-38367426D01*
X192629969Y-38384221D01*
X192563834Y-38361683D01*
X192524795Y-38316630D01*
X192477284Y-38223385D01*
X192356971Y-38057786D01*
X192212213Y-37913028D01*
X192046613Y-37792715D01*
X192046612Y-37792714D01*
X192046610Y-37792713D01*
X191989653Y-37763691D01*
X191864223Y-37699781D01*
X191669534Y-37636522D01*
X191482871Y-37606958D01*
X191467352Y-37604500D01*
X191262648Y-37604500D01*
X191247129Y-37606958D01*
X191060465Y-37636522D01*
X190865776Y-37699781D01*
X190683386Y-37792715D01*
X190517786Y-37913028D01*
X190373028Y-38057786D01*
X190252715Y-38223386D01*
X190205485Y-38316080D01*
X190157510Y-38366876D01*
X190089689Y-38383671D01*
X190023554Y-38361134D01*
X189984515Y-38316080D01*
X189937419Y-38223650D01*
X189937287Y-38223390D01*
X189905092Y-38179077D01*
X189816971Y-38057786D01*
X189672213Y-37913028D01*
X189506613Y-37792715D01*
X189506612Y-37792714D01*
X189506610Y-37792713D01*
X189449653Y-37763691D01*
X189324223Y-37699781D01*
X189129534Y-37636522D01*
X188942871Y-37606958D01*
X188927352Y-37604500D01*
X188722648Y-37604500D01*
X188707129Y-37606958D01*
X188520465Y-37636522D01*
X188325776Y-37699781D01*
X188143386Y-37792715D01*
X187977786Y-37913028D01*
X187833028Y-38057786D01*
X187712715Y-38223386D01*
X187665485Y-38316080D01*
X187617510Y-38366876D01*
X187549689Y-38383671D01*
X187483554Y-38361134D01*
X187444515Y-38316080D01*
X187397419Y-38223650D01*
X187397287Y-38223390D01*
X187365092Y-38179077D01*
X187276971Y-38057786D01*
X187132213Y-37913028D01*
X186966613Y-37792715D01*
X186966612Y-37792714D01*
X186966610Y-37792713D01*
X186909653Y-37763691D01*
X186784223Y-37699781D01*
X186589534Y-37636522D01*
X186402871Y-37606958D01*
X186387352Y-37604500D01*
X186182648Y-37604500D01*
X186167129Y-37606958D01*
X185980465Y-37636522D01*
X185785776Y-37699781D01*
X185603386Y-37792715D01*
X185437786Y-37913028D01*
X185293028Y-38057786D01*
X185172715Y-38223386D01*
X185079781Y-38405776D01*
X185016522Y-38600465D01*
X184984500Y-38802648D01*
X184984500Y-39007351D01*
X185016522Y-39209534D01*
X185079781Y-39404223D01*
X185143691Y-39529653D01*
X185172585Y-39586359D01*
X185172715Y-39586613D01*
X185293028Y-39752213D01*
X185437786Y-39896971D01*
X185558226Y-39984474D01*
X185603390Y-40017287D01*
X185719607Y-40076503D01*
X185785776Y-40110218D01*
X185785778Y-40110218D01*
X185785781Y-40110220D01*
X185890137Y-40144127D01*
X185980465Y-40173477D01*
X186081557Y-40189488D01*
X186182648Y-40205500D01*
X186182649Y-40205500D01*
X186387351Y-40205500D01*
X186387352Y-40205500D01*
X186589534Y-40173477D01*
X186784219Y-40110220D01*
X186966610Y-40017287D01*
X187059590Y-39949732D01*
X187132213Y-39896971D01*
X187132215Y-39896968D01*
X187132219Y-39896966D01*
X187276966Y-39752219D01*
X187276968Y-39752215D01*
X187276971Y-39752213D01*
X187397284Y-39586614D01*
X187397286Y-39586611D01*
X187397287Y-39586610D01*
X187444516Y-39493917D01*
X187492489Y-39443123D01*
X187560310Y-39426328D01*
X187626445Y-39448865D01*
X187665483Y-39493917D01*
X187686987Y-39536120D01*
X187712715Y-39586614D01*
X187833028Y-39752213D01*
X187977786Y-39896971D01*
X188098226Y-39984474D01*
X188143390Y-40017287D01*
X188259607Y-40076503D01*
X188325776Y-40110218D01*
X188325778Y-40110218D01*
X188325781Y-40110220D01*
X188430137Y-40144127D01*
X188520465Y-40173477D01*
X188621557Y-40189488D01*
X188722648Y-40205500D01*
X188722649Y-40205500D01*
X188927351Y-40205500D01*
X188927352Y-40205500D01*
X189129534Y-40173477D01*
X189324219Y-40110220D01*
X189506610Y-40017287D01*
X189599590Y-39949732D01*
X189672213Y-39896971D01*
X189672215Y-39896968D01*
X189672219Y-39896966D01*
X189816966Y-39752219D01*
X189816968Y-39752215D01*
X189816971Y-39752213D01*
X189937284Y-39586614D01*
X189937286Y-39586611D01*
X189937287Y-39586610D01*
X189984516Y-39493917D01*
X190032489Y-39443123D01*
X190100310Y-39426328D01*
X190166445Y-39448865D01*
X190205483Y-39493917D01*
X190226987Y-39536120D01*
X190252715Y-39586614D01*
X190373028Y-39752213D01*
X190373034Y-39752219D01*
X190517781Y-39896966D01*
X190559384Y-39927192D01*
X190602050Y-39982520D01*
X190610500Y-40027510D01*
X190610500Y-60744112D01*
X190590815Y-60811151D01*
X190538011Y-60856906D01*
X190468853Y-60866850D01*
X190405297Y-60837825D01*
X190398819Y-60831793D01*
X188430969Y-58863943D01*
X188430966Y-58863941D01*
X188307392Y-58781372D01*
X188307391Y-58781371D01*
X188307389Y-58781370D01*
X188307386Y-58781368D01*
X188307381Y-58781366D01*
X188226883Y-58748024D01*
X188226885Y-58748024D01*
X188222982Y-58746408D01*
X188170080Y-58724495D01*
X188145894Y-58719684D01*
X188138079Y-58718129D01*
X188138075Y-58718128D01*
X188024314Y-58695499D01*
X188024312Y-58695499D01*
X187875688Y-58695499D01*
X187869574Y-58695499D01*
X187869554Y-58695500D01*
X173240717Y-58695500D01*
X173094961Y-58724493D01*
X173094953Y-58724495D01*
X172957642Y-58781371D01*
X172834069Y-58863939D01*
X172834068Y-58863940D01*
X172805588Y-58892421D01*
X172728975Y-58969034D01*
X172728973Y-58969036D01*
X171944874Y-59753133D01*
X171883551Y-59786618D01*
X171813859Y-59781634D01*
X171757926Y-59739762D01*
X171733509Y-59674298D01*
X171734719Y-59646059D01*
X171756807Y-59506605D01*
X171763500Y-59464350D01*
X171763500Y-59205648D01*
X171736521Y-59035315D01*
X171723032Y-58950146D01*
X171643091Y-58704115D01*
X171525647Y-58473618D01*
X171373592Y-58264332D01*
X171190668Y-58081408D01*
X170981382Y-57929353D01*
X170750885Y-57811909D01*
X170504854Y-57731968D01*
X170504852Y-57731967D01*
X170504850Y-57731967D01*
X170249351Y-57691500D01*
X170249346Y-57691500D01*
X169990654Y-57691500D01*
X169990649Y-57691500D01*
X169735149Y-57731967D01*
X169489112Y-57811910D01*
X169258617Y-57929353D01*
X169049329Y-58081410D01*
X168866410Y-58264329D01*
X168714353Y-58473617D01*
X168596910Y-58704112D01*
X168516967Y-58950149D01*
X168476500Y-59205648D01*
X168476500Y-59464351D01*
X168516967Y-59719850D01*
X168516968Y-59719854D01*
X168522889Y-59738076D01*
X168580491Y-59915356D01*
X168582486Y-59985197D01*
X168546406Y-60045030D01*
X168483705Y-60075858D01*
X168414291Y-60067893D01*
X168374879Y-60041355D01*
X157874969Y-49541443D01*
X157874968Y-49541442D01*
X157820127Y-49504799D01*
X157751389Y-49458870D01*
X157751386Y-49458868D01*
X157751385Y-49458868D01*
X157670955Y-49425553D01*
X157614080Y-49401995D01*
X157589894Y-49397184D01*
X157468314Y-49372999D01*
X157468312Y-49372999D01*
X157319688Y-49372999D01*
X157313574Y-49372999D01*
X157313554Y-49373000D01*
X153572521Y-49373000D01*
X153505482Y-49353315D01*
X153472205Y-49321888D01*
X153399852Y-49222301D01*
X153245199Y-49067648D01*
X153245193Y-49067642D01*
X153068260Y-48939095D01*
X153068259Y-48939094D01*
X153068257Y-48939093D01*
X153005825Y-48907282D01*
X152873383Y-48839798D01*
X152873380Y-48839797D01*
X152665376Y-48772214D01*
X152449361Y-48738000D01*
X152449356Y-48738000D01*
X152230644Y-48738000D01*
X152230639Y-48738000D01*
X152014623Y-48772214D01*
X151806619Y-48839797D01*
X151806616Y-48839798D01*
X151611739Y-48939095D01*
X151434806Y-49067642D01*
X151280142Y-49222306D01*
X151151595Y-49399239D01*
X151052298Y-49594116D01*
X151052297Y-49594119D01*
X150984714Y-49802123D01*
X150950500Y-50018138D01*
X150950500Y-50236861D01*
X150984714Y-50452876D01*
X151052297Y-50660880D01*
X151052298Y-50660883D01*
X151151595Y-50855760D01*
X151280142Y-51032693D01*
X151434806Y-51187357D01*
X151585969Y-51297182D01*
X151628635Y-51352511D01*
X151634614Y-51422125D01*
X151602009Y-51483920D01*
X151585969Y-51497818D01*
X151434806Y-51607642D01*
X151280142Y-51762306D01*
X151151595Y-51939239D01*
X151052298Y-52134116D01*
X151052297Y-52134119D01*
X150984714Y-52342123D01*
X150950500Y-52558138D01*
X150950500Y-52776861D01*
X150984714Y-52992876D01*
X151052297Y-53200880D01*
X151052298Y-53200883D01*
X151151595Y-53395760D01*
X151280142Y-53572693D01*
X151280148Y-53572699D01*
X151434801Y-53727352D01*
X151586395Y-53837491D01*
X151629060Y-53892819D01*
X151635039Y-53962432D01*
X151602434Y-54024228D01*
X151586394Y-54038126D01*
X151550360Y-54064305D01*
X151550360Y-54064307D01*
X152255906Y-54769852D01*
X152168429Y-54793292D01*
X152067070Y-54851811D01*
X151984311Y-54934570D01*
X151925792Y-55035929D01*
X151902352Y-55123405D01*
X151196807Y-54417860D01*
X151196806Y-54417860D01*
X151152023Y-54479501D01*
X151052762Y-54674308D01*
X151052761Y-54674311D01*
X150985202Y-54882240D01*
X150951000Y-55098183D01*
X150951000Y-55316816D01*
X150985202Y-55532759D01*
X151052761Y-55740688D01*
X151052762Y-55740691D01*
X151152020Y-55935493D01*
X151152021Y-55935495D01*
X151196806Y-55997138D01*
X151196807Y-55997138D01*
X151902352Y-55291593D01*
X151925792Y-55379071D01*
X151984311Y-55480430D01*
X152067070Y-55563189D01*
X152168429Y-55621708D01*
X152255905Y-55645147D01*
X151550360Y-56350691D01*
X151612008Y-56395480D01*
X151806808Y-56494737D01*
X151806811Y-56494738D01*
X152014740Y-56562297D01*
X152230684Y-56596500D01*
X152449316Y-56596500D01*
X152665259Y-56562297D01*
X152873188Y-56494738D01*
X152873191Y-56494737D01*
X153067995Y-56395478D01*
X153129638Y-56350691D01*
X153129639Y-56350691D01*
X152424094Y-55645147D01*
X152511571Y-55621708D01*
X152612930Y-55563189D01*
X152695689Y-55480430D01*
X152754208Y-55379071D01*
X152777647Y-55291593D01*
X153483191Y-55997139D01*
X153483191Y-55997138D01*
X153527978Y-55935495D01*
X153627237Y-55740691D01*
X153627238Y-55740688D01*
X153694797Y-55532759D01*
X153729000Y-55316816D01*
X153729000Y-55205097D01*
X153748685Y-55138058D01*
X153801489Y-55092303D01*
X153870647Y-55082359D01*
X153934203Y-55111384D01*
X153940681Y-55117416D01*
X157589181Y-58765916D01*
X157622666Y-58827239D01*
X157625500Y-58853597D01*
X157625500Y-68709232D01*
X157605815Y-68776271D01*
X157553011Y-68822026D01*
X157483853Y-68831970D01*
X157463183Y-68827163D01*
X157333686Y-68785088D01*
X157250000Y-68771833D01*
X157250000Y-70184314D01*
X157245606Y-70179920D01*
X157154394Y-70127259D01*
X157052661Y-70100000D01*
X156947339Y-70100000D01*
X156845606Y-70127259D01*
X156754394Y-70179920D01*
X156750000Y-70184314D01*
X156750000Y-68771833D01*
X156749999Y-68771833D01*
X156666315Y-68785088D01*
X156452992Y-68854399D01*
X156452989Y-68854400D01*
X156253136Y-68956231D01*
X156071673Y-69088073D01*
X156071672Y-69088073D01*
X155913073Y-69246672D01*
X155913073Y-69246673D01*
X155781229Y-69428139D01*
X155763462Y-69463007D01*
X155715486Y-69513802D01*
X155647665Y-69530595D01*
X155581530Y-69508055D01*
X155546342Y-69467440D01*
X155545460Y-69467981D01*
X155542919Y-69463835D01*
X155404133Y-69272813D01*
X155237186Y-69105866D01*
X155046171Y-68967085D01*
X154835802Y-68859897D01*
X154611247Y-68786934D01*
X154510000Y-68770897D01*
X154510000Y-70100000D01*
X154407339Y-70100000D01*
X154305606Y-70127259D01*
X154214394Y-70179920D01*
X154139920Y-70254394D01*
X154087259Y-70345606D01*
X154060000Y-70447339D01*
X154060000Y-70552661D01*
X154087259Y-70654394D01*
X154139920Y-70745606D01*
X154214394Y-70820080D01*
X154305606Y-70872741D01*
X154407339Y-70900000D01*
X154510000Y-70900000D01*
X154510000Y-72229101D01*
X154611249Y-72213065D01*
X154611255Y-72213063D01*
X154835804Y-72140102D01*
X155046171Y-72032914D01*
X155237186Y-71894133D01*
X155404133Y-71727186D01*
X155542919Y-71536164D01*
X155545460Y-71532019D01*
X155546566Y-71532696D01*
X155590432Y-71486220D01*
X155658247Y-71469401D01*
X155724390Y-71491916D01*
X155763463Y-71536993D01*
X155781229Y-71571860D01*
X155913073Y-71753326D01*
X155913073Y-71753327D01*
X156071672Y-71911926D01*
X156253136Y-72043768D01*
X156452989Y-72145599D01*
X156452992Y-72145600D01*
X156666310Y-72214910D01*
X156750000Y-72228166D01*
X156750000Y-70815686D01*
X156754394Y-70820080D01*
X156845606Y-70872741D01*
X156947339Y-70900000D01*
X157052661Y-70900000D01*
X157154394Y-70872741D01*
X157245606Y-70820080D01*
X157250000Y-70815686D01*
X157250000Y-72228165D01*
X157333689Y-72214910D01*
X157547007Y-72145600D01*
X157547010Y-72145599D01*
X157746863Y-72043768D01*
X157928326Y-71911926D01*
X157928327Y-71911926D01*
X157982881Y-71857372D01*
X158044204Y-71823886D01*
X158113896Y-71828870D01*
X158158244Y-71857371D01*
X161165247Y-74864374D01*
X161165257Y-74864385D01*
X161169587Y-74868715D01*
X161169588Y-74868716D01*
X161281392Y-74980520D01*
X161362759Y-75027496D01*
X161368203Y-75030639D01*
X161368205Y-75030641D01*
X161406259Y-75052611D01*
X161418323Y-75059577D01*
X161571051Y-75100501D01*
X161571054Y-75100501D01*
X161736761Y-75100501D01*
X161736777Y-75100500D01*
X166997695Y-75100500D01*
X167064734Y-75120185D01*
X167110489Y-75172989D01*
X167120433Y-75242147D01*
X167098013Y-75297385D01*
X166977087Y-75463825D01*
X166869897Y-75674197D01*
X166796934Y-75898752D01*
X166760000Y-76131947D01*
X166760000Y-76250000D01*
X168144314Y-76250000D01*
X168139920Y-76254394D01*
X168087259Y-76345606D01*
X168060000Y-76447339D01*
X168060000Y-76552661D01*
X168087259Y-76654394D01*
X168139920Y-76745606D01*
X168214394Y-76820080D01*
X168305606Y-76872741D01*
X168407339Y-76900000D01*
X168510000Y-76900000D01*
X168510000Y-78229100D01*
X168611249Y-78213065D01*
X168611255Y-78213063D01*
X168835804Y-78140102D01*
X169046171Y-78032914D01*
X169237186Y-77894133D01*
X169404133Y-77727186D01*
X169542919Y-77536164D01*
X169545460Y-77532019D01*
X169546566Y-77532696D01*
X169590432Y-77486220D01*
X169658247Y-77469401D01*
X169724390Y-77491916D01*
X169763463Y-77536993D01*
X169781229Y-77571860D01*
X169913073Y-77753326D01*
X169913073Y-77753327D01*
X170071672Y-77911926D01*
X170253136Y-78043768D01*
X170452989Y-78145599D01*
X170452992Y-78145600D01*
X170666310Y-78214910D01*
X170750000Y-78228166D01*
X170750000Y-76815686D01*
X170754394Y-76820080D01*
X170845606Y-76872741D01*
X170947339Y-76900000D01*
X171052661Y-76900000D01*
X171154394Y-76872741D01*
X171245606Y-76820080D01*
X171250000Y-76815686D01*
X171250000Y-78228165D01*
X171333689Y-78214910D01*
X171547007Y-78145600D01*
X171547010Y-78145599D01*
X171746863Y-78043768D01*
X171928326Y-77911926D01*
X171928327Y-77911926D01*
X172086926Y-77753327D01*
X172086926Y-77753326D01*
X172218768Y-77571863D01*
X172236253Y-77537547D01*
X172284227Y-77486750D01*
X172352048Y-77469954D01*
X172418183Y-77492490D01*
X172453163Y-77532862D01*
X172454112Y-77532281D01*
X172456652Y-77536426D01*
X172456656Y-77536432D01*
X172456657Y-77536433D01*
X172595483Y-77727510D01*
X172762490Y-77894517D01*
X172953567Y-78033343D01*
X172991481Y-78052661D01*
X173164003Y-78140566D01*
X173164005Y-78140566D01*
X173164008Y-78140568D01*
X173280563Y-78178439D01*
X173388631Y-78213553D01*
X173621903Y-78250500D01*
X173621908Y-78250500D01*
X173858097Y-78250500D01*
X174091368Y-78213553D01*
X174092876Y-78213063D01*
X174315992Y-78140568D01*
X174526433Y-78033343D01*
X174717510Y-77894517D01*
X174884517Y-77727510D01*
X175023343Y-77536433D01*
X175130568Y-77325992D01*
X175146590Y-77276680D01*
X175186028Y-77219006D01*
X175250387Y-77191808D01*
X175264521Y-77191000D01*
X175618483Y-77191000D01*
X175685522Y-77210685D01*
X175687373Y-77211898D01*
X175821557Y-77301556D01*
X175821556Y-77301556D01*
X175862185Y-77318385D01*
X175986167Y-77369740D01*
X175986171Y-77369740D01*
X175986172Y-77369741D01*
X176160912Y-77404500D01*
X176160915Y-77404500D01*
X176339087Y-77404500D01*
X176463183Y-77379815D01*
X176513833Y-77369740D01*
X176678441Y-77301557D01*
X176826585Y-77202571D01*
X176838156Y-77191000D01*
X176877280Y-77151877D01*
X176938603Y-77118392D01*
X177008295Y-77123376D01*
X177052642Y-77151877D01*
X177559181Y-77658416D01*
X177592666Y-77719739D01*
X177595500Y-77746097D01*
X177595500Y-77839085D01*
X177595500Y-77839087D01*
X177595499Y-77839087D01*
X177630258Y-78013827D01*
X177630260Y-78013833D01*
X177698442Y-78178439D01*
X177797430Y-78326587D01*
X177923412Y-78452569D01*
X177923415Y-78452571D01*
X178071559Y-78551557D01*
X178236167Y-78619740D01*
X178236171Y-78619740D01*
X178236172Y-78619741D01*
X178410912Y-78654500D01*
X178410915Y-78654500D01*
X178589087Y-78654500D01*
X178710946Y-78630260D01*
X178763833Y-78619740D01*
X178928441Y-78551557D01*
X179076585Y-78452571D01*
X179202571Y-78326585D01*
X179301557Y-78178441D01*
X179369740Y-78013833D01*
X179393474Y-77894517D01*
X179404500Y-77839087D01*
X179404500Y-77660912D01*
X179369741Y-77486172D01*
X179369740Y-77486171D01*
X179369740Y-77486167D01*
X179301557Y-77321559D01*
X179202571Y-77173415D01*
X179202569Y-77173412D01*
X179076587Y-77047430D01*
X178957682Y-76967981D01*
X178928441Y-76948443D01*
X178914605Y-76942712D01*
X178763833Y-76880260D01*
X178763827Y-76880258D01*
X178589087Y-76845500D01*
X178589085Y-76845500D01*
X178496097Y-76845500D01*
X178429058Y-76825815D01*
X178408416Y-76809181D01*
X175737590Y-74138355D01*
X175737588Y-74138352D01*
X175618717Y-74019481D01*
X175618716Y-74019480D01*
X175531904Y-73969360D01*
X175531904Y-73969359D01*
X175531900Y-73969358D01*
X175481785Y-73940423D01*
X175329057Y-73899499D01*
X175170943Y-73899499D01*
X175163347Y-73899499D01*
X175163331Y-73899500D01*
X161950205Y-73899500D01*
X161883166Y-73879815D01*
X161862524Y-73863181D01*
X160320028Y-72320685D01*
X160286543Y-72259362D01*
X160291527Y-72189670D01*
X160333399Y-72133737D01*
X160351408Y-72122522D01*
X160526433Y-72033343D01*
X160717510Y-71894517D01*
X160884517Y-71727510D01*
X161023343Y-71536433D01*
X161130568Y-71325992D01*
X161132498Y-71322205D01*
X161180473Y-71271409D01*
X161242983Y-71254500D01*
X162169554Y-71254500D01*
X162169574Y-71254501D01*
X162175688Y-71254501D01*
X162324314Y-71254501D01*
X162356918Y-71248014D01*
X162445894Y-71230315D01*
X162470080Y-71225505D01*
X162560439Y-71188077D01*
X162607389Y-71168630D01*
X162730966Y-71086059D01*
X162948973Y-70868052D01*
X166760000Y-70868052D01*
X166796934Y-71101247D01*
X166869897Y-71325802D01*
X166977085Y-71536171D01*
X167115866Y-71727186D01*
X167282813Y-71894133D01*
X167473828Y-72032914D01*
X167684195Y-72140102D01*
X167908744Y-72213063D01*
X167908750Y-72213065D01*
X168010000Y-72229101D01*
X168010000Y-70750000D01*
X166760000Y-70750000D01*
X166760000Y-70868052D01*
X162948973Y-70868052D01*
X163206069Y-70610957D01*
X163685078Y-70131947D01*
X166760000Y-70131947D01*
X166760000Y-70250000D01*
X168010000Y-70250000D01*
X168010000Y-68770897D01*
X167908752Y-68786934D01*
X167684197Y-68859897D01*
X167473828Y-68967085D01*
X167282813Y-69105866D01*
X167115866Y-69272813D01*
X166977085Y-69463828D01*
X166869897Y-69674197D01*
X166796934Y-69898752D01*
X166760000Y-70131947D01*
X163685078Y-70131947D01*
X163777631Y-70039394D01*
X166476248Y-67340776D01*
X169230963Y-64586060D01*
X169230966Y-64586059D01*
X169336059Y-64480966D01*
X169418629Y-64357390D01*
X169475505Y-64220080D01*
X169487231Y-64161129D01*
X169496367Y-64115201D01*
X169504501Y-64074314D01*
X169504501Y-63920578D01*
X169504500Y-63920552D01*
X169504500Y-62362000D01*
X169524185Y-62294961D01*
X169576989Y-62249206D01*
X169628500Y-62238000D01*
X171201088Y-62238000D01*
X171201108Y-62238001D01*
X171207222Y-62238001D01*
X171355848Y-62238001D01*
X171392543Y-62230700D01*
X171477428Y-62213815D01*
X171501614Y-62209005D01*
X171558489Y-62185446D01*
X171638923Y-62152130D01*
X171762500Y-62069559D01*
X173591239Y-60240818D01*
X173652562Y-60207334D01*
X173678920Y-60204500D01*
X177263356Y-60204500D01*
X177330395Y-60224185D01*
X177376150Y-60276989D01*
X177386094Y-60346147D01*
X177370744Y-60390499D01*
X177296956Y-60518304D01*
X177296953Y-60518309D01*
X177196605Y-60760571D01*
X177196602Y-60760581D01*
X177149055Y-60938032D01*
X177128730Y-61013885D01*
X177094500Y-61273872D01*
X177094500Y-61536127D01*
X177103309Y-61603032D01*
X177128730Y-61796116D01*
X177196602Y-62049418D01*
X177196605Y-62049428D01*
X177296953Y-62291690D01*
X177296958Y-62291700D01*
X177428075Y-62518803D01*
X177587718Y-62726851D01*
X177587726Y-62726860D01*
X177773140Y-62912274D01*
X177773148Y-62912281D01*
X177773149Y-62912282D01*
X177805122Y-62936816D01*
X177981196Y-63071924D01*
X178208299Y-63203041D01*
X178208309Y-63203046D01*
X178450571Y-63303394D01*
X178450581Y-63303398D01*
X178703884Y-63371270D01*
X178963880Y-63405500D01*
X178963887Y-63405500D01*
X179226113Y-63405500D01*
X179226120Y-63405500D01*
X179257061Y-63401426D01*
X179326095Y-63412191D01*
X179378352Y-63458570D01*
X179397238Y-63525838D01*
X179376759Y-63592639D01*
X179360928Y-63612046D01*
X174216921Y-68756052D01*
X174155598Y-68789537D01*
X174096357Y-68786572D01*
X174096114Y-68787586D01*
X174091368Y-68786447D01*
X173858097Y-68749500D01*
X173858092Y-68749500D01*
X173621908Y-68749500D01*
X173621903Y-68749500D01*
X173388631Y-68786446D01*
X173164003Y-68859433D01*
X172953566Y-68966657D01*
X172854223Y-69038835D01*
X172762490Y-69105483D01*
X172762488Y-69105485D01*
X172762487Y-69105485D01*
X172595485Y-69272487D01*
X172595485Y-69272488D01*
X172595483Y-69272490D01*
X172537641Y-69352102D01*
X172456652Y-69463573D01*
X172454112Y-69467719D01*
X172452934Y-69466997D01*
X172409243Y-69513254D01*
X172341421Y-69530045D01*
X172275287Y-69507503D01*
X172236254Y-69462453D01*
X172218770Y-69428138D01*
X172086926Y-69246673D01*
X172086926Y-69246672D01*
X171928327Y-69088073D01*
X171746863Y-68956231D01*
X171547010Y-68854400D01*
X171547007Y-68854399D01*
X171333684Y-68785088D01*
X171250000Y-68771833D01*
X171250000Y-70184314D01*
X171245606Y-70179920D01*
X171154394Y-70127259D01*
X171052661Y-70100000D01*
X170947339Y-70100000D01*
X170845606Y-70127259D01*
X170754394Y-70179920D01*
X170750000Y-70184314D01*
X170750000Y-68771833D01*
X170749999Y-68771833D01*
X170666315Y-68785088D01*
X170452992Y-68854399D01*
X170452989Y-68854400D01*
X170253136Y-68956231D01*
X170071673Y-69088073D01*
X170071672Y-69088073D01*
X169913073Y-69246672D01*
X169913073Y-69246673D01*
X169781229Y-69428139D01*
X169763462Y-69463007D01*
X169715486Y-69513802D01*
X169647665Y-69530595D01*
X169581530Y-69508055D01*
X169546342Y-69467440D01*
X169545460Y-69467981D01*
X169542919Y-69463835D01*
X169404133Y-69272813D01*
X169237186Y-69105866D01*
X169046171Y-68967085D01*
X168835802Y-68859897D01*
X168611247Y-68786934D01*
X168510000Y-68770897D01*
X168510000Y-70100000D01*
X168407339Y-70100000D01*
X168305606Y-70127259D01*
X168214394Y-70179920D01*
X168139920Y-70254394D01*
X168087259Y-70345606D01*
X168060000Y-70447339D01*
X168060000Y-70552661D01*
X168087259Y-70654394D01*
X168139920Y-70745606D01*
X168214394Y-70820080D01*
X168305606Y-70872741D01*
X168407339Y-70900000D01*
X168510000Y-70900000D01*
X168510000Y-72229100D01*
X168611249Y-72213065D01*
X168611255Y-72213063D01*
X168835804Y-72140102D01*
X169046171Y-72032914D01*
X169237186Y-71894133D01*
X169404133Y-71727186D01*
X169542919Y-71536164D01*
X169545460Y-71532019D01*
X169546566Y-71532696D01*
X169590432Y-71486220D01*
X169658247Y-71469401D01*
X169724390Y-71491916D01*
X169763463Y-71536993D01*
X169781229Y-71571860D01*
X169913073Y-71753326D01*
X169913073Y-71753327D01*
X170071672Y-71911926D01*
X170253136Y-72043768D01*
X170452989Y-72145599D01*
X170452992Y-72145600D01*
X170666310Y-72214910D01*
X170750000Y-72228166D01*
X170750000Y-70815686D01*
X170754394Y-70820080D01*
X170845606Y-70872741D01*
X170947339Y-70900000D01*
X171052661Y-70900000D01*
X171154394Y-70872741D01*
X171245606Y-70820080D01*
X171250000Y-70815686D01*
X171250000Y-72228165D01*
X171333689Y-72214910D01*
X171547007Y-72145600D01*
X171547010Y-72145599D01*
X171746863Y-72043768D01*
X171928326Y-71911926D01*
X171928327Y-71911926D01*
X172086926Y-71753327D01*
X172086926Y-71753326D01*
X172218768Y-71571863D01*
X172236253Y-71537547D01*
X172284227Y-71486750D01*
X172352048Y-71469954D01*
X172418183Y-71492490D01*
X172453163Y-71532862D01*
X172454112Y-71532281D01*
X172456652Y-71536426D01*
X172456656Y-71536432D01*
X172456657Y-71536433D01*
X172595483Y-71727510D01*
X172762490Y-71894517D01*
X172953567Y-72033343D01*
X173030978Y-72072786D01*
X173164003Y-72140566D01*
X173164005Y-72140566D01*
X173164008Y-72140568D01*
X173284412Y-72179689D01*
X173388631Y-72213553D01*
X173621903Y-72250500D01*
X173621908Y-72250500D01*
X173858097Y-72250500D01*
X174091368Y-72213553D01*
X174092876Y-72213063D01*
X174315992Y-72140568D01*
X174526433Y-72033343D01*
X174717510Y-71894517D01*
X174884517Y-71727510D01*
X175023343Y-71536433D01*
X175130568Y-71325992D01*
X175203553Y-71101368D01*
X175217422Y-71013802D01*
X175240500Y-70868097D01*
X175240500Y-70131910D01*
X175240500Y-70131908D01*
X175214097Y-69965210D01*
X175223051Y-69895920D01*
X175248886Y-69858137D01*
X181451205Y-63655819D01*
X181512528Y-63622334D01*
X181538886Y-63619500D01*
X190828518Y-63619500D01*
X190895557Y-63639185D01*
X190897409Y-63640398D01*
X190936553Y-63666553D01*
X190936561Y-63666558D01*
X190973850Y-63682003D01*
X191101167Y-63734740D01*
X191101171Y-63734740D01*
X191101172Y-63734741D01*
X191275912Y-63769500D01*
X191275915Y-63769500D01*
X191454087Y-63769500D01*
X191571649Y-63746114D01*
X191628833Y-63734740D01*
X191793441Y-63666557D01*
X191832591Y-63640398D01*
X191899268Y-63619520D01*
X191901482Y-63619500D01*
X198754393Y-63619500D01*
X198754413Y-63619501D01*
X198760527Y-63619501D01*
X198909152Y-63619501D01*
X198933288Y-63614699D01*
X199030550Y-63595351D01*
X199100140Y-63601577D01*
X199142423Y-63629287D01*
X199482261Y-63969124D01*
X199482282Y-63969147D01*
X199591692Y-64078557D01*
X199591695Y-64078559D01*
X199669072Y-64130260D01*
X199715272Y-64161130D01*
X199767555Y-64182786D01*
X199852581Y-64218005D01*
X199852583Y-64218005D01*
X199852585Y-64218006D01*
X199876765Y-64222815D01*
X199876771Y-64222816D01*
X199998347Y-64247001D01*
X199998349Y-64247001D01*
X200153087Y-64247001D01*
X200153107Y-64247000D01*
X213847479Y-64247000D01*
X213914518Y-64266685D01*
X213947794Y-64298111D01*
X214020148Y-64397699D01*
X214020150Y-64397701D01*
X214174806Y-64552357D01*
X214289508Y-64635691D01*
X214351743Y-64680907D01*
X214460194Y-64736166D01*
X214546616Y-64780201D01*
X214546619Y-64780202D01*
X214646677Y-64812712D01*
X214754625Y-64847786D01*
X214854672Y-64863632D01*
X214970639Y-64882000D01*
X214970644Y-64882000D01*
X215189361Y-64882000D01*
X215294082Y-64865412D01*
X215405375Y-64847786D01*
X215613383Y-64780201D01*
X215808257Y-64680907D01*
X215938805Y-64586059D01*
X215985193Y-64552357D01*
X215985195Y-64552354D01*
X215985199Y-64552352D01*
X216139852Y-64397699D01*
X216249683Y-64246528D01*
X216305011Y-64203864D01*
X216374624Y-64197885D01*
X216436420Y-64230490D01*
X216450313Y-64246523D01*
X216530862Y-64357390D01*
X216560148Y-64397699D01*
X216714806Y-64552357D01*
X216829508Y-64635691D01*
X216891743Y-64680907D01*
X217000194Y-64736166D01*
X217086616Y-64780201D01*
X217086619Y-64780202D01*
X217186677Y-64812712D01*
X217294625Y-64847786D01*
X217394672Y-64863632D01*
X217510639Y-64882000D01*
X217510644Y-64882000D01*
X217729361Y-64882000D01*
X217945375Y-64847786D01*
X217946880Y-64847297D01*
X218047183Y-64814706D01*
X218117023Y-64812712D01*
X218176856Y-64848792D01*
X218207684Y-64911493D01*
X218209500Y-64932638D01*
X218209500Y-74151063D01*
X218189815Y-74218102D01*
X218173181Y-74238744D01*
X209948244Y-82463681D01*
X209886921Y-82497166D01*
X209860563Y-82500000D01*
X209500000Y-82500000D01*
X209500000Y-82860563D01*
X209491355Y-82890003D01*
X209484832Y-82919990D01*
X209481077Y-82925005D01*
X209480315Y-82927602D01*
X209463685Y-82948239D01*
X209380809Y-83031116D01*
X209330008Y-83081917D01*
X209268685Y-83115401D01*
X209198993Y-83110417D01*
X209143060Y-83068545D01*
X209118643Y-83003081D01*
X209119854Y-82974837D01*
X209140500Y-82844486D01*
X209140500Y-82655513D01*
X209110940Y-82468881D01*
X209065148Y-82327951D01*
X209052547Y-82289168D01*
X209052545Y-82289165D01*
X209052545Y-82289163D01*
X208966759Y-82120800D01*
X208942953Y-82088034D01*
X208855690Y-81967927D01*
X208722073Y-81834310D01*
X208569199Y-81723240D01*
X208522636Y-81699515D01*
X208400836Y-81637454D01*
X208221118Y-81579059D01*
X208034486Y-81549500D01*
X208034481Y-81549500D01*
X207845519Y-81549500D01*
X207845514Y-81549500D01*
X207658881Y-81579059D01*
X207479163Y-81637454D01*
X207310800Y-81723240D01*
X207236987Y-81776869D01*
X207157927Y-81834310D01*
X207157925Y-81834312D01*
X207157924Y-81834312D01*
X207024312Y-81967924D01*
X207024312Y-81967925D01*
X207024310Y-81967927D01*
X206989402Y-82015974D01*
X206913240Y-82120800D01*
X206858259Y-82228707D01*
X206810284Y-82279503D01*
X206742463Y-82296298D01*
X206676328Y-82273760D01*
X206660093Y-82260093D01*
X206650000Y-82250000D01*
X205625278Y-82250000D01*
X205669333Y-82173694D01*
X205700000Y-82059244D01*
X205700000Y-81940756D01*
X205669333Y-81826306D01*
X205625278Y-81750000D01*
X206650000Y-81750000D01*
X206650000Y-81052172D01*
X206649999Y-81052155D01*
X206643598Y-80992627D01*
X206643596Y-80992620D01*
X206593354Y-80857913D01*
X206593350Y-80857906D01*
X206507190Y-80742812D01*
X206507187Y-80742809D01*
X206392093Y-80656649D01*
X206392086Y-80656645D01*
X206257379Y-80606403D01*
X206257372Y-80606401D01*
X206197844Y-80600000D01*
X205500000Y-80600000D01*
X205500000Y-81624722D01*
X205423694Y-81580667D01*
X205309244Y-81550000D01*
X205190756Y-81550000D01*
X205076306Y-81580667D01*
X205000000Y-81624722D01*
X205000000Y-80600000D01*
X204302155Y-80600000D01*
X204242627Y-80606401D01*
X204242620Y-80606403D01*
X204107913Y-80656645D01*
X204107906Y-80656649D01*
X203992812Y-80742809D01*
X203992809Y-80742812D01*
X203906649Y-80857906D01*
X203906643Y-80857918D01*
X203876785Y-80937969D01*
X203834914Y-80993903D01*
X203769449Y-81018319D01*
X203701176Y-81003467D01*
X203672923Y-80982316D01*
X203622363Y-80931756D01*
X203622358Y-80931752D01*
X203444025Y-80802187D01*
X203444024Y-80802186D01*
X203444022Y-80802185D01*
X203381096Y-80770122D01*
X203247606Y-80702104D01*
X203247603Y-80702103D01*
X203037952Y-80633985D01*
X202883359Y-80609500D01*
X202820222Y-80599500D01*
X202599778Y-80599500D01*
X202536641Y-80609500D01*
X202382047Y-80633985D01*
X202172396Y-80702103D01*
X202172393Y-80702104D01*
X201975974Y-80802187D01*
X201797642Y-80931751D01*
X201638608Y-81090785D01*
X201577285Y-81124269D01*
X201507593Y-81119285D01*
X201451660Y-81077413D01*
X201450609Y-81075989D01*
X201433305Y-81052172D01*
X201415690Y-81027927D01*
X201282073Y-80894310D01*
X201129199Y-80783240D01*
X200960836Y-80697454D01*
X200781118Y-80639059D01*
X200594486Y-80609500D01*
X200594481Y-80609500D01*
X200405519Y-80609500D01*
X200405514Y-80609500D01*
X200218881Y-80639059D01*
X200039163Y-80697454D01*
X199870800Y-80783240D01*
X199786437Y-80844534D01*
X199717927Y-80894310D01*
X199717925Y-80894312D01*
X199717924Y-80894312D01*
X199584312Y-81027924D01*
X199584312Y-81027925D01*
X199584310Y-81027927D01*
X199566695Y-81052172D01*
X199473240Y-81180800D01*
X199387454Y-81349163D01*
X199329059Y-81528881D01*
X199305473Y-81677801D01*
X199275544Y-81740936D01*
X199216232Y-81777867D01*
X199146369Y-81776869D01*
X199095319Y-81746084D01*
X198662002Y-81312767D01*
X198628517Y-81251444D01*
X198633501Y-81181752D01*
X198639191Y-81168806D01*
X198705220Y-81039219D01*
X198768477Y-80844534D01*
X198800500Y-80642352D01*
X198800500Y-80437648D01*
X198768477Y-80235466D01*
X198705220Y-80040781D01*
X198705218Y-80040778D01*
X198705218Y-80040776D01*
X198650656Y-79933694D01*
X198612287Y-79858390D01*
X198561995Y-79789168D01*
X198491971Y-79692786D01*
X198347213Y-79548028D01*
X198181614Y-79427715D01*
X198116453Y-79394514D01*
X198088917Y-79380483D01*
X198038123Y-79332511D01*
X198021328Y-79264690D01*
X198043865Y-79198555D01*
X198088917Y-79159516D01*
X198181610Y-79112287D01*
X198226672Y-79079548D01*
X198347213Y-78991971D01*
X198347215Y-78991968D01*
X198347219Y-78991966D01*
X198491966Y-78847219D01*
X198491968Y-78847215D01*
X198491971Y-78847213D01*
X198553670Y-78762290D01*
X198612287Y-78681610D01*
X198705220Y-78499219D01*
X198747839Y-78368052D01*
X201970000Y-78368052D01*
X202006934Y-78601247D01*
X202079897Y-78825802D01*
X202187085Y-79036171D01*
X202325866Y-79227186D01*
X202492813Y-79394133D01*
X202683828Y-79532914D01*
X202894195Y-79640102D01*
X203118744Y-79713063D01*
X203118750Y-79713065D01*
X203220000Y-79729101D01*
X203220000Y-78250000D01*
X201970000Y-78250000D01*
X201970000Y-78368052D01*
X198747839Y-78368052D01*
X198768477Y-78304534D01*
X198777035Y-78250500D01*
X198788322Y-78179240D01*
X198800500Y-78102351D01*
X198800500Y-77947339D01*
X203270000Y-77947339D01*
X203270000Y-78052661D01*
X203297259Y-78154394D01*
X203349920Y-78245606D01*
X203424394Y-78320080D01*
X203515606Y-78372741D01*
X203617339Y-78400000D01*
X203720000Y-78400000D01*
X203720000Y-79729100D01*
X203821249Y-79713065D01*
X203821255Y-79713063D01*
X204045804Y-79640102D01*
X204256171Y-79532914D01*
X204447186Y-79394133D01*
X204614133Y-79227186D01*
X204752919Y-79036164D01*
X204755460Y-79032019D01*
X204756566Y-79032696D01*
X204800432Y-78986220D01*
X204868247Y-78969401D01*
X204934390Y-78991916D01*
X204973463Y-79036993D01*
X204991229Y-79071860D01*
X205123073Y-79253326D01*
X205123073Y-79253327D01*
X205281672Y-79411926D01*
X205463136Y-79543768D01*
X205662989Y-79645599D01*
X205662992Y-79645600D01*
X205876310Y-79714910D01*
X205960000Y-79728166D01*
X205960000Y-78315686D01*
X205964394Y-78320080D01*
X206055606Y-78372741D01*
X206157339Y-78400000D01*
X206262661Y-78400000D01*
X206364394Y-78372741D01*
X206455606Y-78320080D01*
X206460000Y-78315686D01*
X206460000Y-79728165D01*
X206543689Y-79714910D01*
X206757007Y-79645600D01*
X206757010Y-79645599D01*
X206956863Y-79543768D01*
X207138326Y-79411926D01*
X207138327Y-79411926D01*
X207296926Y-79253327D01*
X207296926Y-79253326D01*
X207428768Y-79071863D01*
X207446253Y-79037547D01*
X207494227Y-78986750D01*
X207562048Y-78969954D01*
X207628183Y-78992490D01*
X207663163Y-79032862D01*
X207664112Y-79032281D01*
X207666652Y-79036426D01*
X207666656Y-79036432D01*
X207666657Y-79036433D01*
X207805483Y-79227510D01*
X207972490Y-79394517D01*
X208163567Y-79533343D01*
X208192400Y-79548034D01*
X208374003Y-79640566D01*
X208374005Y-79640566D01*
X208374008Y-79640568D01*
X208494412Y-79679689D01*
X208598631Y-79713553D01*
X208831903Y-79750500D01*
X208831908Y-79750500D01*
X209068097Y-79750500D01*
X209301368Y-79713553D01*
X209302876Y-79713063D01*
X209525992Y-79640568D01*
X209736433Y-79533343D01*
X209927510Y-79394517D01*
X210094517Y-79227510D01*
X210233343Y-79036433D01*
X210340568Y-78825992D01*
X210413553Y-78601368D01*
X210437120Y-78452571D01*
X210450500Y-78368097D01*
X210450500Y-77631909D01*
X210450401Y-77631284D01*
X210448655Y-77620260D01*
X210457609Y-77550967D01*
X210483444Y-77513184D01*
X211078811Y-76917819D01*
X211140134Y-76884334D01*
X211166492Y-76881500D01*
X212293770Y-76881500D01*
X212360809Y-76901185D01*
X212381451Y-76917819D01*
X212406344Y-76942712D01*
X212555666Y-77034814D01*
X212722203Y-77089999D01*
X212824991Y-77100500D01*
X214175008Y-77100499D01*
X214277797Y-77089999D01*
X214444334Y-77034814D01*
X214593656Y-76942712D01*
X214717712Y-76818656D01*
X214809814Y-76669334D01*
X214864999Y-76502797D01*
X214875500Y-76400009D01*
X214875499Y-75599992D01*
X214864999Y-75497203D01*
X214809814Y-75330666D01*
X214717712Y-75181344D01*
X214593656Y-75057288D01*
X214593655Y-75057287D01*
X214529019Y-75017420D01*
X214482294Y-74965472D01*
X214471071Y-74896510D01*
X214498914Y-74832428D01*
X214506434Y-74824199D01*
X214614035Y-74716598D01*
X214715804Y-74576524D01*
X214794408Y-74422255D01*
X214847914Y-74257584D01*
X214849115Y-74250000D01*
X213780330Y-74250000D01*
X213800075Y-74230255D01*
X213849444Y-74144745D01*
X213875000Y-74049370D01*
X213875000Y-73950630D01*
X213849444Y-73855255D01*
X213800075Y-73769745D01*
X213780330Y-73750000D01*
X214849115Y-73750000D01*
X214849115Y-73749999D01*
X214847914Y-73742415D01*
X214794408Y-73577744D01*
X214715804Y-73423475D01*
X214614032Y-73283397D01*
X214491602Y-73160967D01*
X214351524Y-73059195D01*
X214197257Y-72980591D01*
X214032584Y-72927085D01*
X213861571Y-72900000D01*
X213750000Y-72900000D01*
X213750000Y-73719670D01*
X213730255Y-73699925D01*
X213644745Y-73650556D01*
X213549370Y-73625000D01*
X213450630Y-73625000D01*
X213355255Y-73650556D01*
X213269745Y-73699925D01*
X213250000Y-73719670D01*
X213250000Y-72900000D01*
X213138429Y-72900000D01*
X212967415Y-72927085D01*
X212802742Y-72980591D01*
X212648475Y-73059195D01*
X212508397Y-73160967D01*
X212385967Y-73283397D01*
X212284195Y-73423475D01*
X212205591Y-73577744D01*
X212152085Y-73742415D01*
X212150884Y-73749999D01*
X212150885Y-73750000D01*
X213219670Y-73750000D01*
X213199925Y-73769745D01*
X213150556Y-73855255D01*
X213125000Y-73950630D01*
X213125000Y-74049370D01*
X213150556Y-74144745D01*
X213199925Y-74230255D01*
X213219670Y-74250000D01*
X212150885Y-74250000D01*
X212152085Y-74257584D01*
X212205591Y-74422255D01*
X212284195Y-74576524D01*
X212385967Y-74716602D01*
X212493565Y-74824200D01*
X212502327Y-74840246D01*
X212515160Y-74853274D01*
X212518725Y-74870277D01*
X212527050Y-74885523D01*
X212525745Y-74903761D01*
X212529498Y-74921657D01*
X212523305Y-74937886D01*
X212522066Y-74955215D01*
X212511107Y-74969853D01*
X212504589Y-74986936D01*
X212485055Y-75004653D01*
X212480194Y-75011148D01*
X212479446Y-75011704D01*
X212475328Y-75014738D01*
X212406344Y-75057288D01*
X212374846Y-75088785D01*
X212367332Y-75094323D01*
X212342924Y-75103217D01*
X212320128Y-75115666D01*
X212304014Y-75117398D01*
X212301686Y-75118247D01*
X212299889Y-75117842D01*
X212293770Y-75118500D01*
X210663177Y-75118500D01*
X210492881Y-75152374D01*
X210492871Y-75152377D01*
X210332456Y-75218822D01*
X210188073Y-75315295D01*
X209273143Y-76230225D01*
X209211820Y-76263710D01*
X209166063Y-76265017D01*
X209068096Y-76249500D01*
X209068092Y-76249500D01*
X208831908Y-76249500D01*
X208831903Y-76249500D01*
X208598631Y-76286446D01*
X208374003Y-76359433D01*
X208163566Y-76466657D01*
X208090580Y-76519685D01*
X207972490Y-76605483D01*
X207972488Y-76605485D01*
X207972487Y-76605485D01*
X207805485Y-76772487D01*
X207805485Y-76772488D01*
X207805483Y-76772490D01*
X207756082Y-76840485D01*
X207666652Y-76963573D01*
X207664112Y-76967719D01*
X207662934Y-76966997D01*
X207619243Y-77013254D01*
X207551421Y-77030045D01*
X207485287Y-77007503D01*
X207446254Y-76962453D01*
X207428770Y-76928138D01*
X207296926Y-76746673D01*
X207296926Y-76746672D01*
X207138327Y-76588073D01*
X206956863Y-76456231D01*
X206757010Y-76354400D01*
X206757007Y-76354399D01*
X206543684Y-76285088D01*
X206460000Y-76271833D01*
X206460000Y-77684314D01*
X206455606Y-77679920D01*
X206364394Y-77627259D01*
X206262661Y-77600000D01*
X206157339Y-77600000D01*
X206055606Y-77627259D01*
X205964394Y-77679920D01*
X205960000Y-77684314D01*
X205960000Y-76271833D01*
X205959999Y-76271833D01*
X205876315Y-76285088D01*
X205662992Y-76354399D01*
X205662989Y-76354400D01*
X205463136Y-76456231D01*
X205281673Y-76588073D01*
X205281672Y-76588073D01*
X205123073Y-76746672D01*
X205123073Y-76746673D01*
X204991229Y-76928139D01*
X204973462Y-76963007D01*
X204925486Y-77013802D01*
X204857665Y-77030595D01*
X204791530Y-77008055D01*
X204756342Y-76967440D01*
X204755460Y-76967981D01*
X204752919Y-76963835D01*
X204614133Y-76772813D01*
X204447186Y-76605866D01*
X204256171Y-76467085D01*
X204045802Y-76359897D01*
X203821247Y-76286934D01*
X203720000Y-76270897D01*
X203720000Y-77600000D01*
X203617339Y-77600000D01*
X203515606Y-77627259D01*
X203424394Y-77679920D01*
X203349920Y-77754394D01*
X203297259Y-77845606D01*
X203270000Y-77947339D01*
X198800500Y-77947339D01*
X198800500Y-77897649D01*
X198800003Y-77894514D01*
X198780176Y-77769331D01*
X198780877Y-77763905D01*
X198778965Y-77758779D01*
X198785306Y-77729628D01*
X198789130Y-77700038D01*
X198792962Y-77694432D01*
X198793817Y-77690506D01*
X198814965Y-77662255D01*
X198845273Y-77631947D01*
X201970000Y-77631947D01*
X201970000Y-77750000D01*
X203220000Y-77750000D01*
X203220000Y-76270897D01*
X203118752Y-76286934D01*
X202894197Y-76359897D01*
X202683828Y-76467085D01*
X202492813Y-76605866D01*
X202325866Y-76772813D01*
X202187085Y-76963828D01*
X202079897Y-77174197D01*
X202006934Y-77398752D01*
X201970000Y-77631947D01*
X198845273Y-77631947D01*
X201036735Y-75440486D01*
X201112356Y-75327311D01*
X201135064Y-75272490D01*
X201157228Y-75218981D01*
X201198903Y-75166116D01*
X201282073Y-75105690D01*
X201415690Y-74972073D01*
X201526760Y-74819199D01*
X201612547Y-74650832D01*
X201670940Y-74471118D01*
X201678679Y-74422255D01*
X201700500Y-74284486D01*
X201700500Y-74095513D01*
X201670940Y-73908881D01*
X201625731Y-73769745D01*
X201612547Y-73729168D01*
X201612545Y-73729165D01*
X201612545Y-73729163D01*
X201559471Y-73625000D01*
X201526760Y-73560801D01*
X201415690Y-73407927D01*
X201282073Y-73274310D01*
X201129199Y-73163240D01*
X201124738Y-73160967D01*
X200960836Y-73077454D01*
X200781118Y-73019059D01*
X200594486Y-72989500D01*
X200594481Y-72989500D01*
X200405519Y-72989500D01*
X200405514Y-72989500D01*
X200218881Y-73019059D01*
X200039163Y-73077454D01*
X199870800Y-73163240D01*
X199786437Y-73224534D01*
X199717927Y-73274310D01*
X199717925Y-73274312D01*
X199717924Y-73274312D01*
X199584312Y-73407924D01*
X199584312Y-73407925D01*
X199584310Y-73407927D01*
X199581405Y-73411926D01*
X199473240Y-73560800D01*
X199387454Y-73729163D01*
X199329059Y-73908881D01*
X199299500Y-74095513D01*
X199299500Y-74284486D01*
X199329059Y-74471118D01*
X199387454Y-74650836D01*
X199473242Y-74819202D01*
X199507918Y-74866930D01*
X199531398Y-74932736D01*
X199515573Y-75000790D01*
X199495281Y-75027496D01*
X199012181Y-75510596D01*
X198950858Y-75544081D01*
X198881166Y-75539097D01*
X198825233Y-75497225D01*
X198800816Y-75431761D01*
X198800500Y-75422915D01*
X198800500Y-75357648D01*
X198768477Y-75155465D01*
X198719475Y-75004653D01*
X198705220Y-74960781D01*
X198705218Y-74960778D01*
X198705218Y-74960776D01*
X198657400Y-74866930D01*
X198612287Y-74778390D01*
X198604556Y-74767749D01*
X198491971Y-74612786D01*
X198347213Y-74468028D01*
X198181614Y-74347715D01*
X198175006Y-74344348D01*
X198088917Y-74300483D01*
X198038123Y-74252511D01*
X198021328Y-74184690D01*
X198043865Y-74118555D01*
X198088917Y-74079516D01*
X198181610Y-74032287D01*
X198202770Y-74016913D01*
X198347213Y-73911971D01*
X198347215Y-73911968D01*
X198347219Y-73911966D01*
X198491966Y-73767219D01*
X198491968Y-73767215D01*
X198491971Y-73767213D01*
X198576726Y-73650556D01*
X198612287Y-73601610D01*
X198705220Y-73419219D01*
X198768477Y-73224534D01*
X198800500Y-73022352D01*
X198800500Y-72817648D01*
X198768477Y-72615466D01*
X198763896Y-72601368D01*
X198705218Y-72420776D01*
X198678354Y-72368052D01*
X201970000Y-72368052D01*
X202006934Y-72601247D01*
X202079897Y-72825802D01*
X202187085Y-73036171D01*
X202325866Y-73227186D01*
X202492813Y-73394133D01*
X202683828Y-73532914D01*
X202894195Y-73640102D01*
X203118744Y-73713063D01*
X203118750Y-73713065D01*
X203220000Y-73729101D01*
X203220000Y-72250000D01*
X201970000Y-72250000D01*
X201970000Y-72368052D01*
X198678354Y-72368052D01*
X198620716Y-72254933D01*
X198618457Y-72250500D01*
X198612287Y-72238390D01*
X198594242Y-72213553D01*
X198491971Y-72072786D01*
X198347213Y-71928028D01*
X198181611Y-71807713D01*
X198088369Y-71760203D01*
X198079215Y-71751557D01*
X198067550Y-71746823D01*
X198054297Y-71728023D01*
X198037574Y-71712229D01*
X198034547Y-71700008D01*
X198027293Y-71689717D01*
X198026307Y-71666733D01*
X198020779Y-71644407D01*
X198024840Y-71632490D01*
X198024817Y-71631947D01*
X201970000Y-71631947D01*
X201970000Y-71750000D01*
X203220000Y-71750000D01*
X203220000Y-70270897D01*
X203118752Y-70286934D01*
X202894197Y-70359897D01*
X202683828Y-70467085D01*
X202492813Y-70605866D01*
X202325866Y-70772813D01*
X202187085Y-70963828D01*
X202079897Y-71174197D01*
X202006934Y-71398752D01*
X201970000Y-71631947D01*
X198024817Y-71631947D01*
X198024301Y-71619911D01*
X198035897Y-71600044D01*
X198043317Y-71578273D01*
X198054019Y-71568999D01*
X198059524Y-71559569D01*
X198088371Y-71539234D01*
X198132813Y-71516590D01*
X198181347Y-71491861D01*
X198346894Y-71371582D01*
X198346895Y-71371582D01*
X198491582Y-71226895D01*
X198491582Y-71226894D01*
X198611859Y-71061349D01*
X198704755Y-70879029D01*
X198767990Y-70684413D01*
X198776609Y-70630000D01*
X197933012Y-70630000D01*
X197965925Y-70572993D01*
X198000000Y-70445826D01*
X198000000Y-70314174D01*
X197965925Y-70187007D01*
X197933012Y-70130000D01*
X198776609Y-70130000D01*
X198767990Y-70075586D01*
X198704755Y-69880970D01*
X198611859Y-69698650D01*
X198491582Y-69533105D01*
X198491582Y-69533104D01*
X198346895Y-69388417D01*
X198181349Y-69268140D01*
X198088370Y-69220765D01*
X198037574Y-69172790D01*
X198020779Y-69104969D01*
X198043316Y-69038835D01*
X198088370Y-68999795D01*
X198092788Y-68997544D01*
X198181610Y-68952287D01*
X198217577Y-68926156D01*
X198347215Y-68831970D01*
X198347216Y-68831967D01*
X198347219Y-68831966D01*
X198421366Y-68757819D01*
X198482689Y-68724334D01*
X198509047Y-68721500D01*
X204423508Y-68721500D01*
X204490547Y-68741185D01*
X204511189Y-68757819D01*
X205855611Y-70102241D01*
X205889096Y-70163564D01*
X205884112Y-70233256D01*
X205842240Y-70289189D01*
X205806248Y-70307853D01*
X205662992Y-70354399D01*
X205662989Y-70354400D01*
X205463136Y-70456231D01*
X205281673Y-70588073D01*
X205281672Y-70588073D01*
X205123073Y-70746672D01*
X205123073Y-70746673D01*
X204991229Y-70928139D01*
X204973462Y-70963007D01*
X204925486Y-71013802D01*
X204857665Y-71030595D01*
X204791530Y-71008055D01*
X204756342Y-70967440D01*
X204755460Y-70967981D01*
X204752919Y-70963835D01*
X204614133Y-70772813D01*
X204447186Y-70605866D01*
X204256171Y-70467085D01*
X204045802Y-70359897D01*
X203821247Y-70286934D01*
X203720000Y-70270897D01*
X203720000Y-71600000D01*
X203617339Y-71600000D01*
X203515606Y-71627259D01*
X203424394Y-71679920D01*
X203349920Y-71754394D01*
X203297259Y-71845606D01*
X203270000Y-71947339D01*
X203270000Y-72052661D01*
X203297259Y-72154394D01*
X203349920Y-72245606D01*
X203424394Y-72320080D01*
X203515606Y-72372741D01*
X203617339Y-72400000D01*
X203720000Y-72400000D01*
X203720000Y-73729100D01*
X203821249Y-73713065D01*
X203821255Y-73713063D01*
X204045804Y-73640102D01*
X204256171Y-73532914D01*
X204447186Y-73394133D01*
X204614133Y-73227186D01*
X204752919Y-73036164D01*
X204755460Y-73032019D01*
X204756566Y-73032696D01*
X204800432Y-72986220D01*
X204868247Y-72969401D01*
X204934390Y-72991916D01*
X204973463Y-73036993D01*
X204991229Y-73071860D01*
X205123073Y-73253326D01*
X205123073Y-73253327D01*
X205281672Y-73411926D01*
X205463136Y-73543768D01*
X205662989Y-73645599D01*
X205662992Y-73645600D01*
X205876310Y-73714910D01*
X205960000Y-73728166D01*
X205960000Y-72315686D01*
X205964394Y-72320080D01*
X206055606Y-72372741D01*
X206157339Y-72400000D01*
X206262661Y-72400000D01*
X206364394Y-72372741D01*
X206455606Y-72320080D01*
X206460000Y-72315686D01*
X206460000Y-73728165D01*
X206543689Y-73714910D01*
X206757007Y-73645600D01*
X206757010Y-73645599D01*
X206956863Y-73543768D01*
X207138326Y-73411926D01*
X207138327Y-73411926D01*
X207296926Y-73253327D01*
X207296926Y-73253326D01*
X207428768Y-73071863D01*
X207446253Y-73037547D01*
X207494227Y-72986750D01*
X207562048Y-72969954D01*
X207628183Y-72992490D01*
X207663163Y-73032862D01*
X207664112Y-73032281D01*
X207666652Y-73036426D01*
X207666656Y-73036432D01*
X207666657Y-73036433D01*
X207805483Y-73227510D01*
X207972490Y-73394517D01*
X208163567Y-73533343D01*
X208250709Y-73577744D01*
X208374003Y-73640566D01*
X208374005Y-73640566D01*
X208374008Y-73640568D01*
X208461925Y-73669134D01*
X208598631Y-73713553D01*
X208831903Y-73750500D01*
X208831908Y-73750500D01*
X209068097Y-73750500D01*
X209301368Y-73713553D01*
X209302876Y-73713063D01*
X209525992Y-73640568D01*
X209736433Y-73533343D01*
X209927510Y-73394517D01*
X210094517Y-73227510D01*
X210233343Y-73036433D01*
X210340568Y-72825992D01*
X210413553Y-72601368D01*
X210413572Y-72601247D01*
X210450500Y-72368097D01*
X210450500Y-71631902D01*
X210413553Y-71398631D01*
X210366722Y-71254501D01*
X210340568Y-71174008D01*
X210340566Y-71174005D01*
X210340566Y-71174003D01*
X210258939Y-71013802D01*
X210233343Y-70963567D01*
X210094517Y-70772490D01*
X209927510Y-70605483D01*
X209736433Y-70466657D01*
X209715971Y-70456231D01*
X209525996Y-70359433D01*
X209301368Y-70286446D01*
X209068097Y-70249500D01*
X209068092Y-70249500D01*
X208831908Y-70249500D01*
X208831903Y-70249500D01*
X208604443Y-70285526D01*
X208535149Y-70276571D01*
X208497364Y-70250734D01*
X205401927Y-67155296D01*
X205401926Y-67155295D01*
X205257543Y-67058822D01*
X205097128Y-66992377D01*
X205097118Y-66992374D01*
X204926823Y-66958500D01*
X204926821Y-66958500D01*
X204926820Y-66958500D01*
X198509047Y-66958500D01*
X198442008Y-66938815D01*
X198421366Y-66922181D01*
X198347213Y-66848028D01*
X198181613Y-66727715D01*
X198181612Y-66727714D01*
X198181610Y-66727713D01*
X198124653Y-66698691D01*
X197999223Y-66634781D01*
X197804534Y-66571522D01*
X197629995Y-66543878D01*
X197602352Y-66539500D01*
X197397648Y-66539500D01*
X197373329Y-66543351D01*
X197195465Y-66571522D01*
X197000776Y-66634781D01*
X196818386Y-66727715D01*
X196652786Y-66848028D01*
X196508028Y-66992786D01*
X196387715Y-67158386D01*
X196294781Y-67340776D01*
X196231522Y-67535465D01*
X196199500Y-67737648D01*
X196199500Y-67942351D01*
X196231522Y-68144534D01*
X196294781Y-68339223D01*
X196387715Y-68521613D01*
X196508028Y-68687213D01*
X196652785Y-68831970D01*
X196782423Y-68926156D01*
X196818390Y-68952287D01*
X196890424Y-68988990D01*
X196911629Y-68999795D01*
X196962425Y-69047770D01*
X196979220Y-69115591D01*
X196956682Y-69181726D01*
X196911629Y-69220765D01*
X196818650Y-69268140D01*
X196653105Y-69388417D01*
X196653104Y-69388417D01*
X196508417Y-69533104D01*
X196508417Y-69533105D01*
X196388140Y-69698650D01*
X196295244Y-69880970D01*
X196232009Y-70075586D01*
X196223391Y-70130000D01*
X197066988Y-70130000D01*
X197034075Y-70187007D01*
X197000000Y-70314174D01*
X197000000Y-70445826D01*
X197034075Y-70572993D01*
X197066988Y-70630000D01*
X196223391Y-70630000D01*
X196232009Y-70684413D01*
X196295244Y-70879029D01*
X196388140Y-71061349D01*
X196508417Y-71226894D01*
X196508417Y-71226895D01*
X196653104Y-71371582D01*
X196818652Y-71491861D01*
X196911628Y-71539234D01*
X196962425Y-71587208D01*
X196979220Y-71655029D01*
X196956683Y-71721164D01*
X196911630Y-71760203D01*
X196818388Y-71807713D01*
X196652786Y-71928028D01*
X196508028Y-72072786D01*
X196387715Y-72238386D01*
X196294781Y-72420776D01*
X196231522Y-72615465D01*
X196199500Y-72817648D01*
X196199500Y-73022351D01*
X196231522Y-73224534D01*
X196294781Y-73419223D01*
X196387715Y-73601613D01*
X196508028Y-73767213D01*
X196652786Y-73911971D01*
X196800764Y-74019481D01*
X196818390Y-74032287D01*
X196909840Y-74078883D01*
X196911080Y-74079515D01*
X196961876Y-74127490D01*
X196978671Y-74195311D01*
X196956134Y-74261446D01*
X196911080Y-74300485D01*
X196818386Y-74347715D01*
X196652786Y-74468028D01*
X196508028Y-74612786D01*
X196387715Y-74778386D01*
X196294781Y-74960776D01*
X196231522Y-75155465D01*
X196199500Y-75357648D01*
X196199500Y-75562351D01*
X196231522Y-75764534D01*
X196294781Y-75959223D01*
X196352020Y-76071559D01*
X196382789Y-76131947D01*
X196387715Y-76141613D01*
X196508028Y-76307213D01*
X196652786Y-76451971D01*
X196791377Y-76552661D01*
X196818390Y-76572287D01*
X196909840Y-76618883D01*
X196911080Y-76619515D01*
X196961876Y-76667490D01*
X196978671Y-76735311D01*
X196956134Y-76801446D01*
X196911080Y-76840485D01*
X196818386Y-76887715D01*
X196652786Y-77008028D01*
X196508028Y-77152786D01*
X196387715Y-77318386D01*
X196294781Y-77500776D01*
X196231522Y-77695465D01*
X196199500Y-77897648D01*
X196199500Y-78102351D01*
X196231522Y-78304534D01*
X196294781Y-78499223D01*
X196349564Y-78606738D01*
X196383320Y-78672989D01*
X196387715Y-78681613D01*
X196508028Y-78847213D01*
X196652786Y-78991971D01*
X196773328Y-79079548D01*
X196818390Y-79112287D01*
X196909840Y-79158883D01*
X196911080Y-79159515D01*
X196961876Y-79207490D01*
X196978671Y-79275311D01*
X196956134Y-79341446D01*
X196911080Y-79380485D01*
X196818386Y-79427715D01*
X196652786Y-79548028D01*
X196508028Y-79692786D01*
X196387715Y-79858386D01*
X196294781Y-80040776D01*
X196231522Y-80235465D01*
X196199500Y-80437648D01*
X196199500Y-80642352D01*
X196202295Y-80660000D01*
X196231522Y-80844534D01*
X196294781Y-81039223D01*
X196358691Y-81164653D01*
X196386421Y-81219075D01*
X196387715Y-81221613D01*
X196508028Y-81387213D01*
X196652786Y-81531971D01*
X196797974Y-81637454D01*
X196818390Y-81652287D01*
X196909840Y-81698883D01*
X196911080Y-81699515D01*
X196961876Y-81747490D01*
X196978671Y-81815311D01*
X196956134Y-81881446D01*
X196911080Y-81920485D01*
X196818386Y-81967715D01*
X196652786Y-82088028D01*
X196508028Y-82232786D01*
X196387715Y-82398386D01*
X196294781Y-82580776D01*
X196231522Y-82775465D01*
X196199500Y-82977648D01*
X196199500Y-83182351D01*
X196231522Y-83384534D01*
X196294781Y-83579223D01*
X196387715Y-83761613D01*
X196508028Y-83927213D01*
X196652786Y-84071971D01*
X196788335Y-84170451D01*
X196818390Y-84192287D01*
X196909840Y-84238883D01*
X196911080Y-84239515D01*
X196961876Y-84287490D01*
X196978671Y-84355311D01*
X196956134Y-84421446D01*
X196911080Y-84460485D01*
X196818386Y-84507715D01*
X196652786Y-84628028D01*
X196508028Y-84772786D01*
X196387715Y-84938386D01*
X196294781Y-85120776D01*
X196231522Y-85315465D01*
X196199500Y-85517648D01*
X196199500Y-85722351D01*
X196231522Y-85924534D01*
X196294781Y-86119223D01*
X196387715Y-86301613D01*
X196508028Y-86467213D01*
X196652786Y-86611971D01*
X196807749Y-86724556D01*
X196818390Y-86732287D01*
X196909840Y-86778883D01*
X196911080Y-86779515D01*
X196961876Y-86827490D01*
X196978671Y-86895311D01*
X196956134Y-86961446D01*
X196911080Y-87000485D01*
X196818386Y-87047715D01*
X196652786Y-87168028D01*
X196508028Y-87312786D01*
X196387715Y-87478386D01*
X196294781Y-87660776D01*
X196231522Y-87855465D01*
X196199500Y-88057648D01*
X196199500Y-88262351D01*
X196231522Y-88464534D01*
X196294781Y-88659223D01*
X196387715Y-88841613D01*
X196508028Y-89007213D01*
X196652786Y-89151971D01*
X196807749Y-89264556D01*
X196818390Y-89272287D01*
X196882493Y-89304949D01*
X196911080Y-89319515D01*
X196961876Y-89367490D01*
X196978671Y-89435311D01*
X196956134Y-89501446D01*
X196911080Y-89540485D01*
X196818386Y-89587715D01*
X196652786Y-89708028D01*
X196508028Y-89852786D01*
X196387715Y-90018386D01*
X196294781Y-90200776D01*
X196231522Y-90395465D01*
X196199500Y-90597648D01*
X196199500Y-90790903D01*
X196179815Y-90857942D01*
X196127011Y-90903697D01*
X196057853Y-90913641D01*
X195994297Y-90884616D01*
X195987819Y-90878584D01*
X195386819Y-90277584D01*
X195353334Y-90216261D01*
X195350500Y-90189903D01*
X195350500Y-77170945D01*
X195350499Y-77170941D01*
X195345633Y-77152781D01*
X195334802Y-77112356D01*
X195309577Y-77018215D01*
X195265985Y-76942712D01*
X195230520Y-76881284D01*
X195118716Y-76769480D01*
X195114385Y-76765149D01*
X195114374Y-76765139D01*
X183440819Y-65091584D01*
X183407334Y-65030261D01*
X183404500Y-65003903D01*
X183404500Y-64910912D01*
X183369741Y-64736172D01*
X183369740Y-64736171D01*
X183369740Y-64736167D01*
X183301557Y-64571559D01*
X183202571Y-64423415D01*
X183202569Y-64423412D01*
X183076587Y-64297430D01*
X182964918Y-64222816D01*
X182928441Y-64198443D01*
X182890639Y-64182785D01*
X182763833Y-64130260D01*
X182763827Y-64130258D01*
X182589087Y-64095500D01*
X182589085Y-64095500D01*
X182410915Y-64095500D01*
X182410913Y-64095500D01*
X182236172Y-64130258D01*
X182236166Y-64130260D01*
X182071560Y-64198442D01*
X181923412Y-64297430D01*
X181797430Y-64423412D01*
X181698442Y-64571560D01*
X181630260Y-64736166D01*
X181630258Y-64736172D01*
X181595500Y-64910912D01*
X181595500Y-64910915D01*
X181595500Y-65089085D01*
X181595500Y-65089087D01*
X181595499Y-65089087D01*
X181630258Y-65263827D01*
X181630260Y-65263833D01*
X181698442Y-65428439D01*
X181797430Y-65576587D01*
X181923412Y-65702569D01*
X181923415Y-65702571D01*
X182071559Y-65801557D01*
X182236167Y-65869740D01*
X182236171Y-65869740D01*
X182236172Y-65869741D01*
X182410912Y-65904500D01*
X182410915Y-65904500D01*
X182503903Y-65904500D01*
X182570942Y-65924185D01*
X182591584Y-65940819D01*
X182978584Y-66327819D01*
X183012069Y-66389142D01*
X183007085Y-66458834D01*
X182965213Y-66514767D01*
X182899749Y-66539184D01*
X182890903Y-66539500D01*
X181412129Y-66539500D01*
X181412123Y-66539501D01*
X181352516Y-66545908D01*
X181217671Y-66596202D01*
X181217664Y-66596206D01*
X181102455Y-66682452D01*
X181102452Y-66682455D01*
X181016206Y-66797664D01*
X181016202Y-66797671D01*
X180965908Y-66932517D01*
X180959501Y-66992116D01*
X180959500Y-66992135D01*
X180959500Y-68687870D01*
X180959501Y-68687876D01*
X180965908Y-68747483D01*
X181016202Y-68882328D01*
X181016206Y-68882335D01*
X181102452Y-68997544D01*
X181102455Y-68997547D01*
X181217664Y-69083793D01*
X181217671Y-69083797D01*
X181229136Y-69088073D01*
X181352517Y-69134091D01*
X181389441Y-69138060D01*
X181453989Y-69164796D01*
X181493838Y-69222188D01*
X181496333Y-69292013D01*
X181460681Y-69352102D01*
X181449071Y-69361666D01*
X181412784Y-69388030D01*
X181268028Y-69532786D01*
X181147715Y-69698386D01*
X181054781Y-69880776D01*
X180991522Y-70075465D01*
X180959500Y-70277648D01*
X180959500Y-70482351D01*
X180991522Y-70684534D01*
X181054781Y-70879223D01*
X181147715Y-71061613D01*
X181268028Y-71227213D01*
X181412786Y-71371971D01*
X181546890Y-71469401D01*
X181578390Y-71492287D01*
X181656883Y-71532281D01*
X181671080Y-71539515D01*
X181721876Y-71587490D01*
X181738671Y-71655311D01*
X181716134Y-71721446D01*
X181671080Y-71760485D01*
X181578386Y-71807715D01*
X181412786Y-71928028D01*
X181268028Y-72072786D01*
X181147715Y-72238386D01*
X181054781Y-72420776D01*
X180991522Y-72615465D01*
X180959500Y-72817648D01*
X180959500Y-73022351D01*
X180991522Y-73224534D01*
X181054781Y-73419223D01*
X181147715Y-73601613D01*
X181268028Y-73767213D01*
X181412786Y-73911971D01*
X181560764Y-74019481D01*
X181578390Y-74032287D01*
X181650424Y-74068990D01*
X181671629Y-74079795D01*
X181722425Y-74127770D01*
X181739220Y-74195591D01*
X181716682Y-74261726D01*
X181671629Y-74300765D01*
X181578650Y-74348140D01*
X181413105Y-74468417D01*
X181413104Y-74468417D01*
X181268417Y-74613104D01*
X181268417Y-74613105D01*
X181148140Y-74778650D01*
X181055244Y-74960970D01*
X180992009Y-75155586D01*
X180983391Y-75210000D01*
X181826988Y-75210000D01*
X181794075Y-75267007D01*
X181760000Y-75394174D01*
X181760000Y-75525826D01*
X181794075Y-75652993D01*
X181826988Y-75710000D01*
X180983391Y-75710000D01*
X180992009Y-75764413D01*
X181055244Y-75959029D01*
X181148140Y-76141349D01*
X181268417Y-76306894D01*
X181268417Y-76306895D01*
X181413104Y-76451582D01*
X181578652Y-76571861D01*
X181671628Y-76619234D01*
X181722425Y-76667208D01*
X181739220Y-76735029D01*
X181716683Y-76801164D01*
X181671630Y-76840203D01*
X181578388Y-76887713D01*
X181412786Y-77008028D01*
X181268028Y-77152786D01*
X181147715Y-77318386D01*
X181054781Y-77500776D01*
X180991522Y-77695465D01*
X180959500Y-77897648D01*
X180959500Y-78102351D01*
X180991522Y-78304534D01*
X181054781Y-78499223D01*
X181109564Y-78606738D01*
X181143320Y-78672989D01*
X181147715Y-78681613D01*
X181268028Y-78847213D01*
X181412786Y-78991971D01*
X181533328Y-79079548D01*
X181578390Y-79112287D01*
X181669840Y-79158883D01*
X181671080Y-79159515D01*
X181721876Y-79207490D01*
X181738671Y-79275311D01*
X181716134Y-79341446D01*
X181671080Y-79380485D01*
X181578386Y-79427715D01*
X181412786Y-79548028D01*
X181268028Y-79692786D01*
X181147715Y-79858386D01*
X181054781Y-80040776D01*
X180991522Y-80235465D01*
X180959500Y-80437648D01*
X180959500Y-80642352D01*
X180962295Y-80660000D01*
X180991522Y-80844534D01*
X181054781Y-81039223D01*
X181118691Y-81164653D01*
X181146421Y-81219075D01*
X181147715Y-81221613D01*
X181268028Y-81387213D01*
X181412786Y-81531971D01*
X181557974Y-81637454D01*
X181578390Y-81652287D01*
X181669840Y-81698883D01*
X181671080Y-81699515D01*
X181721876Y-81747490D01*
X181738671Y-81815311D01*
X181716134Y-81881446D01*
X181671080Y-81920485D01*
X181578386Y-81967715D01*
X181412786Y-82088028D01*
X181268028Y-82232786D01*
X181147715Y-82398386D01*
X181054781Y-82580776D01*
X180991522Y-82775465D01*
X180959500Y-82977648D01*
X180959500Y-83182351D01*
X180991522Y-83384534D01*
X181054781Y-83579223D01*
X181147715Y-83761613D01*
X181268028Y-83927213D01*
X181412786Y-84071971D01*
X181548335Y-84170451D01*
X181578390Y-84192287D01*
X181669840Y-84238883D01*
X181671080Y-84239515D01*
X181721876Y-84287490D01*
X181738671Y-84355311D01*
X181716134Y-84421446D01*
X181671080Y-84460485D01*
X181578386Y-84507715D01*
X181412786Y-84628028D01*
X181268028Y-84772786D01*
X181147715Y-84938386D01*
X181054781Y-85120776D01*
X180991522Y-85315465D01*
X180959500Y-85517648D01*
X180959500Y-85722351D01*
X180991522Y-85924534D01*
X181054781Y-86119223D01*
X181147715Y-86301613D01*
X181268028Y-86467213D01*
X181412786Y-86611971D01*
X181567749Y-86724556D01*
X181578390Y-86732287D01*
X181669840Y-86778883D01*
X181671080Y-86779515D01*
X181721876Y-86827490D01*
X181738671Y-86895311D01*
X181716134Y-86961446D01*
X181671080Y-87000485D01*
X181578386Y-87047715D01*
X181412786Y-87168028D01*
X181268028Y-87312786D01*
X181147715Y-87478386D01*
X181054781Y-87660776D01*
X180991522Y-87855465D01*
X180959500Y-88057648D01*
X180959500Y-88262351D01*
X180991522Y-88464534D01*
X181054781Y-88659223D01*
X181147715Y-88841613D01*
X181268028Y-89007213D01*
X181412786Y-89151971D01*
X181567749Y-89264556D01*
X181578390Y-89272287D01*
X181642493Y-89304949D01*
X181671080Y-89319515D01*
X181721876Y-89367490D01*
X181738671Y-89435311D01*
X181716134Y-89501446D01*
X181671080Y-89540485D01*
X181578386Y-89587715D01*
X181412786Y-89708028D01*
X181268028Y-89852786D01*
X181147715Y-90018386D01*
X181054781Y-90200776D01*
X180991522Y-90395465D01*
X180959500Y-90597648D01*
X180959500Y-90802351D01*
X180991522Y-91004534D01*
X181054781Y-91199223D01*
X181147715Y-91381613D01*
X181268028Y-91547213D01*
X181412786Y-91691971D01*
X181563470Y-91801447D01*
X181578390Y-91812287D01*
X181633730Y-91840484D01*
X181671080Y-91859515D01*
X181721876Y-91907490D01*
X181738671Y-91975311D01*
X181716134Y-92041446D01*
X181671080Y-92080485D01*
X181578386Y-92127715D01*
X181412786Y-92248028D01*
X181268028Y-92392786D01*
X181147715Y-92558386D01*
X181054781Y-92740776D01*
X180991522Y-92935465D01*
X180959500Y-93137648D01*
X180959500Y-93342351D01*
X180991522Y-93544534D01*
X181054781Y-93739223D01*
X181113905Y-93855258D01*
X181127334Y-93881615D01*
X181147715Y-93921613D01*
X181268028Y-94087213D01*
X181412786Y-94231971D01*
X181551172Y-94332512D01*
X181578390Y-94352287D01*
X181633730Y-94380484D01*
X181671080Y-94399515D01*
X181721876Y-94447490D01*
X181738671Y-94515311D01*
X181716134Y-94581446D01*
X181671080Y-94620485D01*
X181578386Y-94667715D01*
X181412786Y-94788028D01*
X181268028Y-94932786D01*
X181147715Y-95098386D01*
X181054781Y-95280776D01*
X180991522Y-95475465D01*
X180964467Y-95646286D01*
X180959500Y-95677648D01*
X180959500Y-95882352D01*
X180963878Y-95909995D01*
X180991522Y-96084534D01*
X181054781Y-96279223D01*
X181147715Y-96461613D01*
X181268028Y-96627213D01*
X181412786Y-96771971D01*
X181551585Y-96872812D01*
X181578390Y-96892287D01*
X181633730Y-96920484D01*
X181671080Y-96939515D01*
X181721876Y-96987490D01*
X181738671Y-97055311D01*
X181716134Y-97121446D01*
X181671080Y-97160485D01*
X181578386Y-97207715D01*
X181412786Y-97328028D01*
X181268028Y-97472786D01*
X181147715Y-97638386D01*
X181054781Y-97820776D01*
X180991522Y-98015465D01*
X180959500Y-98217648D01*
X180959500Y-98422351D01*
X180991522Y-98624534D01*
X181054781Y-98819223D01*
X181118691Y-98944653D01*
X181139043Y-98984595D01*
X181147715Y-99001613D01*
X181268028Y-99167213D01*
X181412786Y-99311971D01*
X181566428Y-99423596D01*
X181578390Y-99432287D01*
X181669840Y-99478883D01*
X181671080Y-99479515D01*
X181721876Y-99527490D01*
X181738671Y-99595311D01*
X181716134Y-99661446D01*
X181671080Y-99700485D01*
X181578386Y-99747715D01*
X181412786Y-99868028D01*
X181268028Y-100012786D01*
X181147715Y-100178386D01*
X181054781Y-100360776D01*
X180991522Y-100555465D01*
X180959500Y-100757648D01*
X180959500Y-100962351D01*
X180991522Y-101164534D01*
X181054781Y-101359223D01*
X181147715Y-101541613D01*
X181268028Y-101707213D01*
X181412786Y-101851971D01*
X181567749Y-101964556D01*
X181578390Y-101972287D01*
X181669840Y-102018883D01*
X181671080Y-102019515D01*
X181721876Y-102067490D01*
X181738671Y-102135311D01*
X181716134Y-102201446D01*
X181671080Y-102240485D01*
X181578386Y-102287715D01*
X181412786Y-102408028D01*
X181268028Y-102552786D01*
X181147715Y-102718386D01*
X181054781Y-102900776D01*
X180991522Y-103095465D01*
X180959500Y-103297648D01*
X180959500Y-103502351D01*
X180991522Y-103704534D01*
X181054781Y-103899223D01*
X181147715Y-104081613D01*
X181268028Y-104247213D01*
X181412786Y-104391971D01*
X181578389Y-104512287D01*
X181582542Y-104514832D01*
X181581585Y-104516392D01*
X181626688Y-104558986D01*
X181643485Y-104626807D01*
X181620950Y-104692942D01*
X181566236Y-104736395D01*
X181519599Y-104745500D01*
X166613886Y-104745500D01*
X166546847Y-104725815D01*
X166526205Y-104709181D01*
X160865329Y-99048304D01*
X160824907Y-99007882D01*
X161725669Y-99007882D01*
X161725670Y-99007883D01*
X161751059Y-99026329D01*
X161919362Y-99112085D01*
X162098997Y-99170451D01*
X162285553Y-99200000D01*
X162474447Y-99200000D01*
X162661002Y-99170451D01*
X162840637Y-99112085D01*
X163008937Y-99026331D01*
X163034328Y-99007883D01*
X163034328Y-99007882D01*
X162380001Y-98353554D01*
X162380000Y-98353554D01*
X161725669Y-99007882D01*
X160824907Y-99007882D01*
X159722577Y-97905552D01*
X161180000Y-97905552D01*
X161180000Y-98094447D01*
X161209548Y-98281002D01*
X161267914Y-98460637D01*
X161353666Y-98628933D01*
X161372116Y-98654328D01*
X162026446Y-98000000D01*
X162026446Y-97999999D01*
X161980369Y-97953922D01*
X162030000Y-97953922D01*
X162030000Y-98046078D01*
X162053852Y-98135095D01*
X162099930Y-98214905D01*
X162165095Y-98280070D01*
X162244905Y-98326148D01*
X162333922Y-98350000D01*
X162426078Y-98350000D01*
X162515095Y-98326148D01*
X162594905Y-98280070D01*
X162660070Y-98214905D01*
X162706148Y-98135095D01*
X162730000Y-98046078D01*
X162730000Y-97999999D01*
X162733554Y-97999999D01*
X162733554Y-98000000D01*
X163387882Y-98654328D01*
X163387883Y-98654328D01*
X163406331Y-98628937D01*
X163492085Y-98460637D01*
X163550451Y-98281002D01*
X163580000Y-98094447D01*
X163580000Y-97905552D01*
X163579994Y-97905513D01*
X168799500Y-97905513D01*
X168799500Y-98094486D01*
X168829059Y-98281118D01*
X168887454Y-98460836D01*
X168948172Y-98580000D01*
X168973240Y-98629199D01*
X169084310Y-98782073D01*
X169217927Y-98915690D01*
X169370801Y-99026760D01*
X169413084Y-99048304D01*
X169539163Y-99112545D01*
X169539165Y-99112545D01*
X169539168Y-99112547D01*
X169635497Y-99143846D01*
X169718881Y-99170940D01*
X169905514Y-99200500D01*
X169905519Y-99200500D01*
X170094486Y-99200500D01*
X170281118Y-99170940D01*
X170292588Y-99167213D01*
X170460832Y-99112547D01*
X170629199Y-99026760D01*
X170782073Y-98915690D01*
X170915690Y-98782073D01*
X171026760Y-98629199D01*
X171112547Y-98460832D01*
X171170940Y-98281118D01*
X171176172Y-98248082D01*
X171200500Y-98094486D01*
X171200500Y-97905513D01*
X171170940Y-97718881D01*
X171125814Y-97580000D01*
X171112547Y-97539168D01*
X171112545Y-97539165D01*
X171112545Y-97539163D01*
X171041680Y-97400084D01*
X171026760Y-97370801D01*
X170915690Y-97217927D01*
X170782073Y-97084310D01*
X170629199Y-96973240D01*
X170460836Y-96887454D01*
X170302613Y-96836044D01*
X170281118Y-96829059D01*
X170094486Y-96799500D01*
X170094481Y-96799500D01*
X169905519Y-96799500D01*
X169905514Y-96799500D01*
X169718881Y-96829059D01*
X169539163Y-96887454D01*
X169370800Y-96973240D01*
X169283579Y-97036610D01*
X169217927Y-97084310D01*
X169217925Y-97084312D01*
X169217924Y-97084312D01*
X169084312Y-97217924D01*
X169084312Y-97217925D01*
X169084310Y-97217927D01*
X169078808Y-97225500D01*
X168973240Y-97370800D01*
X168887454Y-97539163D01*
X168829059Y-97718881D01*
X168799500Y-97905513D01*
X163579994Y-97905513D01*
X163550451Y-97718997D01*
X163492085Y-97539362D01*
X163406329Y-97371059D01*
X163387883Y-97345670D01*
X163387882Y-97345669D01*
X162733554Y-97999999D01*
X162730000Y-97999999D01*
X162730000Y-97953922D01*
X162706148Y-97864905D01*
X162660070Y-97785095D01*
X162594905Y-97719930D01*
X162515095Y-97673852D01*
X162426078Y-97650000D01*
X162333922Y-97650000D01*
X162244905Y-97673852D01*
X162165095Y-97719930D01*
X162099930Y-97785095D01*
X162053852Y-97864905D01*
X162030000Y-97953922D01*
X161980369Y-97953922D01*
X161372116Y-97345669D01*
X161372116Y-97345670D01*
X161353669Y-97371060D01*
X161267914Y-97539362D01*
X161209548Y-97718997D01*
X161180000Y-97905552D01*
X159722577Y-97905552D01*
X159540819Y-97723794D01*
X159507334Y-97662471D01*
X159504500Y-97636113D01*
X159504500Y-96992116D01*
X161725669Y-96992116D01*
X162380000Y-97646446D01*
X162380001Y-97646446D01*
X163034328Y-96992116D01*
X163008933Y-96973666D01*
X162840637Y-96887914D01*
X162661002Y-96829548D01*
X162474447Y-96800000D01*
X162285553Y-96800000D01*
X162098997Y-96829548D01*
X161919362Y-96887914D01*
X161751060Y-96973669D01*
X161725670Y-96992116D01*
X161725669Y-96992116D01*
X159504500Y-96992116D01*
X159504500Y-96720863D01*
X171809500Y-96720863D01*
X171809500Y-97731136D01*
X171819582Y-97844548D01*
X171872762Y-98030405D01*
X171933053Y-98145826D01*
X171962266Y-98201751D01*
X172000044Y-98248082D01*
X172084428Y-98351571D01*
X172139214Y-98396243D01*
X172234249Y-98473734D01*
X172405594Y-98563237D01*
X172591448Y-98616417D01*
X172704862Y-98626500D01*
X173463500Y-98626500D01*
X173530539Y-98646185D01*
X173576294Y-98698989D01*
X173587500Y-98750500D01*
X173587500Y-98860222D01*
X173596285Y-98915687D01*
X173621985Y-99077952D01*
X173690103Y-99287603D01*
X173690104Y-99287606D01*
X173712498Y-99331555D01*
X173763824Y-99432287D01*
X173790187Y-99484025D01*
X173919752Y-99662358D01*
X173919756Y-99662363D01*
X174075636Y-99818243D01*
X174075641Y-99818247D01*
X174144168Y-99868034D01*
X174253978Y-99947815D01*
X174381480Y-100012781D01*
X174450393Y-100047895D01*
X174450396Y-100047896D01*
X174555221Y-100081955D01*
X174660049Y-100116015D01*
X174877778Y-100150500D01*
X174877779Y-100150500D01*
X175098221Y-100150500D01*
X175098222Y-100150500D01*
X175315951Y-100116015D01*
X175525606Y-100047895D01*
X175722022Y-99947815D01*
X175900365Y-99818242D01*
X176056242Y-99662365D01*
X176185815Y-99484022D01*
X176285895Y-99287606D01*
X176354015Y-99077951D01*
X176388500Y-98860222D01*
X176388500Y-98860220D01*
X176389262Y-98855410D01*
X176390697Y-98855637D01*
X176413270Y-98796421D01*
X176469503Y-98754953D01*
X176539229Y-98750469D01*
X176600309Y-98784394D01*
X176633353Y-98845957D01*
X176634712Y-98855414D01*
X176634738Y-98855410D01*
X176635500Y-98860221D01*
X176635500Y-98860222D01*
X176644285Y-98915687D01*
X176669985Y-99077952D01*
X176738103Y-99287603D01*
X176738104Y-99287606D01*
X176760498Y-99331555D01*
X176811824Y-99432287D01*
X176838187Y-99484025D01*
X176967752Y-99662358D01*
X176967756Y-99662363D01*
X177123636Y-99818243D01*
X177123641Y-99818247D01*
X177192168Y-99868034D01*
X177301978Y-99947815D01*
X177429480Y-100012781D01*
X177498393Y-100047895D01*
X177498396Y-100047896D01*
X177603221Y-100081955D01*
X177708049Y-100116015D01*
X177925778Y-100150500D01*
X177925779Y-100150500D01*
X178146221Y-100150500D01*
X178146222Y-100150500D01*
X178363951Y-100116015D01*
X178573606Y-100047895D01*
X178770022Y-99947815D01*
X178948365Y-99818242D01*
X179104242Y-99662365D01*
X179233815Y-99484022D01*
X179333895Y-99287606D01*
X179402015Y-99077951D01*
X179436500Y-98860222D01*
X179436500Y-98639778D01*
X179402015Y-98422049D01*
X179366541Y-98312870D01*
X179333896Y-98212396D01*
X179333895Y-98212393D01*
X179273817Y-98094486D01*
X179233815Y-98015978D01*
X179161526Y-97916480D01*
X179104247Y-97837641D01*
X179104243Y-97837636D01*
X178948363Y-97681756D01*
X178948358Y-97681752D01*
X178770025Y-97552187D01*
X178770024Y-97552186D01*
X178770022Y-97552185D01*
X178707096Y-97520122D01*
X178573606Y-97452104D01*
X178573603Y-97452103D01*
X178363952Y-97383985D01*
X178213558Y-97360165D01*
X178146222Y-97349500D01*
X178036500Y-97349500D01*
X177969461Y-97329815D01*
X177923706Y-97277011D01*
X177912500Y-97225500D01*
X177912500Y-97115778D01*
X177902064Y-97049889D01*
X177878015Y-96898049D01*
X177843414Y-96791557D01*
X177809896Y-96688396D01*
X177809895Y-96688393D01*
X177768652Y-96607451D01*
X177709815Y-96491978D01*
X177687754Y-96461613D01*
X177580247Y-96313641D01*
X177580243Y-96313636D01*
X177424363Y-96157756D01*
X177424358Y-96157752D01*
X177246025Y-96028187D01*
X177246024Y-96028186D01*
X177246022Y-96028185D01*
X177183096Y-95996122D01*
X177049606Y-95928104D01*
X177049603Y-95928103D01*
X176839952Y-95859985D01*
X176685877Y-95835582D01*
X176622222Y-95825500D01*
X176401778Y-95825500D01*
X176338123Y-95835582D01*
X176184047Y-95859985D01*
X175974396Y-95928103D01*
X175974393Y-95928104D01*
X175777974Y-96028187D01*
X175599641Y-96157752D01*
X175599636Y-96157756D01*
X175443756Y-96313636D01*
X175443752Y-96313641D01*
X175314187Y-96491974D01*
X175214104Y-96688393D01*
X175214103Y-96688396D01*
X175145985Y-96898047D01*
X175111500Y-97115778D01*
X175111500Y-97225500D01*
X175091815Y-97292539D01*
X175039011Y-97338294D01*
X174987500Y-97349500D01*
X174877778Y-97349500D01*
X174753897Y-97369120D01*
X174684604Y-97360165D01*
X174631152Y-97315169D01*
X174610513Y-97248417D01*
X174610500Y-97246647D01*
X174610500Y-96720869D01*
X174610500Y-96720862D01*
X174600417Y-96607448D01*
X174547237Y-96421594D01*
X174457734Y-96250249D01*
X174382317Y-96157758D01*
X174335571Y-96100428D01*
X174214429Y-96001650D01*
X174185751Y-95978266D01*
X174089719Y-95928103D01*
X174014405Y-95888762D01*
X173859845Y-95844537D01*
X173828552Y-95835583D01*
X173828551Y-95835582D01*
X173828548Y-95835582D01*
X173739662Y-95827680D01*
X173715138Y-95825500D01*
X172704862Y-95825500D01*
X172692599Y-95826590D01*
X172591451Y-95835582D01*
X172405594Y-95888762D01*
X172234250Y-95978265D01*
X172084428Y-96100428D01*
X171962265Y-96250250D01*
X171872762Y-96421594D01*
X171819582Y-96607451D01*
X171809500Y-96720863D01*
X159504500Y-96720863D01*
X159504500Y-90974499D01*
X159524185Y-90907460D01*
X159576989Y-90861705D01*
X159628500Y-90850499D01*
X159647871Y-90850499D01*
X159647872Y-90850499D01*
X159707483Y-90844091D01*
X159842331Y-90793796D01*
X159957546Y-90707546D01*
X160043796Y-90592331D01*
X160094091Y-90457483D01*
X160100500Y-90397873D01*
X160100500Y-89507882D01*
X161475669Y-89507882D01*
X161475670Y-89507883D01*
X161501059Y-89526329D01*
X161669362Y-89612085D01*
X161848997Y-89670451D01*
X162035553Y-89700000D01*
X162224447Y-89700000D01*
X162411002Y-89670451D01*
X162590637Y-89612085D01*
X162758937Y-89526331D01*
X162784328Y-89507883D01*
X162784328Y-89507882D01*
X162130001Y-88853554D01*
X162130000Y-88853554D01*
X161475669Y-89507882D01*
X160100500Y-89507882D01*
X160100499Y-88602128D01*
X160094091Y-88542517D01*
X160086594Y-88522417D01*
X160057354Y-88444019D01*
X160043797Y-88407671D01*
X160043793Y-88407664D01*
X160042212Y-88405552D01*
X160930000Y-88405552D01*
X160930000Y-88594447D01*
X160959548Y-88781002D01*
X161017914Y-88960637D01*
X161103666Y-89128933D01*
X161122116Y-89154328D01*
X161776446Y-88500000D01*
X161776446Y-88499999D01*
X161730369Y-88453922D01*
X161780000Y-88453922D01*
X161780000Y-88546078D01*
X161803852Y-88635095D01*
X161849930Y-88714905D01*
X161915095Y-88780070D01*
X161994905Y-88826148D01*
X162083922Y-88850000D01*
X162176078Y-88850000D01*
X162265095Y-88826148D01*
X162344905Y-88780070D01*
X162410070Y-88714905D01*
X162456148Y-88635095D01*
X162480000Y-88546078D01*
X162480000Y-88499999D01*
X162483554Y-88499999D01*
X162483554Y-88500000D01*
X163137882Y-89154328D01*
X163137883Y-89154328D01*
X163156331Y-89128937D01*
X163242085Y-88960637D01*
X163300451Y-88781002D01*
X163330000Y-88594447D01*
X163330000Y-88405552D01*
X163329994Y-88405513D01*
X168549500Y-88405513D01*
X168549500Y-88594486D01*
X168579059Y-88781118D01*
X168637454Y-88960836D01*
X168661088Y-89007219D01*
X168723240Y-89129199D01*
X168834310Y-89282073D01*
X168967927Y-89415690D01*
X169120801Y-89526760D01*
X169200347Y-89567290D01*
X169289163Y-89612545D01*
X169289165Y-89612545D01*
X169289168Y-89612547D01*
X169385497Y-89643846D01*
X169468881Y-89670940D01*
X169655514Y-89700500D01*
X169655519Y-89700500D01*
X169844486Y-89700500D01*
X170031118Y-89670940D01*
X170032623Y-89670451D01*
X170210832Y-89612547D01*
X170379199Y-89526760D01*
X170532073Y-89415690D01*
X170665690Y-89282073D01*
X170776760Y-89129199D01*
X170862547Y-88960832D01*
X170920940Y-88781118D01*
X170929653Y-88726104D01*
X170950500Y-88594486D01*
X170950500Y-88405513D01*
X170920940Y-88218881D01*
X170887203Y-88115051D01*
X170862547Y-88039168D01*
X170862545Y-88039165D01*
X170862545Y-88039163D01*
X170839972Y-87994862D01*
X171599500Y-87994862D01*
X171599500Y-89005138D01*
X171599685Y-89007219D01*
X171609582Y-89118548D01*
X171609582Y-89118551D01*
X171609583Y-89118552D01*
X171612555Y-89128937D01*
X171662762Y-89304405D01*
X171695715Y-89367490D01*
X171752266Y-89475751D01*
X171793507Y-89526329D01*
X171874428Y-89625571D01*
X171930069Y-89670940D01*
X172024249Y-89747734D01*
X172195594Y-89837237D01*
X172381448Y-89890417D01*
X172494862Y-89900500D01*
X173253500Y-89900500D01*
X173320539Y-89920185D01*
X173366294Y-89972989D01*
X173377500Y-90024500D01*
X173377500Y-90134221D01*
X173411985Y-90351952D01*
X173480103Y-90561603D01*
X173480104Y-90561606D01*
X173503569Y-90607657D01*
X173554466Y-90707547D01*
X173580187Y-90758025D01*
X173709752Y-90936358D01*
X173709756Y-90936363D01*
X173865636Y-91092243D01*
X173865641Y-91092247D01*
X174010000Y-91197129D01*
X174043978Y-91221815D01*
X174172375Y-91287237D01*
X174240393Y-91321895D01*
X174240396Y-91321896D01*
X174295476Y-91339792D01*
X174450049Y-91390015D01*
X174667778Y-91424500D01*
X174667779Y-91424500D01*
X174888221Y-91424500D01*
X174888222Y-91424500D01*
X175105951Y-91390015D01*
X175315606Y-91321895D01*
X175512022Y-91221815D01*
X175690365Y-91092242D01*
X175846242Y-90936365D01*
X175975815Y-90758022D01*
X176075895Y-90561606D01*
X176144015Y-90351951D01*
X176178500Y-90134222D01*
X176178500Y-90134220D01*
X176179262Y-90129410D01*
X176180697Y-90129637D01*
X176203270Y-90070421D01*
X176259503Y-90028953D01*
X176329229Y-90024469D01*
X176390309Y-90058394D01*
X176423353Y-90119957D01*
X176424712Y-90129414D01*
X176424738Y-90129410D01*
X176459985Y-90351952D01*
X176528103Y-90561603D01*
X176528104Y-90561606D01*
X176551569Y-90607657D01*
X176602466Y-90707547D01*
X176628187Y-90758025D01*
X176757752Y-90936358D01*
X176757756Y-90936363D01*
X176913636Y-91092243D01*
X176913641Y-91092247D01*
X177058000Y-91197129D01*
X177091978Y-91221815D01*
X177220375Y-91287237D01*
X177288393Y-91321895D01*
X177288396Y-91321896D01*
X177343476Y-91339792D01*
X177498049Y-91390015D01*
X177715778Y-91424500D01*
X177715779Y-91424500D01*
X177936221Y-91424500D01*
X177936222Y-91424500D01*
X178153951Y-91390015D01*
X178363606Y-91321895D01*
X178560022Y-91221815D01*
X178738365Y-91092242D01*
X178894242Y-90936365D01*
X179023815Y-90758022D01*
X179123895Y-90561606D01*
X179192015Y-90351951D01*
X179226500Y-90134222D01*
X179226500Y-89913778D01*
X179192015Y-89696049D01*
X179136871Y-89526331D01*
X179123896Y-89486396D01*
X179123895Y-89486393D01*
X179065506Y-89371801D01*
X179023815Y-89289978D01*
X179007260Y-89267192D01*
X178894247Y-89111641D01*
X178894243Y-89111636D01*
X178738363Y-88955756D01*
X178738358Y-88955752D01*
X178560025Y-88826187D01*
X178560024Y-88826186D01*
X178560022Y-88826185D01*
X178471574Y-88781118D01*
X178363606Y-88726104D01*
X178363603Y-88726103D01*
X178153952Y-88657985D01*
X178033851Y-88638963D01*
X177936222Y-88623500D01*
X177826500Y-88623500D01*
X177759461Y-88603815D01*
X177713706Y-88551011D01*
X177702500Y-88499500D01*
X177702500Y-88389778D01*
X177692274Y-88325212D01*
X177668015Y-88172049D01*
X177624838Y-88039163D01*
X177599896Y-87962396D01*
X177599895Y-87962393D01*
X177558652Y-87881451D01*
X177499815Y-87765978D01*
X177464902Y-87717924D01*
X177370247Y-87587641D01*
X177370243Y-87587636D01*
X177214363Y-87431756D01*
X177214358Y-87431752D01*
X177036025Y-87302187D01*
X177036024Y-87302186D01*
X177036022Y-87302185D01*
X176973096Y-87270122D01*
X176839606Y-87202104D01*
X176839603Y-87202103D01*
X176629952Y-87133985D01*
X176475877Y-87109582D01*
X176412222Y-87099500D01*
X176191778Y-87099500D01*
X176128123Y-87109582D01*
X175974047Y-87133985D01*
X175764396Y-87202103D01*
X175764393Y-87202104D01*
X175567974Y-87302187D01*
X175389641Y-87431752D01*
X175389636Y-87431756D01*
X175233756Y-87587636D01*
X175233752Y-87587641D01*
X175104187Y-87765974D01*
X175004104Y-87962393D01*
X175004103Y-87962396D01*
X174935985Y-88172047D01*
X174901500Y-88389778D01*
X174901500Y-88499500D01*
X174881815Y-88566539D01*
X174829011Y-88612294D01*
X174777500Y-88623500D01*
X174667778Y-88623500D01*
X174543897Y-88643120D01*
X174474604Y-88634165D01*
X174421152Y-88589169D01*
X174400513Y-88522417D01*
X174400500Y-88520647D01*
X174400500Y-87994869D01*
X174400500Y-87994862D01*
X174390417Y-87881448D01*
X174337237Y-87695594D01*
X174247734Y-87524249D01*
X174172317Y-87431758D01*
X174125571Y-87374428D01*
X174005151Y-87276239D01*
X173975751Y-87252266D01*
X173879719Y-87202103D01*
X173804405Y-87162762D01*
X173649845Y-87118537D01*
X173618552Y-87109583D01*
X173618551Y-87109582D01*
X173618548Y-87109582D01*
X173529662Y-87101680D01*
X173505138Y-87099500D01*
X172494862Y-87099500D01*
X172482599Y-87100590D01*
X172381451Y-87109582D01*
X172195594Y-87162762D01*
X172024250Y-87252265D01*
X171874428Y-87374428D01*
X171752265Y-87524250D01*
X171662762Y-87695594D01*
X171609582Y-87881451D01*
X171602386Y-87962396D01*
X171599500Y-87994862D01*
X170839972Y-87994862D01*
X170782186Y-87881451D01*
X170776760Y-87870801D01*
X170665690Y-87717927D01*
X170532073Y-87584310D01*
X170379199Y-87473240D01*
X170210836Y-87387454D01*
X170031118Y-87329059D01*
X169844486Y-87299500D01*
X169844481Y-87299500D01*
X169655519Y-87299500D01*
X169655514Y-87299500D01*
X169468881Y-87329059D01*
X169289163Y-87387454D01*
X169120800Y-87473240D01*
X169050593Y-87524249D01*
X168967927Y-87584310D01*
X168967925Y-87584312D01*
X168967924Y-87584312D01*
X168834312Y-87717924D01*
X168834312Y-87717925D01*
X168834310Y-87717927D01*
X168799402Y-87765974D01*
X168723240Y-87870800D01*
X168637454Y-88039163D01*
X168579059Y-88218881D01*
X168549500Y-88405513D01*
X163329994Y-88405513D01*
X163300451Y-88218997D01*
X163242085Y-88039362D01*
X163156329Y-87871059D01*
X163137883Y-87845670D01*
X163137882Y-87845669D01*
X162483554Y-88499999D01*
X162480000Y-88499999D01*
X162480000Y-88453922D01*
X162456148Y-88364905D01*
X162410070Y-88285095D01*
X162344905Y-88219930D01*
X162265095Y-88173852D01*
X162176078Y-88150000D01*
X162083922Y-88150000D01*
X161994905Y-88173852D01*
X161915095Y-88219930D01*
X161849930Y-88285095D01*
X161803852Y-88364905D01*
X161780000Y-88453922D01*
X161730369Y-88453922D01*
X161122116Y-87845669D01*
X161122116Y-87845670D01*
X161103669Y-87871060D01*
X161017914Y-88039362D01*
X160959548Y-88218997D01*
X160930000Y-88405552D01*
X160042212Y-88405552D01*
X159957547Y-88292455D01*
X159957544Y-88292452D01*
X159842335Y-88206206D01*
X159842328Y-88206202D01*
X159710917Y-88157189D01*
X159654983Y-88115318D01*
X159630566Y-88049853D01*
X159645418Y-87981580D01*
X159666563Y-87953332D01*
X159780104Y-87839792D01*
X159905051Y-87667816D01*
X159978202Y-87524249D01*
X159994575Y-87492116D01*
X161475669Y-87492116D01*
X162130000Y-88146446D01*
X162130001Y-88146446D01*
X162784328Y-87492116D01*
X162758933Y-87473666D01*
X162590637Y-87387914D01*
X162411002Y-87329548D01*
X162224447Y-87300000D01*
X162035553Y-87300000D01*
X161848997Y-87329548D01*
X161669362Y-87387914D01*
X161501060Y-87473669D01*
X161475670Y-87492116D01*
X161475669Y-87492116D01*
X159994575Y-87492116D01*
X159999179Y-87483080D01*
X159999180Y-87483078D01*
X160001554Y-87478418D01*
X160001554Y-87478417D01*
X160001557Y-87478412D01*
X160067246Y-87276243D01*
X160100500Y-87066287D01*
X160100500Y-86853713D01*
X160067246Y-86643757D01*
X160001557Y-86441588D01*
X159905051Y-86252184D01*
X159905049Y-86252181D01*
X159905048Y-86252179D01*
X159780109Y-86080213D01*
X159629786Y-85929890D01*
X159457820Y-85804951D01*
X159268414Y-85708444D01*
X159268413Y-85708443D01*
X159268412Y-85708443D01*
X159066243Y-85642754D01*
X159066241Y-85642753D01*
X159066240Y-85642753D01*
X158904957Y-85617208D01*
X158856287Y-85609500D01*
X158643713Y-85609500D01*
X158595042Y-85617208D01*
X158433760Y-85642753D01*
X158231585Y-85708444D01*
X158042179Y-85804951D01*
X157870213Y-85929890D01*
X157719890Y-86080213D01*
X157594951Y-86252179D01*
X157498444Y-86441585D01*
X157432753Y-86643760D01*
X157404013Y-86825220D01*
X157399500Y-86853713D01*
X157399500Y-87066287D01*
X157409534Y-87129644D01*
X157421011Y-87202105D01*
X157432754Y-87276243D01*
X157483283Y-87431756D01*
X157498444Y-87478414D01*
X157594951Y-87667820D01*
X157719890Y-87839786D01*
X157833430Y-87953326D01*
X157866915Y-88014649D01*
X157861931Y-88084341D01*
X157820059Y-88140274D01*
X157789083Y-88157189D01*
X157657669Y-88206203D01*
X157657664Y-88206206D01*
X157542455Y-88292452D01*
X157542452Y-88292455D01*
X157456206Y-88407664D01*
X157456202Y-88407671D01*
X157405908Y-88542517D01*
X157399501Y-88602116D01*
X157399501Y-88602123D01*
X157399500Y-88602135D01*
X157399500Y-90397870D01*
X157399501Y-90397876D01*
X157405908Y-90457483D01*
X157456202Y-90592328D01*
X157456206Y-90592335D01*
X157542452Y-90707544D01*
X157542455Y-90707547D01*
X157657664Y-90793793D01*
X157657671Y-90793797D01*
X157680606Y-90802351D01*
X157792517Y-90844091D01*
X157852127Y-90850500D01*
X157871497Y-90850499D01*
X157938535Y-90870181D01*
X157984292Y-90922983D01*
X157995500Y-90974499D01*
X157995500Y-97925682D01*
X157995499Y-97925688D01*
X157995499Y-98074312D01*
X158009380Y-98144092D01*
X158010964Y-98152058D01*
X158010965Y-98152064D01*
X158024493Y-98220072D01*
X158024495Y-98220080D01*
X158036094Y-98248082D01*
X158081368Y-98357385D01*
X158081372Y-98357392D01*
X158163942Y-98480968D01*
X158163943Y-98480969D01*
X165659600Y-105976624D01*
X165659621Y-105976647D01*
X165769029Y-106086055D01*
X165769032Y-106086057D01*
X165769034Y-106086059D01*
X165851605Y-106141230D01*
X165892611Y-106168630D01*
X165973045Y-106201946D01*
X166029920Y-106225505D01*
X166029929Y-106225506D01*
X166029930Y-106225507D01*
X166054103Y-106230315D01*
X166054110Y-106230316D01*
X166175686Y-106254501D01*
X166175688Y-106254501D01*
X166330426Y-106254501D01*
X166330446Y-106254500D01*
X192779554Y-106254500D01*
X192779574Y-106254501D01*
X192785688Y-106254501D01*
X192934314Y-106254501D01*
X192971009Y-106247200D01*
X193055894Y-106230315D01*
X193080080Y-106225505D01*
X193136955Y-106201946D01*
X193217389Y-106168630D01*
X193340966Y-106086059D01*
X195989841Y-103437181D01*
X196051162Y-103403698D01*
X196120853Y-103408682D01*
X196176787Y-103450553D01*
X196199993Y-103505466D01*
X196231522Y-103704534D01*
X196294781Y-103899223D01*
X196387715Y-104081613D01*
X196508028Y-104247213D01*
X196652786Y-104391971D01*
X196757019Y-104467699D01*
X196818390Y-104512287D01*
X196910042Y-104558986D01*
X197000776Y-104605218D01*
X197000778Y-104605218D01*
X197000781Y-104605220D01*
X197067219Y-104626807D01*
X197195465Y-104668477D01*
X197296557Y-104684488D01*
X197397648Y-104700500D01*
X197397649Y-104700500D01*
X197602351Y-104700500D01*
X197602352Y-104700500D01*
X197804534Y-104668477D01*
X197999219Y-104605220D01*
X198181610Y-104512287D01*
X198274590Y-104444732D01*
X198347213Y-104391971D01*
X198347215Y-104391968D01*
X198347219Y-104391966D01*
X198491966Y-104247219D01*
X198612287Y-104081610D01*
X198612289Y-104081605D01*
X198614462Y-104078615D01*
X198669792Y-104035949D01*
X198714781Y-104027500D01*
X203661804Y-104027500D01*
X203661805Y-104027499D01*
X203783035Y-104003386D01*
X203863784Y-103969937D01*
X203897233Y-103956083D01*
X204000008Y-103887411D01*
X204087411Y-103800008D01*
X206737411Y-101150008D01*
X206784136Y-101080079D01*
X206806083Y-101047233D01*
X206841242Y-100962352D01*
X206853386Y-100933035D01*
X206877500Y-100811803D01*
X206877500Y-100688197D01*
X206877500Y-92938197D01*
X206870192Y-92901459D01*
X206853386Y-92816966D01*
X206806401Y-92703536D01*
X206806223Y-92702976D01*
X206737414Y-92599996D01*
X206737413Y-92599994D01*
X206695805Y-92558386D01*
X206650008Y-92512589D01*
X206102109Y-91964690D01*
X205472011Y-91334591D01*
X205472009Y-91334589D01*
X205462478Y-91328221D01*
X205453010Y-91321895D01*
X205450258Y-91320056D01*
X205426209Y-91291267D01*
X205405475Y-91266454D01*
X205405473Y-91266444D01*
X205405466Y-91266435D01*
X205400704Y-91228452D01*
X205396771Y-91197129D01*
X205396775Y-91197116D01*
X205396774Y-91197108D01*
X205396786Y-91197082D01*
X205408687Y-91160679D01*
X205501557Y-90978412D01*
X205567246Y-90776243D01*
X205600500Y-90566287D01*
X205600500Y-90353713D01*
X205567246Y-90143757D01*
X205501557Y-89941588D01*
X205405051Y-89752184D01*
X205405049Y-89752181D01*
X205405048Y-89752179D01*
X205280109Y-89580213D01*
X205129786Y-89429890D01*
X204957820Y-89304951D01*
X204768414Y-89208444D01*
X204768413Y-89208443D01*
X204768412Y-89208443D01*
X204566243Y-89142754D01*
X204566241Y-89142753D01*
X204566240Y-89142753D01*
X204404957Y-89117208D01*
X204356287Y-89109500D01*
X204143713Y-89109500D01*
X204095042Y-89117208D01*
X203933760Y-89142753D01*
X203731585Y-89208444D01*
X203542179Y-89304951D01*
X203370213Y-89429890D01*
X203219890Y-89580213D01*
X203094949Y-89752182D01*
X203090484Y-89760946D01*
X203042509Y-89811742D01*
X202974688Y-89828536D01*
X202908553Y-89805998D01*
X202869516Y-89760946D01*
X202865050Y-89752182D01*
X202740109Y-89580213D01*
X202589786Y-89429890D01*
X202417820Y-89304951D01*
X202228414Y-89208444D01*
X202228413Y-89208443D01*
X202228412Y-89208443D01*
X202026243Y-89142754D01*
X202026241Y-89142753D01*
X202026240Y-89142753D01*
X201864957Y-89117208D01*
X201816287Y-89109500D01*
X201603713Y-89109500D01*
X201555042Y-89117208D01*
X201393760Y-89142753D01*
X201191585Y-89208444D01*
X201002179Y-89304951D01*
X200830213Y-89429890D01*
X200679890Y-89580213D01*
X200554951Y-89752179D01*
X200458444Y-89941585D01*
X200392753Y-90143760D01*
X200359500Y-90353713D01*
X200359500Y-90566286D01*
X200389868Y-90758025D01*
X200392754Y-90776243D01*
X200444780Y-90936363D01*
X200458444Y-90978414D01*
X200554951Y-91167820D01*
X200679890Y-91339786D01*
X200830213Y-91490109D01*
X201002182Y-91615050D01*
X201010946Y-91619516D01*
X201061742Y-91667491D01*
X201078536Y-91735312D01*
X201055998Y-91801447D01*
X201010946Y-91840484D01*
X201002182Y-91844949D01*
X200830213Y-91969890D01*
X200679890Y-92120213D01*
X200554951Y-92292179D01*
X200458444Y-92481585D01*
X200392753Y-92683760D01*
X200359500Y-92893713D01*
X200359500Y-93106287D01*
X200392754Y-93316243D01*
X200401237Y-93342352D01*
X200458444Y-93518414D01*
X200554948Y-93707815D01*
X200681220Y-93881615D01*
X200704699Y-93947422D01*
X200688873Y-94015476D01*
X200638767Y-94064170D01*
X200580901Y-94078500D01*
X198734697Y-94078500D01*
X198667658Y-94058815D01*
X198621903Y-94006011D01*
X198611959Y-93936853D01*
X198624212Y-93898205D01*
X198632666Y-93881615D01*
X198705220Y-93739219D01*
X198768477Y-93544534D01*
X198800500Y-93342352D01*
X198800500Y-93137648D01*
X198768477Y-92935466D01*
X198757427Y-92901459D01*
X198705218Y-92740776D01*
X198633484Y-92599992D01*
X198612287Y-92558390D01*
X198556488Y-92481588D01*
X198491971Y-92392786D01*
X198347213Y-92248028D01*
X198181614Y-92127715D01*
X198166881Y-92120208D01*
X198088917Y-92080483D01*
X198038123Y-92032511D01*
X198021328Y-91964690D01*
X198043865Y-91898555D01*
X198088917Y-91859516D01*
X198181610Y-91812287D01*
X198202770Y-91796913D01*
X198347213Y-91691971D01*
X198347215Y-91691968D01*
X198347219Y-91691966D01*
X198491966Y-91547219D01*
X198491968Y-91547215D01*
X198491971Y-91547213D01*
X198544732Y-91474590D01*
X198612287Y-91381610D01*
X198705220Y-91199219D01*
X198768477Y-91004534D01*
X198800500Y-90802352D01*
X198800500Y-90597648D01*
X198768477Y-90395466D01*
X198763825Y-90381151D01*
X198761832Y-90311312D01*
X198794075Y-90255158D01*
X202912417Y-86136819D01*
X202973740Y-86103334D01*
X203000098Y-86100500D01*
X207674491Y-86100500D01*
X207674507Y-86100501D01*
X207682103Y-86100501D01*
X207840214Y-86100501D01*
X207840217Y-86100501D01*
X207992945Y-86059577D01*
X208043064Y-86030639D01*
X208129876Y-85980520D01*
X208241680Y-85868716D01*
X208241680Y-85868714D01*
X208251888Y-85858507D01*
X208251890Y-85858504D01*
X209288319Y-84822075D01*
X209349642Y-84788590D01*
X209419334Y-84793574D01*
X209475267Y-84835446D01*
X209499684Y-84900910D01*
X209500000Y-84909756D01*
X209500000Y-102250000D01*
X222875500Y-102250000D01*
X222942539Y-102269685D01*
X222988294Y-102322489D01*
X222999500Y-102374000D01*
X222999500Y-102631127D01*
X223018219Y-102773305D01*
X223033730Y-102891116D01*
X223063906Y-103003735D01*
X223101602Y-103144418D01*
X223101605Y-103144428D01*
X223201953Y-103386690D01*
X223201958Y-103386700D01*
X223333075Y-103613803D01*
X223492718Y-103821851D01*
X223492726Y-103821860D01*
X223678140Y-104007274D01*
X223678148Y-104007281D01*
X223678149Y-104007282D01*
X223715508Y-104035949D01*
X223886196Y-104166924D01*
X224113299Y-104298041D01*
X224113309Y-104298046D01*
X224348196Y-104395339D01*
X224355581Y-104398398D01*
X224608884Y-104466270D01*
X224868880Y-104500500D01*
X224868887Y-104500500D01*
X225131113Y-104500500D01*
X225131120Y-104500500D01*
X225391116Y-104466270D01*
X225644419Y-104398398D01*
X225886697Y-104298043D01*
X226113803Y-104166924D01*
X226321851Y-104007282D01*
X226321855Y-104007277D01*
X226321860Y-104007274D01*
X226507274Y-103821860D01*
X226507277Y-103821855D01*
X226507282Y-103821851D01*
X226666924Y-103613803D01*
X226798043Y-103386697D01*
X226898398Y-103144419D01*
X226966270Y-102891116D01*
X227000500Y-102631120D01*
X227000500Y-102374000D01*
X227020185Y-102306961D01*
X227072989Y-102261206D01*
X227124500Y-102250000D01*
X231875500Y-102250000D01*
X231884185Y-102252550D01*
X231893147Y-102251262D01*
X231917187Y-102262240D01*
X231942539Y-102269685D01*
X231948466Y-102276525D01*
X231956703Y-102280287D01*
X231970992Y-102302521D01*
X231988294Y-102322489D01*
X231990581Y-102333003D01*
X231994477Y-102339065D01*
X231999500Y-102374000D01*
X231999500Y-102497785D01*
X231999421Y-102502211D01*
X231981824Y-102994906D01*
X231981193Y-103003735D01*
X231928728Y-103491732D01*
X231927468Y-103500494D01*
X231840324Y-103983499D01*
X231838442Y-103992148D01*
X231717065Y-104467699D01*
X231714571Y-104476192D01*
X231559580Y-104941866D01*
X231556487Y-104950160D01*
X231368664Y-105403602D01*
X231364987Y-105411653D01*
X231145294Y-105850546D01*
X231141056Y-105858308D01*
X230920334Y-106230316D01*
X230890613Y-106280408D01*
X230885827Y-106287854D01*
X230605916Y-106691001D01*
X230600612Y-106698087D01*
X230292647Y-107080250D01*
X230286850Y-107086940D01*
X229952411Y-107446152D01*
X229946152Y-107452411D01*
X229586940Y-107786850D01*
X229580250Y-107792647D01*
X229198087Y-108100612D01*
X229191001Y-108105916D01*
X228787854Y-108385827D01*
X228780412Y-108390610D01*
X228358308Y-108641056D01*
X228350546Y-108645294D01*
X227911653Y-108864987D01*
X227903602Y-108868664D01*
X227450160Y-109056487D01*
X227441866Y-109059580D01*
X226976192Y-109214571D01*
X226967699Y-109217065D01*
X226492148Y-109338442D01*
X226483499Y-109340324D01*
X226000494Y-109427468D01*
X225991732Y-109428728D01*
X225503735Y-109481193D01*
X225494906Y-109481824D01*
X225002212Y-109499421D01*
X224997786Y-109499500D01*
X155002214Y-109499500D01*
X154997788Y-109499421D01*
X154505093Y-109481824D01*
X154496264Y-109481193D01*
X154008267Y-109428728D01*
X153999505Y-109427468D01*
X153516500Y-109340324D01*
X153507851Y-109338442D01*
X153032300Y-109217065D01*
X153023807Y-109214571D01*
X152558133Y-109059580D01*
X152549839Y-109056487D01*
X152096397Y-108868664D01*
X152088346Y-108864987D01*
X151649453Y-108645294D01*
X151641703Y-108641062D01*
X151219574Y-108390602D01*
X151212145Y-108385827D01*
X150808998Y-108105916D01*
X150801912Y-108100612D01*
X150419749Y-107792647D01*
X150413059Y-107786850D01*
X150053847Y-107452411D01*
X150047588Y-107446152D01*
X149713149Y-107086940D01*
X149707352Y-107080250D01*
X149399387Y-106698087D01*
X149394083Y-106691001D01*
X149285813Y-106535063D01*
X149114164Y-106287842D01*
X149109401Y-106280432D01*
X148858931Y-105858287D01*
X148854705Y-105850546D01*
X148635012Y-105411653D01*
X148631335Y-105403602D01*
X148443512Y-104950160D01*
X148440419Y-104941866D01*
X148372032Y-104736395D01*
X148285423Y-104476177D01*
X148282938Y-104467713D01*
X148161552Y-103992128D01*
X148159679Y-103983520D01*
X148072527Y-103500471D01*
X148071274Y-103491755D01*
X148018804Y-103003717D01*
X148018176Y-102994924D01*
X148000579Y-102502211D01*
X148000500Y-102497785D01*
X148000500Y-102368872D01*
X152999500Y-102368872D01*
X152999500Y-102631127D01*
X153018219Y-102773305D01*
X153033730Y-102891116D01*
X153063906Y-103003735D01*
X153101602Y-103144418D01*
X153101605Y-103144428D01*
X153201953Y-103386690D01*
X153201958Y-103386700D01*
X153333075Y-103613803D01*
X153492718Y-103821851D01*
X153492726Y-103821860D01*
X153678140Y-104007274D01*
X153678148Y-104007281D01*
X153678149Y-104007282D01*
X153715508Y-104035949D01*
X153886196Y-104166924D01*
X154113299Y-104298041D01*
X154113309Y-104298046D01*
X154348196Y-104395339D01*
X154355581Y-104398398D01*
X154608884Y-104466270D01*
X154868880Y-104500500D01*
X154868887Y-104500500D01*
X155131113Y-104500500D01*
X155131120Y-104500500D01*
X155391116Y-104466270D01*
X155644419Y-104398398D01*
X155886697Y-104298043D01*
X156113803Y-104166924D01*
X156321851Y-104007282D01*
X156321855Y-104007277D01*
X156321860Y-104007274D01*
X156507274Y-103821860D01*
X156507277Y-103821855D01*
X156507282Y-103821851D01*
X156666924Y-103613803D01*
X156798043Y-103386697D01*
X156898398Y-103144419D01*
X156966270Y-102891116D01*
X157000500Y-102631120D01*
X157000500Y-102368880D01*
X156966270Y-102108884D01*
X156898398Y-101855581D01*
X156896901Y-101851966D01*
X156798046Y-101613309D01*
X156798041Y-101613299D01*
X156666924Y-101386196D01*
X156507281Y-101178148D01*
X156507274Y-101178140D01*
X156321860Y-100992726D01*
X156321851Y-100992718D01*
X156113803Y-100833075D01*
X155886700Y-100701958D01*
X155886690Y-100701953D01*
X155644428Y-100601605D01*
X155644421Y-100601603D01*
X155644419Y-100601602D01*
X155391116Y-100533730D01*
X155333339Y-100526123D01*
X155131127Y-100499500D01*
X155131120Y-100499500D01*
X154868880Y-100499500D01*
X154868872Y-100499500D01*
X154664559Y-100526400D01*
X154608884Y-100533730D01*
X154527764Y-100555466D01*
X154355581Y-100601602D01*
X154355571Y-100601605D01*
X154113309Y-100701953D01*
X154113299Y-100701958D01*
X153886196Y-100833075D01*
X153678148Y-100992718D01*
X153492718Y-101178148D01*
X153333075Y-101386196D01*
X153201958Y-101613299D01*
X153201953Y-101613309D01*
X153101605Y-101855571D01*
X153101602Y-101855581D01*
X153033730Y-102108884D01*
X153030950Y-102130000D01*
X152999500Y-102368872D01*
X148000500Y-102368872D01*
X148000500Y-84007882D01*
X151285669Y-84007882D01*
X151285670Y-84007883D01*
X151311059Y-84026329D01*
X151479362Y-84112085D01*
X151658997Y-84170451D01*
X151845553Y-84200000D01*
X152034447Y-84200000D01*
X152221002Y-84170451D01*
X152400637Y-84112085D01*
X152568937Y-84026331D01*
X152594328Y-84007883D01*
X152594328Y-84007882D01*
X151940001Y-83353554D01*
X151940000Y-83353554D01*
X151285669Y-84007882D01*
X148000500Y-84007882D01*
X148000500Y-82905552D01*
X150740000Y-82905552D01*
X150740000Y-83094447D01*
X150769548Y-83281002D01*
X150827914Y-83460637D01*
X150913666Y-83628933D01*
X150932116Y-83654328D01*
X151586446Y-83000000D01*
X151586446Y-82999999D01*
X151540369Y-82953922D01*
X151590000Y-82953922D01*
X151590000Y-83046078D01*
X151613852Y-83135095D01*
X151659930Y-83214905D01*
X151725095Y-83280070D01*
X151804905Y-83326148D01*
X151893922Y-83350000D01*
X151986078Y-83350000D01*
X152075095Y-83326148D01*
X152154905Y-83280070D01*
X152220070Y-83214905D01*
X152266148Y-83135095D01*
X152290000Y-83046078D01*
X152290000Y-82999999D01*
X152293554Y-82999999D01*
X152293554Y-83000000D01*
X152947882Y-83654328D01*
X152947883Y-83654328D01*
X152966331Y-83628937D01*
X153052085Y-83460637D01*
X153110451Y-83281002D01*
X153140000Y-83094447D01*
X153140000Y-82905552D01*
X153139994Y-82905513D01*
X158359500Y-82905513D01*
X158359500Y-83094486D01*
X158389059Y-83281118D01*
X158447454Y-83460836D01*
X158507774Y-83579219D01*
X158533240Y-83629199D01*
X158644310Y-83782073D01*
X158777927Y-83915690D01*
X158930801Y-84026760D01*
X159010347Y-84067290D01*
X159099163Y-84112545D01*
X159099165Y-84112545D01*
X159099168Y-84112547D01*
X159183684Y-84140008D01*
X159278881Y-84170940D01*
X159465514Y-84200500D01*
X159465519Y-84200500D01*
X159654486Y-84200500D01*
X159841118Y-84170940D01*
X159904025Y-84150500D01*
X160020832Y-84112547D01*
X160189199Y-84026760D01*
X160342073Y-83915690D01*
X160475690Y-83782073D01*
X160586760Y-83629199D01*
X160672547Y-83460832D01*
X160730940Y-83281118D01*
X160751749Y-83149735D01*
X160760500Y-83094486D01*
X160760500Y-82905513D01*
X160730940Y-82718881D01*
X160672545Y-82539163D01*
X160589409Y-82376000D01*
X160586760Y-82370801D01*
X160475690Y-82217927D01*
X160342073Y-82084310D01*
X160189199Y-81973240D01*
X160161016Y-81958880D01*
X160020836Y-81887454D01*
X159841118Y-81829059D01*
X159654486Y-81799500D01*
X159654481Y-81799500D01*
X159465519Y-81799500D01*
X159465514Y-81799500D01*
X159278881Y-81829059D01*
X159099163Y-81887454D01*
X158930800Y-81973240D01*
X158893969Y-82000000D01*
X158777927Y-82084310D01*
X158777925Y-82084312D01*
X158777924Y-82084312D01*
X158644312Y-82217924D01*
X158644312Y-82217925D01*
X158644310Y-82217927D01*
X158603745Y-82273760D01*
X158533240Y-82370800D01*
X158447454Y-82539163D01*
X158389059Y-82718881D01*
X158359500Y-82905513D01*
X153139994Y-82905513D01*
X153110451Y-82718997D01*
X153052085Y-82539362D01*
X152966329Y-82371059D01*
X152947883Y-82345670D01*
X152947882Y-82345669D01*
X152293554Y-82999999D01*
X152290000Y-82999999D01*
X152290000Y-82953922D01*
X152266148Y-82864905D01*
X152220070Y-82785095D01*
X152154905Y-82719930D01*
X152075095Y-82673852D01*
X151986078Y-82650000D01*
X151893922Y-82650000D01*
X151804905Y-82673852D01*
X151725095Y-82719930D01*
X151659930Y-82785095D01*
X151613852Y-82864905D01*
X151590000Y-82953922D01*
X151540369Y-82953922D01*
X150932116Y-82345669D01*
X150932116Y-82345670D01*
X150913669Y-82371060D01*
X150827914Y-82539362D01*
X150769548Y-82718997D01*
X150740000Y-82905552D01*
X148000500Y-82905552D01*
X148000500Y-81992116D01*
X151285669Y-81992116D01*
X151940000Y-82646446D01*
X151940001Y-82646446D01*
X152594328Y-81992116D01*
X152568933Y-81973666D01*
X152400637Y-81887914D01*
X152221002Y-81829548D01*
X152034447Y-81800000D01*
X151845553Y-81800000D01*
X151658997Y-81829548D01*
X151479362Y-81887914D01*
X151311060Y-81973669D01*
X151285670Y-81992116D01*
X151285669Y-81992116D01*
X148000500Y-81992116D01*
X148000500Y-81257882D01*
X155035669Y-81257882D01*
X155035670Y-81257883D01*
X155061059Y-81276329D01*
X155229362Y-81362085D01*
X155408997Y-81420451D01*
X155595553Y-81450000D01*
X155784447Y-81450000D01*
X155971002Y-81420451D01*
X156150637Y-81362085D01*
X156318937Y-81276331D01*
X156344328Y-81257883D01*
X156344328Y-81257882D01*
X155690001Y-80603554D01*
X155690000Y-80603554D01*
X155035669Y-81257882D01*
X148000500Y-81257882D01*
X148000500Y-80155552D01*
X154490000Y-80155552D01*
X154490000Y-80344447D01*
X154519548Y-80531002D01*
X154577914Y-80710637D01*
X154663666Y-80878933D01*
X154682116Y-80904328D01*
X155336446Y-80250000D01*
X155336446Y-80249999D01*
X155290369Y-80203922D01*
X155340000Y-80203922D01*
X155340000Y-80296078D01*
X155363852Y-80385095D01*
X155409930Y-80464905D01*
X155475095Y-80530070D01*
X155554905Y-80576148D01*
X155643922Y-80600000D01*
X155736078Y-80600000D01*
X155825095Y-80576148D01*
X155904905Y-80530070D01*
X155970070Y-80464905D01*
X156016148Y-80385095D01*
X156040000Y-80296078D01*
X156040000Y-80249999D01*
X156043554Y-80249999D01*
X156043554Y-80250000D01*
X156697882Y-80904328D01*
X156697883Y-80904328D01*
X156716331Y-80878937D01*
X156802085Y-80710637D01*
X156860451Y-80531002D01*
X156890000Y-80344447D01*
X156890000Y-80155552D01*
X156889994Y-80155513D01*
X162109500Y-80155513D01*
X162109500Y-80344486D01*
X162139059Y-80531118D01*
X162197454Y-80710836D01*
X162265577Y-80844534D01*
X162283240Y-80879199D01*
X162394310Y-81032073D01*
X162527927Y-81165690D01*
X162680801Y-81276760D01*
X162751469Y-81312767D01*
X162849163Y-81362545D01*
X162849165Y-81362545D01*
X162849168Y-81362547D01*
X162915147Y-81383985D01*
X163028881Y-81420940D01*
X163215514Y-81450500D01*
X163215519Y-81450500D01*
X163404486Y-81450500D01*
X163591118Y-81420940D01*
X163592623Y-81420451D01*
X163770832Y-81362547D01*
X163939199Y-81276760D01*
X163965182Y-81257882D01*
X167975669Y-81257882D01*
X167975670Y-81257883D01*
X168001059Y-81276329D01*
X168169362Y-81362085D01*
X168348997Y-81420451D01*
X168535553Y-81450000D01*
X168724447Y-81450000D01*
X168911002Y-81420451D01*
X169090637Y-81362085D01*
X169258937Y-81276331D01*
X169284328Y-81257883D01*
X169284328Y-81257882D01*
X168630001Y-80603554D01*
X168630000Y-80603554D01*
X167975669Y-81257882D01*
X163965182Y-81257882D01*
X164092073Y-81165690D01*
X164225690Y-81032073D01*
X164336760Y-80879199D01*
X164422547Y-80710832D01*
X164480940Y-80531118D01*
X164481106Y-80530070D01*
X164510500Y-80344486D01*
X164510500Y-80155552D01*
X167430000Y-80155552D01*
X167430000Y-80344447D01*
X167459548Y-80531002D01*
X167517914Y-80710637D01*
X167603666Y-80878933D01*
X167622116Y-80904328D01*
X168276446Y-80250000D01*
X168276446Y-80249999D01*
X168230369Y-80203922D01*
X168280000Y-80203922D01*
X168280000Y-80296078D01*
X168303852Y-80385095D01*
X168349930Y-80464905D01*
X168415095Y-80530070D01*
X168494905Y-80576148D01*
X168583922Y-80600000D01*
X168676078Y-80600000D01*
X168765095Y-80576148D01*
X168844905Y-80530070D01*
X168910070Y-80464905D01*
X168956148Y-80385095D01*
X168980000Y-80296078D01*
X168980000Y-80249999D01*
X168983554Y-80249999D01*
X168983554Y-80250000D01*
X169637882Y-80904328D01*
X169637883Y-80904328D01*
X169656331Y-80878937D01*
X169742085Y-80710637D01*
X169800451Y-80531002D01*
X169830000Y-80344447D01*
X169830000Y-80155552D01*
X169829994Y-80155513D01*
X175049500Y-80155513D01*
X175049500Y-80344486D01*
X175079059Y-80531118D01*
X175137454Y-80710836D01*
X175205577Y-80844534D01*
X175223240Y-80879199D01*
X175334310Y-81032073D01*
X175467927Y-81165690D01*
X175620801Y-81276760D01*
X175691469Y-81312767D01*
X175789163Y-81362545D01*
X175789165Y-81362545D01*
X175789168Y-81362547D01*
X175855147Y-81383985D01*
X175968881Y-81420940D01*
X176155514Y-81450500D01*
X176155519Y-81450500D01*
X176344486Y-81450500D01*
X176531118Y-81420940D01*
X176532623Y-81420451D01*
X176710832Y-81362547D01*
X176879199Y-81276760D01*
X177032073Y-81165690D01*
X177165690Y-81032073D01*
X177276760Y-80879199D01*
X177362547Y-80710832D01*
X177420940Y-80531118D01*
X177421106Y-80530070D01*
X177450500Y-80344486D01*
X177450500Y-80155513D01*
X177420940Y-79968881D01*
X177362545Y-79789163D01*
X177313438Y-79692786D01*
X177276760Y-79620801D01*
X177165690Y-79467927D01*
X177032073Y-79334310D01*
X176879199Y-79223240D01*
X176830752Y-79198555D01*
X176710836Y-79137454D01*
X176531118Y-79079059D01*
X176344486Y-79049500D01*
X176344481Y-79049500D01*
X176155519Y-79049500D01*
X176155514Y-79049500D01*
X175968881Y-79079059D01*
X175789163Y-79137454D01*
X175620800Y-79223240D01*
X175554345Y-79271523D01*
X175467927Y-79334310D01*
X175467925Y-79334312D01*
X175467924Y-79334312D01*
X175334312Y-79467924D01*
X175334312Y-79467925D01*
X175334310Y-79467927D01*
X175287094Y-79532914D01*
X175223240Y-79620800D01*
X175137454Y-79789163D01*
X175079059Y-79968881D01*
X175049500Y-80155513D01*
X169829994Y-80155513D01*
X169800451Y-79968997D01*
X169742085Y-79789362D01*
X169656329Y-79621059D01*
X169637883Y-79595670D01*
X169637882Y-79595669D01*
X168983554Y-80249999D01*
X168980000Y-80249999D01*
X168980000Y-80203922D01*
X168956148Y-80114905D01*
X168910070Y-80035095D01*
X168844905Y-79969930D01*
X168765095Y-79923852D01*
X168676078Y-79900000D01*
X168583922Y-79900000D01*
X168494905Y-79923852D01*
X168415095Y-79969930D01*
X168349930Y-80035095D01*
X168303852Y-80114905D01*
X168280000Y-80203922D01*
X168230369Y-80203922D01*
X167622116Y-79595669D01*
X167622116Y-79595670D01*
X167603669Y-79621060D01*
X167517914Y-79789362D01*
X167459548Y-79968997D01*
X167430000Y-80155552D01*
X164510500Y-80155552D01*
X164510500Y-80155513D01*
X164480940Y-79968881D01*
X164422545Y-79789163D01*
X164373438Y-79692786D01*
X164336760Y-79620801D01*
X164225690Y-79467927D01*
X164092073Y-79334310D01*
X163965179Y-79242116D01*
X167975669Y-79242116D01*
X168630000Y-79896446D01*
X168630001Y-79896446D01*
X169284328Y-79242116D01*
X169258933Y-79223666D01*
X169090637Y-79137914D01*
X168911002Y-79079548D01*
X168724447Y-79050000D01*
X168535553Y-79050000D01*
X168348997Y-79079548D01*
X168169362Y-79137914D01*
X168001060Y-79223669D01*
X167975670Y-79242116D01*
X167975669Y-79242116D01*
X163965179Y-79242116D01*
X163939199Y-79223240D01*
X163890752Y-79198555D01*
X163770836Y-79137454D01*
X163591118Y-79079059D01*
X163404486Y-79049500D01*
X163404481Y-79049500D01*
X163215519Y-79049500D01*
X163215514Y-79049500D01*
X163028881Y-79079059D01*
X162849163Y-79137454D01*
X162680800Y-79223240D01*
X162614345Y-79271523D01*
X162527927Y-79334310D01*
X162527925Y-79334312D01*
X162527924Y-79334312D01*
X162394312Y-79467924D01*
X162394312Y-79467925D01*
X162394310Y-79467927D01*
X162347094Y-79532914D01*
X162283240Y-79620800D01*
X162197454Y-79789163D01*
X162139059Y-79968881D01*
X162109500Y-80155513D01*
X156889994Y-80155513D01*
X156860451Y-79968997D01*
X156802085Y-79789362D01*
X156716329Y-79621059D01*
X156697883Y-79595670D01*
X156697882Y-79595669D01*
X156043554Y-80249999D01*
X156040000Y-80249999D01*
X156040000Y-80203922D01*
X156016148Y-80114905D01*
X155970070Y-80035095D01*
X155904905Y-79969930D01*
X155825095Y-79923852D01*
X155736078Y-79900000D01*
X155643922Y-79900000D01*
X155554905Y-79923852D01*
X155475095Y-79969930D01*
X155409930Y-80035095D01*
X155363852Y-80114905D01*
X155340000Y-80203922D01*
X155290369Y-80203922D01*
X154682116Y-79595669D01*
X154682116Y-79595670D01*
X154663669Y-79621060D01*
X154577914Y-79789362D01*
X154519548Y-79968997D01*
X154490000Y-80155552D01*
X148000500Y-80155552D01*
X148000500Y-79242116D01*
X155035669Y-79242116D01*
X155690000Y-79896446D01*
X155690001Y-79896446D01*
X156344328Y-79242116D01*
X156318933Y-79223666D01*
X156150637Y-79137914D01*
X155971002Y-79079548D01*
X155784447Y-79050000D01*
X155595553Y-79050000D01*
X155408997Y-79079548D01*
X155229362Y-79137914D01*
X155061060Y-79223669D01*
X155035670Y-79242116D01*
X155035669Y-79242116D01*
X148000500Y-79242116D01*
X148000500Y-76868052D01*
X152760000Y-76868052D01*
X152796934Y-77101247D01*
X152869897Y-77325802D01*
X152977085Y-77536171D01*
X153115866Y-77727186D01*
X153282813Y-77894133D01*
X153473828Y-78032914D01*
X153684195Y-78140102D01*
X153908744Y-78213063D01*
X153908750Y-78213065D01*
X154010000Y-78229101D01*
X154010000Y-76750000D01*
X152760000Y-76750000D01*
X152760000Y-76868052D01*
X148000500Y-76868052D01*
X148000500Y-76447339D01*
X154060000Y-76447339D01*
X154060000Y-76552661D01*
X154087259Y-76654394D01*
X154139920Y-76745606D01*
X154214394Y-76820080D01*
X154305606Y-76872741D01*
X154407339Y-76900000D01*
X154510000Y-76900000D01*
X154510000Y-78229101D01*
X154611249Y-78213065D01*
X154611255Y-78213063D01*
X154835804Y-78140102D01*
X155046171Y-78032914D01*
X155237186Y-77894133D01*
X155404133Y-77727186D01*
X155542919Y-77536164D01*
X155545460Y-77532019D01*
X155546566Y-77532696D01*
X155590432Y-77486220D01*
X155658247Y-77469401D01*
X155724390Y-77491916D01*
X155763463Y-77536993D01*
X155781229Y-77571860D01*
X155913073Y-77753326D01*
X155913073Y-77753327D01*
X156071672Y-77911926D01*
X156253136Y-78043768D01*
X156452989Y-78145599D01*
X156452992Y-78145600D01*
X156666310Y-78214910D01*
X156750000Y-78228166D01*
X156750000Y-76815686D01*
X156754394Y-76820080D01*
X156845606Y-76872741D01*
X156947339Y-76900000D01*
X157052661Y-76900000D01*
X157154394Y-76872741D01*
X157245606Y-76820080D01*
X157250000Y-76815686D01*
X157250000Y-78228165D01*
X157333689Y-78214910D01*
X157547007Y-78145600D01*
X157547010Y-78145599D01*
X157746863Y-78043768D01*
X157928326Y-77911926D01*
X157928327Y-77911926D01*
X158086926Y-77753327D01*
X158086926Y-77753326D01*
X158218768Y-77571863D01*
X158236253Y-77537547D01*
X158284227Y-77486750D01*
X158352048Y-77469954D01*
X158418183Y-77492490D01*
X158453163Y-77532862D01*
X158454112Y-77532281D01*
X158456652Y-77536426D01*
X158456656Y-77536432D01*
X158456657Y-77536433D01*
X158595483Y-77727510D01*
X158762490Y-77894517D01*
X158953567Y-78033343D01*
X158991481Y-78052661D01*
X159164003Y-78140566D01*
X159164005Y-78140566D01*
X159164008Y-78140568D01*
X159280563Y-78178439D01*
X159388631Y-78213553D01*
X159621903Y-78250500D01*
X159621908Y-78250500D01*
X159858097Y-78250500D01*
X160091368Y-78213553D01*
X160092876Y-78213063D01*
X160315992Y-78140568D01*
X160526433Y-78033343D01*
X160717510Y-77894517D01*
X160884517Y-77727510D01*
X161023343Y-77536433D01*
X161130568Y-77325992D01*
X161146590Y-77276680D01*
X161186028Y-77219006D01*
X161250387Y-77191808D01*
X161264521Y-77191000D01*
X162618483Y-77191000D01*
X162685522Y-77210685D01*
X162687373Y-77211898D01*
X162821557Y-77301556D01*
X162821556Y-77301556D01*
X162862185Y-77318385D01*
X162986167Y-77369740D01*
X162986171Y-77369740D01*
X162986172Y-77369741D01*
X163160912Y-77404500D01*
X163160915Y-77404500D01*
X163339087Y-77404500D01*
X163463183Y-77379815D01*
X163513833Y-77369740D01*
X163678441Y-77301557D01*
X163826585Y-77202571D01*
X163952571Y-77076585D01*
X164051557Y-76928441D01*
X164076571Y-76868052D01*
X166760000Y-76868052D01*
X166796934Y-77101247D01*
X166869897Y-77325802D01*
X166977085Y-77536171D01*
X167115866Y-77727186D01*
X167282813Y-77894133D01*
X167473828Y-78032914D01*
X167684195Y-78140102D01*
X167908744Y-78213063D01*
X167908750Y-78213065D01*
X168010000Y-78229101D01*
X168010000Y-76750000D01*
X166760000Y-76750000D01*
X166760000Y-76868052D01*
X164076571Y-76868052D01*
X164119740Y-76763833D01*
X164124165Y-76741585D01*
X164137521Y-76674446D01*
X164137521Y-76674445D01*
X164154499Y-76589089D01*
X164154500Y-76589087D01*
X164154500Y-76410912D01*
X164119741Y-76236172D01*
X164119740Y-76236171D01*
X164119740Y-76236167D01*
X164051557Y-76071559D01*
X163952571Y-75923415D01*
X163952569Y-75923412D01*
X163826587Y-75797430D01*
X163695737Y-75710000D01*
X163678441Y-75698443D01*
X163513833Y-75630260D01*
X163513827Y-75630258D01*
X163339087Y-75595500D01*
X163339085Y-75595500D01*
X163160915Y-75595500D01*
X163160913Y-75595500D01*
X162986172Y-75630258D01*
X162986166Y-75630260D01*
X162821556Y-75698443D01*
X162687373Y-75788102D01*
X162620696Y-75808980D01*
X162618483Y-75809000D01*
X161264521Y-75809000D01*
X161197482Y-75789315D01*
X161151727Y-75736511D01*
X161146590Y-75723319D01*
X161130568Y-75674008D01*
X161130566Y-75674005D01*
X161130566Y-75674003D01*
X161056218Y-75528088D01*
X161023343Y-75463567D01*
X160884517Y-75272490D01*
X160717510Y-75105483D01*
X160526433Y-74966657D01*
X160503977Y-74955215D01*
X160315996Y-74859433D01*
X160091368Y-74786446D01*
X159858097Y-74749500D01*
X159858092Y-74749500D01*
X159621908Y-74749500D01*
X159621903Y-74749500D01*
X159388631Y-74786446D01*
X159164003Y-74859433D01*
X158953566Y-74966657D01*
X158865501Y-75030641D01*
X158762490Y-75105483D01*
X158762488Y-75105485D01*
X158762487Y-75105485D01*
X158595485Y-75272487D01*
X158595485Y-75272488D01*
X158595483Y-75272490D01*
X158559555Y-75321941D01*
X158456652Y-75463573D01*
X158454112Y-75467719D01*
X158452934Y-75466997D01*
X158409243Y-75513254D01*
X158341421Y-75530045D01*
X158275287Y-75507503D01*
X158236254Y-75462453D01*
X158218770Y-75428138D01*
X158086926Y-75246673D01*
X158086926Y-75246672D01*
X157928327Y-75088073D01*
X157746863Y-74956231D01*
X157547010Y-74854400D01*
X157547007Y-74854399D01*
X157333684Y-74785088D01*
X157250000Y-74771833D01*
X157250000Y-76184314D01*
X157245606Y-76179920D01*
X157154394Y-76127259D01*
X157052661Y-76100000D01*
X156947339Y-76100000D01*
X156845606Y-76127259D01*
X156754394Y-76179920D01*
X156750000Y-76184314D01*
X156750000Y-74771833D01*
X156749999Y-74771833D01*
X156666315Y-74785088D01*
X156452992Y-74854399D01*
X156452989Y-74854400D01*
X156253136Y-74956231D01*
X156071673Y-75088073D01*
X156071672Y-75088073D01*
X155913073Y-75246672D01*
X155913073Y-75246673D01*
X155781229Y-75428139D01*
X155763462Y-75463007D01*
X155715486Y-75513802D01*
X155647665Y-75530595D01*
X155581530Y-75508055D01*
X155546342Y-75467440D01*
X155545460Y-75467981D01*
X155542919Y-75463835D01*
X155404133Y-75272813D01*
X155237186Y-75105866D01*
X155046171Y-74967085D01*
X154835802Y-74859897D01*
X154611247Y-74786934D01*
X154510000Y-74770897D01*
X154510000Y-76100000D01*
X154407339Y-76100000D01*
X154305606Y-76127259D01*
X154214394Y-76179920D01*
X154139920Y-76254394D01*
X154087259Y-76345606D01*
X154060000Y-76447339D01*
X148000500Y-76447339D01*
X148000500Y-76131947D01*
X152760000Y-76131947D01*
X152760000Y-76250000D01*
X154010000Y-76250000D01*
X154010000Y-74770897D01*
X153908752Y-74786934D01*
X153684197Y-74859897D01*
X153473828Y-74967085D01*
X153282813Y-75105866D01*
X153115866Y-75272813D01*
X152977085Y-75463828D01*
X152869897Y-75674197D01*
X152796934Y-75898752D01*
X152760000Y-76131947D01*
X148000500Y-76131947D01*
X148000500Y-70868052D01*
X152760000Y-70868052D01*
X152796934Y-71101247D01*
X152869897Y-71325802D01*
X152977085Y-71536171D01*
X153115866Y-71727186D01*
X153282813Y-71894133D01*
X153473828Y-72032914D01*
X153684195Y-72140102D01*
X153908744Y-72213063D01*
X153908750Y-72213065D01*
X154010000Y-72229101D01*
X154010000Y-70750000D01*
X152760000Y-70750000D01*
X152760000Y-70868052D01*
X148000500Y-70868052D01*
X148000500Y-70131947D01*
X152760000Y-70131947D01*
X152760000Y-70250000D01*
X154010000Y-70250000D01*
X154010000Y-68770897D01*
X153908752Y-68786934D01*
X153684197Y-68859897D01*
X153473828Y-68967085D01*
X153282813Y-69105866D01*
X153115866Y-69272813D01*
X152977085Y-69463828D01*
X152869897Y-69674197D01*
X152796934Y-69898752D01*
X152760000Y-70131947D01*
X148000500Y-70131947D01*
X148000500Y-59205648D01*
X153236500Y-59205648D01*
X153236500Y-59464351D01*
X153276967Y-59719850D01*
X153276968Y-59719854D01*
X153356909Y-59965885D01*
X153474353Y-60196382D01*
X153626408Y-60405668D01*
X153809332Y-60588592D01*
X154018618Y-60740647D01*
X154249115Y-60858091D01*
X154495146Y-60938032D01*
X154590961Y-60953207D01*
X154750649Y-60978500D01*
X154750654Y-60978500D01*
X155009351Y-60978500D01*
X155151294Y-60956017D01*
X155264854Y-60938032D01*
X155510885Y-60858091D01*
X155741382Y-60740647D01*
X155950668Y-60588592D01*
X156133592Y-60405668D01*
X156285647Y-60196382D01*
X156403091Y-59965885D01*
X156483032Y-59719854D01*
X156516807Y-59506605D01*
X156523500Y-59464351D01*
X156523500Y-59205648D01*
X156496521Y-59035315D01*
X156483032Y-58950146D01*
X156403091Y-58704115D01*
X156285647Y-58473618D01*
X156133592Y-58264332D01*
X155950668Y-58081408D01*
X155741382Y-57929353D01*
X155510885Y-57811909D01*
X155264854Y-57731968D01*
X155264852Y-57731967D01*
X155264850Y-57731967D01*
X155009351Y-57691500D01*
X155009346Y-57691500D01*
X154750654Y-57691500D01*
X154750649Y-57691500D01*
X154495149Y-57731967D01*
X154249112Y-57811910D01*
X154018617Y-57929353D01*
X153809329Y-58081410D01*
X153626410Y-58264329D01*
X153474353Y-58473617D01*
X153356910Y-58704112D01*
X153276967Y-58950149D01*
X153236500Y-59205648D01*
X148000500Y-59205648D01*
X148000500Y-45870648D01*
X153236500Y-45870648D01*
X153236500Y-46129351D01*
X153269104Y-46335202D01*
X153276968Y-46384854D01*
X153356909Y-46630885D01*
X153474353Y-46861382D01*
X153626408Y-47070668D01*
X153809332Y-47253592D01*
X154018618Y-47405647D01*
X154249115Y-47523091D01*
X154495146Y-47603032D01*
X154590961Y-47618207D01*
X154750649Y-47643500D01*
X154750654Y-47643500D01*
X155009351Y-47643500D01*
X155151294Y-47621017D01*
X155264854Y-47603032D01*
X155510885Y-47523091D01*
X155741382Y-47405647D01*
X155950668Y-47253592D01*
X156133592Y-47070668D01*
X156285647Y-46861382D01*
X156403091Y-46630885D01*
X156483032Y-46384854D01*
X156518249Y-46162500D01*
X156523499Y-46129355D01*
X156523500Y-46129347D01*
X156523500Y-45870648D01*
X156483032Y-45615149D01*
X156483032Y-45615146D01*
X156403091Y-45369115D01*
X156285647Y-45138618D01*
X156140023Y-44938183D01*
X157936000Y-44938183D01*
X157936000Y-45156816D01*
X157970202Y-45372759D01*
X158037761Y-45580688D01*
X158037762Y-45580691D01*
X158137020Y-45775493D01*
X158137021Y-45775495D01*
X158181806Y-45837138D01*
X158181807Y-45837138D01*
X158882861Y-45136084D01*
X158905667Y-45221194D01*
X158964910Y-45323806D01*
X159048694Y-45407590D01*
X159151306Y-45466833D01*
X159236414Y-45489637D01*
X158535360Y-46190691D01*
X158597008Y-46235480D01*
X158791808Y-46334737D01*
X158791811Y-46334738D01*
X158999740Y-46402297D01*
X159215684Y-46436500D01*
X159434316Y-46436500D01*
X159650259Y-46402297D01*
X159858188Y-46334738D01*
X159858191Y-46334737D01*
X160052995Y-46235478D01*
X160114638Y-46190691D01*
X160114639Y-46190691D01*
X159413585Y-45489638D01*
X159498694Y-45466833D01*
X159601306Y-45407590D01*
X159685090Y-45323806D01*
X159744333Y-45221194D01*
X159767138Y-45136085D01*
X160468191Y-45837139D01*
X160468191Y-45837138D01*
X160512978Y-45775495D01*
X160612237Y-45580691D01*
X160612238Y-45580688D01*
X160679797Y-45372759D01*
X160714000Y-45156816D01*
X160714000Y-44938183D01*
X160713993Y-44938138D01*
X164285500Y-44938138D01*
X164285500Y-45156861D01*
X164319714Y-45372876D01*
X164387297Y-45580880D01*
X164387298Y-45580883D01*
X164454361Y-45712499D01*
X164486592Y-45775756D01*
X164486595Y-45775760D01*
X164615142Y-45952693D01*
X164769806Y-46107357D01*
X164884508Y-46190691D01*
X164946743Y-46235907D01*
X165074132Y-46300815D01*
X165141616Y-46335201D01*
X165141619Y-46335202D01*
X165245621Y-46368993D01*
X165349625Y-46402786D01*
X165449672Y-46418632D01*
X165565639Y-46437000D01*
X165565644Y-46437000D01*
X165784361Y-46437000D01*
X165889082Y-46420412D01*
X166000375Y-46402786D01*
X166208383Y-46335201D01*
X166403257Y-46235907D01*
X166546504Y-46131833D01*
X166580193Y-46107357D01*
X166580195Y-46107354D01*
X166580199Y-46107352D01*
X166734852Y-45952699D01*
X166794465Y-45870648D01*
X168476500Y-45870648D01*
X168476500Y-46129351D01*
X168509104Y-46335202D01*
X168516968Y-46384854D01*
X168596909Y-46630885D01*
X168714353Y-46861382D01*
X168866408Y-47070668D01*
X169049332Y-47253592D01*
X169258618Y-47405647D01*
X169489115Y-47523091D01*
X169735146Y-47603032D01*
X169830961Y-47618207D01*
X169990649Y-47643500D01*
X169990654Y-47643500D01*
X170249351Y-47643500D01*
X170391294Y-47621017D01*
X170504854Y-47603032D01*
X170750885Y-47523091D01*
X170981382Y-47405647D01*
X171190668Y-47253592D01*
X171373592Y-47070668D01*
X171525647Y-46861382D01*
X171643091Y-46630885D01*
X171723032Y-46384854D01*
X171745073Y-46245691D01*
X171763500Y-46129351D01*
X171763500Y-45870648D01*
X171723032Y-45615149D01*
X171723032Y-45615146D01*
X171643091Y-45369115D01*
X171525647Y-45138618D01*
X171373592Y-44929332D01*
X171190668Y-44746408D01*
X170981382Y-44594353D01*
X170750885Y-44476909D01*
X170504854Y-44396968D01*
X170504852Y-44396967D01*
X170504850Y-44396967D01*
X170249351Y-44356500D01*
X170249346Y-44356500D01*
X169990654Y-44356500D01*
X169990649Y-44356500D01*
X169735149Y-44396967D01*
X169489112Y-44476910D01*
X169258617Y-44594353D01*
X169049329Y-44746410D01*
X168866410Y-44929329D01*
X168714353Y-45138617D01*
X168596910Y-45369112D01*
X168516967Y-45615149D01*
X168476500Y-45870648D01*
X166794465Y-45870648D01*
X166863407Y-45775757D01*
X166962701Y-45580883D01*
X167030286Y-45372875D01*
X167054310Y-45221194D01*
X167064500Y-45156861D01*
X167064500Y-44938138D01*
X167043777Y-44807306D01*
X167030286Y-44722125D01*
X166966082Y-44524523D01*
X166962702Y-44514119D01*
X166962701Y-44514116D01*
X166903010Y-44396968D01*
X166863407Y-44319243D01*
X166818810Y-44257860D01*
X166734857Y-44142306D01*
X166580193Y-43987642D01*
X166403260Y-43859095D01*
X166403259Y-43859094D01*
X166403257Y-43859093D01*
X166340825Y-43827282D01*
X166208383Y-43759798D01*
X166208380Y-43759797D01*
X166000376Y-43692214D01*
X165784361Y-43658000D01*
X165784356Y-43658000D01*
X165565644Y-43658000D01*
X165565639Y-43658000D01*
X165349623Y-43692214D01*
X165141619Y-43759797D01*
X165141616Y-43759798D01*
X164946739Y-43859095D01*
X164769806Y-43987642D01*
X164615142Y-44142306D01*
X164486595Y-44319239D01*
X164387298Y-44514116D01*
X164387297Y-44514119D01*
X164319714Y-44722123D01*
X164285500Y-44938138D01*
X160713993Y-44938138D01*
X160679797Y-44722240D01*
X160612238Y-44514311D01*
X160612237Y-44514308D01*
X160512980Y-44319508D01*
X160468191Y-44257860D01*
X159767137Y-44958914D01*
X159744333Y-44873806D01*
X159685090Y-44771194D01*
X159601306Y-44687410D01*
X159498694Y-44628167D01*
X159413583Y-44605361D01*
X160114638Y-43904307D01*
X160114638Y-43904306D01*
X160052995Y-43859521D01*
X160052993Y-43859520D01*
X159858191Y-43760262D01*
X159858188Y-43760261D01*
X159650259Y-43692702D01*
X159434316Y-43658500D01*
X159215684Y-43658500D01*
X158999740Y-43692702D01*
X158791811Y-43760261D01*
X158791808Y-43760262D01*
X158597001Y-43859523D01*
X158535360Y-43904306D01*
X158535360Y-43904307D01*
X159236414Y-44605361D01*
X159151306Y-44628167D01*
X159048694Y-44687410D01*
X158964910Y-44771194D01*
X158905667Y-44873806D01*
X158882861Y-44958914D01*
X158181807Y-44257860D01*
X158181806Y-44257860D01*
X158137023Y-44319501D01*
X158037762Y-44514308D01*
X158037761Y-44514311D01*
X157970202Y-44722240D01*
X157936000Y-44938183D01*
X156140023Y-44938183D01*
X156133592Y-44929332D01*
X155950668Y-44746408D01*
X155741382Y-44594353D01*
X155510885Y-44476909D01*
X155264854Y-44396968D01*
X155264852Y-44396967D01*
X155264850Y-44396967D01*
X155009351Y-44356500D01*
X155009346Y-44356500D01*
X154750654Y-44356500D01*
X154750649Y-44356500D01*
X154495149Y-44396967D01*
X154249112Y-44476910D01*
X154018617Y-44594353D01*
X153809329Y-44746410D01*
X153626410Y-44929329D01*
X153474353Y-45138617D01*
X153356910Y-45369112D01*
X153276967Y-45615149D01*
X153236500Y-45870648D01*
X148000500Y-45870648D01*
X148000500Y-39858138D01*
X157935500Y-39858138D01*
X157935500Y-40076861D01*
X157969714Y-40292876D01*
X158037297Y-40500880D01*
X158037298Y-40500883D01*
X158136595Y-40695760D01*
X158265142Y-40872693D01*
X158419806Y-41027357D01*
X158585374Y-41147647D01*
X158596743Y-41155907D01*
X158689252Y-41203043D01*
X158791616Y-41255201D01*
X158791619Y-41255202D01*
X158895621Y-41288993D01*
X158999625Y-41322786D01*
X159099672Y-41338632D01*
X159215639Y-41357000D01*
X159215644Y-41357000D01*
X159434361Y-41357000D01*
X159539082Y-41340412D01*
X159650375Y-41322786D01*
X159858383Y-41255201D01*
X160053257Y-41155907D01*
X160152601Y-41083729D01*
X160230193Y-41027357D01*
X160230195Y-41027354D01*
X160230199Y-41027352D01*
X160384852Y-40872699D01*
X160384854Y-40872695D01*
X160384857Y-40872693D01*
X160441229Y-40795101D01*
X160513407Y-40695757D01*
X160612701Y-40500883D01*
X160680286Y-40292875D01*
X160709216Y-40110220D01*
X160714500Y-40076861D01*
X160714500Y-39858138D01*
X164285500Y-39858138D01*
X164285500Y-40076861D01*
X164319714Y-40292876D01*
X164387297Y-40500880D01*
X164387298Y-40500883D01*
X164486595Y-40695760D01*
X164615142Y-40872693D01*
X164769806Y-41027357D01*
X164935374Y-41147647D01*
X164946743Y-41155907D01*
X165039252Y-41203043D01*
X165141616Y-41255201D01*
X165141619Y-41255202D01*
X165245621Y-41288993D01*
X165349625Y-41322786D01*
X165449672Y-41338632D01*
X165565639Y-41357000D01*
X165565644Y-41357000D01*
X165784361Y-41357000D01*
X165889082Y-41340412D01*
X166000375Y-41322786D01*
X166208383Y-41255201D01*
X166403257Y-41155907D01*
X166502601Y-41083729D01*
X166580193Y-41027357D01*
X166580195Y-41027354D01*
X166580199Y-41027352D01*
X166734852Y-40872699D01*
X166734854Y-40872695D01*
X166734857Y-40872693D01*
X166791229Y-40795101D01*
X166863407Y-40695757D01*
X166962701Y-40500883D01*
X167030286Y-40292875D01*
X167059216Y-40110220D01*
X167064500Y-40076861D01*
X167064500Y-39858138D01*
X167043777Y-39727306D01*
X167030286Y-39642125D01*
X166965943Y-39444095D01*
X166962702Y-39434119D01*
X166962699Y-39434111D01*
X166907672Y-39326117D01*
X166907671Y-39326116D01*
X166896912Y-39305000D01*
X166881051Y-39273872D01*
X177094500Y-39273872D01*
X177094500Y-39536127D01*
X177108456Y-39642125D01*
X177128730Y-39796116D01*
X177190732Y-40027510D01*
X177196602Y-40049418D01*
X177196605Y-40049428D01*
X177296953Y-40291690D01*
X177296958Y-40291700D01*
X177428075Y-40518803D01*
X177587718Y-40726851D01*
X177587726Y-40726860D01*
X177773140Y-40912274D01*
X177773148Y-40912281D01*
X177981196Y-41071924D01*
X178208299Y-41203041D01*
X178208309Y-41203046D01*
X178450571Y-41303394D01*
X178450581Y-41303398D01*
X178703884Y-41371270D01*
X178963880Y-41405500D01*
X178963887Y-41405500D01*
X179226113Y-41405500D01*
X179226120Y-41405500D01*
X179486116Y-41371270D01*
X179739419Y-41303398D01*
X179981697Y-41203043D01*
X180208803Y-41071924D01*
X180416851Y-40912282D01*
X180416855Y-40912277D01*
X180416860Y-40912274D01*
X180602274Y-40726860D01*
X180602277Y-40726855D01*
X180602282Y-40726851D01*
X180761924Y-40518803D01*
X180893043Y-40291697D01*
X180993398Y-40049419D01*
X181061270Y-39796116D01*
X181095500Y-39536120D01*
X181095500Y-39273880D01*
X181061270Y-39013884D01*
X180993398Y-38760581D01*
X180951485Y-38659394D01*
X180893046Y-38518309D01*
X180893041Y-38518299D01*
X180761924Y-38291196D01*
X180602281Y-38083148D01*
X180602274Y-38083140D01*
X180416860Y-37897726D01*
X180416851Y-37897718D01*
X180208803Y-37738075D01*
X179981700Y-37606958D01*
X179981690Y-37606953D01*
X179739428Y-37506605D01*
X179739421Y-37506603D01*
X179739419Y-37506602D01*
X179486116Y-37438730D01*
X179428339Y-37431123D01*
X179226127Y-37404500D01*
X179226120Y-37404500D01*
X178963880Y-37404500D01*
X178963872Y-37404500D01*
X178732772Y-37434926D01*
X178703884Y-37438730D01*
X178450581Y-37506602D01*
X178450571Y-37506605D01*
X178208309Y-37606953D01*
X178208299Y-37606958D01*
X177981196Y-37738075D01*
X177773148Y-37897718D01*
X177587718Y-38083148D01*
X177428075Y-38291196D01*
X177296958Y-38518299D01*
X177296953Y-38518309D01*
X177196605Y-38760571D01*
X177196602Y-38760581D01*
X177128730Y-39013885D01*
X177094500Y-39273872D01*
X166881051Y-39273872D01*
X166863407Y-39239243D01*
X166841822Y-39209534D01*
X166734857Y-39062306D01*
X166580193Y-38907642D01*
X166403260Y-38779095D01*
X166403259Y-38779094D01*
X166403257Y-38779093D01*
X166340825Y-38747282D01*
X166208383Y-38679798D01*
X166208380Y-38679797D01*
X166000376Y-38612214D01*
X165784361Y-38578000D01*
X165784356Y-38578000D01*
X165565644Y-38578000D01*
X165565639Y-38578000D01*
X165349623Y-38612214D01*
X165141619Y-38679797D01*
X165141616Y-38679798D01*
X164946739Y-38779095D01*
X164769806Y-38907642D01*
X164615142Y-39062306D01*
X164486595Y-39239239D01*
X164387298Y-39434116D01*
X164387297Y-39434119D01*
X164319714Y-39642123D01*
X164285500Y-39858138D01*
X160714500Y-39858138D01*
X160693777Y-39727306D01*
X160680286Y-39642125D01*
X160615943Y-39444095D01*
X160612702Y-39434119D01*
X160612701Y-39434116D01*
X160546912Y-39305000D01*
X160513407Y-39239243D01*
X160491822Y-39209534D01*
X160384857Y-39062306D01*
X160230193Y-38907642D01*
X160053260Y-38779095D01*
X160053259Y-38779094D01*
X160053257Y-38779093D01*
X159990825Y-38747282D01*
X159858383Y-38679798D01*
X159858380Y-38679797D01*
X159650376Y-38612214D01*
X159434361Y-38578000D01*
X159434356Y-38578000D01*
X159215644Y-38578000D01*
X159215639Y-38578000D01*
X158999623Y-38612214D01*
X158791619Y-38679797D01*
X158791616Y-38679798D01*
X158596739Y-38779095D01*
X158419806Y-38907642D01*
X158265142Y-39062306D01*
X158136595Y-39239239D01*
X158037298Y-39434116D01*
X158037297Y-39434119D01*
X157969714Y-39642123D01*
X157935500Y-39858138D01*
X148000500Y-39858138D01*
X148000500Y-35002214D01*
X148000579Y-34997788D01*
X148005183Y-34868872D01*
X152999500Y-34868872D01*
X152999500Y-35131127D01*
X153026123Y-35333339D01*
X153033730Y-35391116D01*
X153101602Y-35644418D01*
X153101605Y-35644428D01*
X153201953Y-35886690D01*
X153201958Y-35886700D01*
X153333075Y-36113803D01*
X153492718Y-36321851D01*
X153492726Y-36321860D01*
X153678140Y-36507274D01*
X153678148Y-36507281D01*
X153886196Y-36666924D01*
X154113299Y-36798041D01*
X154113309Y-36798046D01*
X154355571Y-36898394D01*
X154355581Y-36898398D01*
X154608884Y-36966270D01*
X154868880Y-37000500D01*
X154868887Y-37000500D01*
X155131113Y-37000500D01*
X155131120Y-37000500D01*
X155391116Y-36966270D01*
X155644419Y-36898398D01*
X155886697Y-36798043D01*
X156113803Y-36666924D01*
X156321851Y-36507282D01*
X156321855Y-36507277D01*
X156321860Y-36507274D01*
X156507274Y-36321860D01*
X156507277Y-36321855D01*
X156507282Y-36321851D01*
X156666924Y-36113803D01*
X156798043Y-35886697D01*
X156898398Y-35644419D01*
X156966270Y-35391116D01*
X157000500Y-35131120D01*
X157000500Y-34868880D01*
X157000499Y-34868872D01*
X222999500Y-34868872D01*
X222999500Y-35131127D01*
X223026123Y-35333339D01*
X223033730Y-35391116D01*
X223101602Y-35644418D01*
X223101605Y-35644428D01*
X223201953Y-35886690D01*
X223201958Y-35886700D01*
X223333075Y-36113803D01*
X223492718Y-36321851D01*
X223492726Y-36321860D01*
X223678140Y-36507274D01*
X223678148Y-36507281D01*
X223886196Y-36666924D01*
X224113299Y-36798041D01*
X224113309Y-36798046D01*
X224355571Y-36898394D01*
X224355581Y-36898398D01*
X224608884Y-36966270D01*
X224868880Y-37000500D01*
X224868887Y-37000500D01*
X225131113Y-37000500D01*
X225131120Y-37000500D01*
X225391116Y-36966270D01*
X225644419Y-36898398D01*
X225886697Y-36798043D01*
X226113803Y-36666924D01*
X226321851Y-36507282D01*
X226321855Y-36507277D01*
X226321860Y-36507274D01*
X226507274Y-36321860D01*
X226507277Y-36321855D01*
X226507282Y-36321851D01*
X226666924Y-36113803D01*
X226798043Y-35886697D01*
X226898398Y-35644419D01*
X226966270Y-35391116D01*
X227000500Y-35131120D01*
X227000500Y-34868880D01*
X226966270Y-34608884D01*
X226898398Y-34355581D01*
X226898394Y-34355571D01*
X226798046Y-34113309D01*
X226798041Y-34113299D01*
X226666924Y-33886196D01*
X226507281Y-33678148D01*
X226507274Y-33678140D01*
X226321860Y-33492726D01*
X226321851Y-33492718D01*
X226113803Y-33333075D01*
X225886700Y-33201958D01*
X225886690Y-33201953D01*
X225644428Y-33101605D01*
X225644421Y-33101603D01*
X225644419Y-33101602D01*
X225391116Y-33033730D01*
X225333339Y-33026123D01*
X225131127Y-32999500D01*
X225131120Y-32999500D01*
X224868880Y-32999500D01*
X224868872Y-32999500D01*
X224637772Y-33029926D01*
X224608884Y-33033730D01*
X224355581Y-33101602D01*
X224355571Y-33101605D01*
X224113309Y-33201953D01*
X224113299Y-33201958D01*
X223886196Y-33333075D01*
X223678148Y-33492718D01*
X223492718Y-33678148D01*
X223333075Y-33886196D01*
X223201958Y-34113299D01*
X223201953Y-34113309D01*
X223101605Y-34355571D01*
X223101602Y-34355581D01*
X223033730Y-34608885D01*
X222999500Y-34868872D01*
X157000499Y-34868872D01*
X156966270Y-34608884D01*
X156898398Y-34355581D01*
X156898394Y-34355571D01*
X156798046Y-34113309D01*
X156798041Y-34113299D01*
X156666924Y-33886196D01*
X156507281Y-33678148D01*
X156507274Y-33678140D01*
X156321860Y-33492726D01*
X156321851Y-33492718D01*
X156113803Y-33333075D01*
X155886700Y-33201958D01*
X155886690Y-33201953D01*
X155644428Y-33101605D01*
X155644421Y-33101603D01*
X155644419Y-33101602D01*
X155391116Y-33033730D01*
X155333339Y-33026123D01*
X155131127Y-32999500D01*
X155131120Y-32999500D01*
X154868880Y-32999500D01*
X154868872Y-32999500D01*
X154637772Y-33029926D01*
X154608884Y-33033730D01*
X154355581Y-33101602D01*
X154355571Y-33101605D01*
X154113309Y-33201953D01*
X154113299Y-33201958D01*
X153886196Y-33333075D01*
X153678148Y-33492718D01*
X153492718Y-33678148D01*
X153333075Y-33886196D01*
X153201958Y-34113299D01*
X153201953Y-34113309D01*
X153101605Y-34355571D01*
X153101602Y-34355581D01*
X153033730Y-34608885D01*
X152999500Y-34868872D01*
X148005183Y-34868872D01*
X148005486Y-34860395D01*
X148010261Y-34726695D01*
X148018176Y-34505073D01*
X148018804Y-34496284D01*
X148071274Y-34008240D01*
X148072527Y-33999532D01*
X148159680Y-33516473D01*
X148161551Y-33507877D01*
X148282940Y-33032278D01*
X148285421Y-33023829D01*
X148440423Y-32558121D01*
X148443512Y-32549839D01*
X148631335Y-32096397D01*
X148635012Y-32088346D01*
X148691837Y-31974822D01*
X148854714Y-31649436D01*
X148858924Y-31641724D01*
X149109409Y-31219554D01*
X149114155Y-31212170D01*
X149394087Y-30808992D01*
X149399387Y-30801912D01*
X149554401Y-30609551D01*
X149707369Y-30419728D01*
X149713131Y-30413079D01*
X150047595Y-30053839D01*
X150053839Y-30047595D01*
X150413079Y-29713131D01*
X150419728Y-29707369D01*
X150801918Y-29399382D01*
X150808998Y-29394083D01*
X150887624Y-29339492D01*
X151212170Y-29114155D01*
X151219554Y-29109409D01*
X151641724Y-28858924D01*
X151649436Y-28854714D01*
X151974822Y-28691837D01*
X152088346Y-28635012D01*
X152096397Y-28631335D01*
X152120281Y-28621442D01*
X152549850Y-28443507D01*
X152558121Y-28440423D01*
X153023829Y-28285421D01*
X153032278Y-28282940D01*
X153507877Y-28161551D01*
X153516473Y-28159680D01*
X153999532Y-28072527D01*
X154008240Y-28071274D01*
X154496284Y-28018804D01*
X154505073Y-28018176D01*
X154997788Y-28000578D01*
X155002214Y-28000500D01*
X155065892Y-28000500D01*
X224934108Y-28000500D01*
X224997786Y-28000500D01*
X225002211Y-28000578D01*
G37*
%TD.AperFunction*%
%TA.AperFunction,Conductor*%
G36*
X200305779Y-95299185D02*
G01*
X200351534Y-95351989D01*
X200361478Y-95421147D01*
X200361213Y-95422897D01*
X200359500Y-95433712D01*
X200359500Y-95646286D01*
X200389481Y-95835583D01*
X200392754Y-95856243D01*
X200448622Y-96028187D01*
X200458444Y-96058414D01*
X200554951Y-96247820D01*
X200679890Y-96419786D01*
X200793818Y-96533714D01*
X200827303Y-96595037D01*
X200822319Y-96664729D01*
X200780447Y-96720662D01*
X200749471Y-96737577D01*
X200617912Y-96786646D01*
X200617906Y-96786649D01*
X200502812Y-96872809D01*
X200502809Y-96872812D01*
X200416649Y-96987906D01*
X200416645Y-96987913D01*
X200366403Y-97122620D01*
X200366401Y-97122627D01*
X200360000Y-97182155D01*
X200360000Y-97830000D01*
X201276988Y-97830000D01*
X201244075Y-97887007D01*
X201210000Y-98014174D01*
X201210000Y-98145826D01*
X201244075Y-98272993D01*
X201276988Y-98330000D01*
X200360000Y-98330000D01*
X200360000Y-98977844D01*
X200366401Y-99037372D01*
X200366403Y-99037379D01*
X200416645Y-99172086D01*
X200416649Y-99172093D01*
X200502809Y-99287187D01*
X200502812Y-99287190D01*
X200617906Y-99373350D01*
X200617913Y-99373354D01*
X200752620Y-99423596D01*
X200752627Y-99423598D01*
X200812155Y-99429999D01*
X200812172Y-99430000D01*
X201460000Y-99430000D01*
X201460000Y-98513012D01*
X201517007Y-98545925D01*
X201644174Y-98580000D01*
X201775826Y-98580000D01*
X201902993Y-98545925D01*
X201960000Y-98513012D01*
X201960000Y-99430000D01*
X202607828Y-99430000D01*
X202607844Y-99429999D01*
X202667372Y-99423598D01*
X202667379Y-99423596D01*
X202802086Y-99373354D01*
X202802093Y-99373350D01*
X202917187Y-99287190D01*
X202917190Y-99287187D01*
X203003350Y-99172093D01*
X203003354Y-99172086D01*
X203052422Y-99040529D01*
X203094293Y-98984595D01*
X203159757Y-98960178D01*
X203228030Y-98975030D01*
X203256285Y-98996181D01*
X203370213Y-99110109D01*
X203542179Y-99235048D01*
X203542181Y-99235049D01*
X203542184Y-99235051D01*
X203731588Y-99331557D01*
X203933757Y-99397246D01*
X204143713Y-99430500D01*
X204143714Y-99430500D01*
X204356286Y-99430500D01*
X204356287Y-99430500D01*
X204566243Y-99397246D01*
X204768412Y-99331557D01*
X204957816Y-99235051D01*
X205044471Y-99172093D01*
X205129786Y-99110109D01*
X205129788Y-99110106D01*
X205129792Y-99110104D01*
X205280104Y-98959792D01*
X205398182Y-98797269D01*
X205453511Y-98754605D01*
X205523125Y-98748626D01*
X205584920Y-98781231D01*
X205619277Y-98842070D01*
X205622500Y-98870156D01*
X205622500Y-100438719D01*
X205602815Y-100505758D01*
X205586181Y-100526400D01*
X203376400Y-102736181D01*
X203315077Y-102769666D01*
X203288719Y-102772500D01*
X198714781Y-102772500D01*
X198647742Y-102752815D01*
X198614462Y-102721385D01*
X198612289Y-102718394D01*
X198612287Y-102718390D01*
X198491966Y-102552781D01*
X198347219Y-102408034D01*
X198347213Y-102408028D01*
X198181614Y-102287715D01*
X198129587Y-102261206D01*
X198088917Y-102240483D01*
X198038123Y-102192511D01*
X198021328Y-102124690D01*
X198043865Y-102058555D01*
X198088917Y-102019516D01*
X198181610Y-101972287D01*
X198202770Y-101956913D01*
X198347213Y-101851971D01*
X198347215Y-101851968D01*
X198347219Y-101851966D01*
X198491966Y-101707219D01*
X198491968Y-101707215D01*
X198491971Y-101707213D01*
X198560202Y-101613299D01*
X198612287Y-101541610D01*
X198705220Y-101359219D01*
X198768477Y-101164534D01*
X198800500Y-100962352D01*
X198800500Y-100757648D01*
X198768477Y-100555466D01*
X198705220Y-100360781D01*
X198705218Y-100360778D01*
X198705218Y-100360776D01*
X198671503Y-100294607D01*
X198612287Y-100178390D01*
X198592024Y-100150500D01*
X198491971Y-100012786D01*
X198347213Y-99868028D01*
X198181614Y-99747715D01*
X198175006Y-99744348D01*
X198088917Y-99700483D01*
X198038123Y-99652511D01*
X198021328Y-99584690D01*
X198043865Y-99518555D01*
X198088917Y-99479516D01*
X198181610Y-99432287D01*
X198262725Y-99373354D01*
X198347213Y-99311971D01*
X198347215Y-99311968D01*
X198347219Y-99311966D01*
X198491966Y-99167219D01*
X198491968Y-99167215D01*
X198491971Y-99167213D01*
X198578362Y-99048304D01*
X198612287Y-99001610D01*
X198705220Y-98819219D01*
X198768477Y-98624534D01*
X198800500Y-98422352D01*
X198800500Y-98217648D01*
X198778698Y-98080000D01*
X198768477Y-98015465D01*
X198732751Y-97905513D01*
X198705220Y-97820781D01*
X198705218Y-97820778D01*
X198705218Y-97820776D01*
X198671503Y-97754607D01*
X198612287Y-97638390D01*
X198556488Y-97561588D01*
X198491971Y-97472786D01*
X198347213Y-97328028D01*
X198181614Y-97207715D01*
X198161179Y-97197303D01*
X198088917Y-97160483D01*
X198038123Y-97112511D01*
X198021328Y-97044690D01*
X198043865Y-96978555D01*
X198088917Y-96939516D01*
X198181610Y-96892287D01*
X198229840Y-96857246D01*
X198347213Y-96771971D01*
X198347215Y-96771968D01*
X198347219Y-96771966D01*
X198491966Y-96627219D01*
X198491968Y-96627215D01*
X198491971Y-96627213D01*
X198559901Y-96533714D01*
X198612287Y-96461610D01*
X198705220Y-96279219D01*
X198768477Y-96084534D01*
X198800500Y-95882352D01*
X198800500Y-95677648D01*
X198768477Y-95475466D01*
X198768475Y-95475462D01*
X198768475Y-95475457D01*
X198757545Y-95441817D01*
X198755550Y-95371976D01*
X198791631Y-95312144D01*
X198854332Y-95281316D01*
X198875476Y-95279500D01*
X200238740Y-95279500D01*
X200305779Y-95299185D01*
G37*
%TD.AperFunction*%
%TA.AperFunction,Conductor*%
G36*
X183765702Y-67115383D02*
G01*
X183772180Y-67121415D01*
X194113181Y-77462416D01*
X194146666Y-77523739D01*
X194149500Y-77550097D01*
X194149500Y-90297953D01*
X194129815Y-90364992D01*
X194077011Y-90410747D01*
X194007853Y-90420691D01*
X193944297Y-90391666D01*
X193937819Y-90385634D01*
X186386819Y-82834634D01*
X186353334Y-82773311D01*
X186350500Y-82746953D01*
X186350500Y-79093500D01*
X186350501Y-79093491D01*
X186350501Y-78920944D01*
X186350501Y-78920943D01*
X186309577Y-78768216D01*
X186294526Y-78742147D01*
X186230524Y-78631290D01*
X186230518Y-78631282D01*
X185237590Y-77638355D01*
X185237588Y-77638352D01*
X185118717Y-77519481D01*
X185118716Y-77519480D01*
X185031904Y-77469360D01*
X185031904Y-77469359D01*
X185031900Y-77469358D01*
X184981785Y-77440423D01*
X184829057Y-77399499D01*
X184670943Y-77399499D01*
X184663347Y-77399499D01*
X184663331Y-77399500D01*
X183489602Y-77399500D01*
X183422563Y-77379815D01*
X183379117Y-77331795D01*
X183376160Y-77325992D01*
X183372287Y-77318390D01*
X183372285Y-77318387D01*
X183372284Y-77318385D01*
X183251971Y-77152786D01*
X183107213Y-77008028D01*
X182941611Y-76887713D01*
X182848369Y-76840203D01*
X182797574Y-76792229D01*
X182780779Y-76724407D01*
X182803317Y-76658273D01*
X182848371Y-76619234D01*
X182941347Y-76571861D01*
X183106894Y-76451582D01*
X183106895Y-76451582D01*
X183251582Y-76306895D01*
X183251582Y-76306894D01*
X183371859Y-76141349D01*
X183464755Y-75959029D01*
X183527990Y-75764413D01*
X183536609Y-75710000D01*
X182693012Y-75710000D01*
X182725925Y-75652993D01*
X182760000Y-75525826D01*
X182760000Y-75394174D01*
X182725925Y-75267007D01*
X182693012Y-75210000D01*
X183536609Y-75210000D01*
X183527990Y-75155586D01*
X183464755Y-74960970D01*
X183371859Y-74778650D01*
X183251582Y-74613105D01*
X183251582Y-74613104D01*
X183106895Y-74468417D01*
X182941349Y-74348140D01*
X182848370Y-74300765D01*
X182797574Y-74252790D01*
X182780779Y-74184969D01*
X182803316Y-74118835D01*
X182848370Y-74079795D01*
X182848920Y-74079515D01*
X182941610Y-74032287D01*
X182962770Y-74016913D01*
X183107213Y-73911971D01*
X183107215Y-73911968D01*
X183107219Y-73911966D01*
X183251966Y-73767219D01*
X183251968Y-73767215D01*
X183251971Y-73767213D01*
X183336726Y-73650556D01*
X183372287Y-73601610D01*
X183465220Y-73419219D01*
X183528477Y-73224534D01*
X183560500Y-73022352D01*
X183560500Y-72817648D01*
X183528477Y-72615466D01*
X183523896Y-72601368D01*
X183465218Y-72420776D01*
X183413910Y-72320080D01*
X183372287Y-72238390D01*
X183354242Y-72213553D01*
X183251971Y-72072786D01*
X183107213Y-71928028D01*
X182941614Y-71807715D01*
X182935006Y-71804348D01*
X182848917Y-71760483D01*
X182798123Y-71712511D01*
X182781328Y-71644690D01*
X182803865Y-71578555D01*
X182848917Y-71539516D01*
X182941610Y-71492287D01*
X183007235Y-71444608D01*
X183107213Y-71371971D01*
X183107215Y-71371968D01*
X183107219Y-71371966D01*
X183251966Y-71227219D01*
X183251968Y-71227215D01*
X183251971Y-71227213D01*
X183343489Y-71101247D01*
X183372287Y-71061610D01*
X183465220Y-70879219D01*
X183528477Y-70684534D01*
X183560500Y-70482352D01*
X183560500Y-70277648D01*
X183537417Y-70131908D01*
X183528477Y-70075465D01*
X183476038Y-69914075D01*
X183465220Y-69880781D01*
X183465218Y-69880778D01*
X183465218Y-69880776D01*
X183431503Y-69814607D01*
X183372287Y-69698390D01*
X183354573Y-69674008D01*
X183251971Y-69532786D01*
X183107219Y-69388034D01*
X183070930Y-69361669D01*
X183028264Y-69306339D01*
X183022285Y-69236726D01*
X183054890Y-69174931D01*
X183115728Y-69140573D01*
X183130562Y-69138060D01*
X183167483Y-69134091D01*
X183245563Y-69104969D01*
X183302331Y-69083796D01*
X183417546Y-68997546D01*
X183503796Y-68882331D01*
X183554091Y-68747483D01*
X183560500Y-68687873D01*
X183560499Y-67209095D01*
X183580184Y-67142057D01*
X183632987Y-67096302D01*
X183702146Y-67086358D01*
X183765702Y-67115383D01*
G37*
%TD.AperFunction*%
%TA.AperFunction,Conductor*%
G36*
X170679920Y-76254394D02*
G01*
X170627259Y-76345606D01*
X170600000Y-76447339D01*
X170600000Y-76552661D01*
X170627259Y-76654394D01*
X170679920Y-76745606D01*
X170684314Y-76750000D01*
X168775686Y-76750000D01*
X168780080Y-76745606D01*
X168832741Y-76654394D01*
X168860000Y-76552661D01*
X168860000Y-76447339D01*
X168832741Y-76345606D01*
X168780080Y-76254394D01*
X168775686Y-76250000D01*
X170684314Y-76250000D01*
X170679920Y-76254394D01*
G37*
%TD.AperFunction*%
%TA.AperFunction,Conductor*%
G36*
X205889920Y-71754394D02*
G01*
X205837259Y-71845606D01*
X205810000Y-71947339D01*
X205810000Y-72052661D01*
X205837259Y-72154394D01*
X205889920Y-72245606D01*
X205894314Y-72250000D01*
X203985686Y-72250000D01*
X203990080Y-72245606D01*
X204042741Y-72154394D01*
X204070000Y-72052661D01*
X204070000Y-71947339D01*
X204042741Y-71845606D01*
X203990080Y-71754394D01*
X203985686Y-71750000D01*
X205894314Y-71750000D01*
X205889920Y-71754394D01*
G37*
%TD.AperFunction*%
%TA.AperFunction,Conductor*%
G36*
X156679920Y-70254394D02*
G01*
X156627259Y-70345606D01*
X156600000Y-70447339D01*
X156600000Y-70552661D01*
X156627259Y-70654394D01*
X156679920Y-70745606D01*
X156684314Y-70750000D01*
X154775686Y-70750000D01*
X154780080Y-70745606D01*
X154832741Y-70654394D01*
X154860000Y-70552661D01*
X154860000Y-70447339D01*
X154832741Y-70345606D01*
X154780080Y-70254394D01*
X154775686Y-70250000D01*
X156684314Y-70250000D01*
X156679920Y-70254394D01*
G37*
%TD.AperFunction*%
%TA.AperFunction,Conductor*%
G36*
X170679920Y-70254394D02*
G01*
X170627259Y-70345606D01*
X170600000Y-70447339D01*
X170600000Y-70552661D01*
X170627259Y-70654394D01*
X170679920Y-70745606D01*
X170684314Y-70750000D01*
X168775686Y-70750000D01*
X168780080Y-70745606D01*
X168832741Y-70654394D01*
X168860000Y-70552661D01*
X168860000Y-70447339D01*
X168832741Y-70345606D01*
X168780080Y-70254394D01*
X168775686Y-70250000D01*
X170684314Y-70250000D01*
X170679920Y-70254394D01*
G37*
%TD.AperFunction*%
%TA.AperFunction,Conductor*%
G36*
X167938539Y-62257685D02*
G01*
X167984294Y-62310489D01*
X167995500Y-62362000D01*
X167995500Y-63636113D01*
X167975815Y-63703152D01*
X167959181Y-63723794D01*
X161973794Y-69709181D01*
X161912471Y-69742666D01*
X161886113Y-69745500D01*
X161242983Y-69745500D01*
X161175944Y-69725815D01*
X161132498Y-69677795D01*
X161048660Y-69513254D01*
X161023343Y-69463567D01*
X160884517Y-69272490D01*
X160717510Y-69105483D01*
X160526433Y-68966657D01*
X160498515Y-68952432D01*
X160315996Y-68859433D01*
X160091368Y-68786446D01*
X159858097Y-68749500D01*
X159858092Y-68749500D01*
X159621908Y-68749500D01*
X159621903Y-68749500D01*
X159388631Y-68786446D01*
X159164003Y-68859433D01*
X159006795Y-68939536D01*
X158938126Y-68952432D01*
X158873385Y-68926156D01*
X158833128Y-68869049D01*
X158826500Y-68829051D01*
X158826500Y-63958413D01*
X158846185Y-63891374D01*
X158898989Y-63845619D01*
X158968147Y-63835675D01*
X159031703Y-63864700D01*
X159038181Y-63870732D01*
X159054806Y-63887357D01*
X159220374Y-64007647D01*
X159231743Y-64015907D01*
X159354700Y-64078557D01*
X159426616Y-64115201D01*
X159426619Y-64115202D01*
X159462469Y-64126850D01*
X159634625Y-64182786D01*
X159733473Y-64198442D01*
X159850639Y-64217000D01*
X159850644Y-64217000D01*
X160069361Y-64217000D01*
X160186520Y-64198443D01*
X160285375Y-64182786D01*
X160493383Y-64115201D01*
X160688257Y-64015907D01*
X160838558Y-63906708D01*
X160865193Y-63887357D01*
X160865195Y-63887354D01*
X160865199Y-63887352D01*
X161019852Y-63732699D01*
X161129683Y-63581528D01*
X161185011Y-63538864D01*
X161254624Y-63532885D01*
X161316420Y-63565490D01*
X161330313Y-63581523D01*
X161392094Y-63666558D01*
X161440148Y-63732699D01*
X161594806Y-63887357D01*
X161760374Y-64007647D01*
X161771743Y-64015907D01*
X161894700Y-64078557D01*
X161966616Y-64115201D01*
X161966619Y-64115202D01*
X162002469Y-64126850D01*
X162174625Y-64182786D01*
X162273473Y-64198442D01*
X162390639Y-64217000D01*
X162390644Y-64217000D01*
X162609361Y-64217000D01*
X162726520Y-64198443D01*
X162825375Y-64182786D01*
X163033383Y-64115201D01*
X163228257Y-64015907D01*
X163378558Y-63906708D01*
X163405193Y-63887357D01*
X163405195Y-63887354D01*
X163405199Y-63887352D01*
X163559852Y-63732699D01*
X163669991Y-63581103D01*
X163725320Y-63538439D01*
X163794933Y-63532460D01*
X163856729Y-63565065D01*
X163870628Y-63581106D01*
X163896806Y-63617138D01*
X163896807Y-63617138D01*
X164602352Y-62911593D01*
X164625792Y-62999071D01*
X164684311Y-63100430D01*
X164767070Y-63183189D01*
X164868429Y-63241708D01*
X164955905Y-63265147D01*
X164250360Y-63970691D01*
X164312008Y-64015480D01*
X164506808Y-64114737D01*
X164506811Y-64114738D01*
X164714740Y-64182297D01*
X164930684Y-64216500D01*
X165149316Y-64216500D01*
X165365259Y-64182297D01*
X165573188Y-64114738D01*
X165573191Y-64114737D01*
X165767995Y-64015478D01*
X165829638Y-63970691D01*
X165829639Y-63970691D01*
X165124094Y-63265147D01*
X165211571Y-63241708D01*
X165312930Y-63183189D01*
X165395689Y-63100430D01*
X165454208Y-62999071D01*
X165477647Y-62911594D01*
X166183191Y-63617139D01*
X166183191Y-63617138D01*
X166227978Y-63555495D01*
X166327237Y-63360691D01*
X166327238Y-63360688D01*
X166394797Y-63152759D01*
X166429000Y-62936816D01*
X166429000Y-62718183D01*
X166394797Y-62502240D01*
X166361681Y-62400318D01*
X166359686Y-62330477D01*
X166395766Y-62270644D01*
X166458467Y-62239816D01*
X166479612Y-62238000D01*
X167871500Y-62238000D01*
X167938539Y-62257685D01*
G37*
%TD.AperFunction*%
%TA.AperFunction,Conductor*%
G36*
X205980118Y-53417331D02*
G01*
X206003065Y-53418972D01*
X206013145Y-53426518D01*
X206025274Y-53429892D01*
X206040583Y-53447059D01*
X206058998Y-53460844D01*
X206064510Y-53473887D01*
X206071778Y-53482037D01*
X206082204Y-53515756D01*
X206104714Y-53657876D01*
X206172297Y-53865880D01*
X206172298Y-53865883D01*
X206228303Y-53975797D01*
X206252980Y-54024228D01*
X206271595Y-54060760D01*
X206400142Y-54237693D01*
X206400148Y-54237699D01*
X206554801Y-54392352D01*
X206706395Y-54502491D01*
X206749060Y-54557819D01*
X206755039Y-54627432D01*
X206722434Y-54689228D01*
X206706394Y-54703126D01*
X206670360Y-54729305D01*
X206670360Y-54729307D01*
X207375905Y-55434852D01*
X207288429Y-55458292D01*
X207187070Y-55516811D01*
X207104311Y-55599570D01*
X207045792Y-55700929D01*
X207022352Y-55788405D01*
X206316807Y-55082860D01*
X206316806Y-55082860D01*
X206272023Y-55144501D01*
X206172762Y-55339308D01*
X206172761Y-55339311D01*
X206105202Y-55547240D01*
X206071000Y-55763183D01*
X206071000Y-55981816D01*
X206105202Y-56197759D01*
X206172761Y-56405688D01*
X206172762Y-56405691D01*
X206272020Y-56600493D01*
X206272021Y-56600495D01*
X206316806Y-56662138D01*
X206316807Y-56662138D01*
X207022352Y-55956593D01*
X207045792Y-56044071D01*
X207104311Y-56145430D01*
X207187070Y-56228189D01*
X207288429Y-56286708D01*
X207375905Y-56310147D01*
X206670360Y-57015691D01*
X206732008Y-57060480D01*
X206926808Y-57159737D01*
X206926811Y-57159738D01*
X207134740Y-57227297D01*
X207350684Y-57261500D01*
X207569316Y-57261500D01*
X207785259Y-57227297D01*
X207993188Y-57159738D01*
X207993191Y-57159737D01*
X208187995Y-57060478D01*
X208249638Y-57015691D01*
X208249639Y-57015691D01*
X207544094Y-56310147D01*
X207631571Y-56286708D01*
X207732930Y-56228189D01*
X207815689Y-56145430D01*
X207874208Y-56044071D01*
X207897647Y-55956594D01*
X208603191Y-56662139D01*
X208603191Y-56662138D01*
X208647978Y-56600495D01*
X208747237Y-56405691D01*
X208747238Y-56405688D01*
X208814797Y-56197759D01*
X208849000Y-55981816D01*
X208849000Y-55763183D01*
X208814797Y-55547240D01*
X208747238Y-55339311D01*
X208747237Y-55339308D01*
X208647980Y-55144508D01*
X208603191Y-55082860D01*
X207897647Y-55788404D01*
X207874208Y-55700929D01*
X207815689Y-55599570D01*
X207732930Y-55516811D01*
X207631571Y-55458292D01*
X207544092Y-55434852D01*
X208249638Y-54729307D01*
X208249638Y-54729306D01*
X208213606Y-54703128D01*
X208170939Y-54647799D01*
X208164959Y-54578185D01*
X208197565Y-54516390D01*
X208213599Y-54502494D01*
X208365199Y-54392352D01*
X208519852Y-54237699D01*
X208519854Y-54237695D01*
X208519857Y-54237693D01*
X208576229Y-54160101D01*
X208648407Y-54060757D01*
X208679005Y-54000704D01*
X208689454Y-53989640D01*
X208695777Y-53975797D01*
X208712957Y-53964755D01*
X208726980Y-53949909D01*
X208742659Y-53945667D01*
X208754555Y-53938023D01*
X208789490Y-53933000D01*
X208842818Y-53933000D01*
X208909857Y-53952685D01*
X208930499Y-53969319D01*
X217018508Y-62057328D01*
X217051993Y-62118651D01*
X217047009Y-62188343D01*
X217005137Y-62244276D01*
X216987123Y-62255493D01*
X216891741Y-62304093D01*
X216714806Y-62432642D01*
X216560142Y-62587306D01*
X216450318Y-62738469D01*
X216394989Y-62781135D01*
X216325375Y-62787114D01*
X216263580Y-62754509D01*
X216249682Y-62738469D01*
X216139857Y-62587306D01*
X215985193Y-62432642D01*
X215808260Y-62304095D01*
X215808259Y-62304094D01*
X215808257Y-62304093D01*
X215712875Y-62255493D01*
X215613383Y-62204798D01*
X215613380Y-62204797D01*
X215405376Y-62137214D01*
X215189361Y-62103000D01*
X215189356Y-62103000D01*
X214970644Y-62103000D01*
X214970639Y-62103000D01*
X214754623Y-62137214D01*
X214546619Y-62204797D01*
X214546616Y-62204798D01*
X214351739Y-62304095D01*
X214174806Y-62432642D01*
X214020150Y-62587298D01*
X214020148Y-62587301D01*
X213947795Y-62686887D01*
X213892468Y-62729551D01*
X213847479Y-62738000D01*
X202845175Y-62738000D01*
X202778136Y-62718315D01*
X202732381Y-62665511D01*
X202722437Y-62596353D01*
X202746799Y-62538513D01*
X202761924Y-62518803D01*
X202893043Y-62291697D01*
X202901764Y-62270644D01*
X202976251Y-62090815D01*
X202993398Y-62049419D01*
X203061270Y-61796116D01*
X203095500Y-61536120D01*
X203095500Y-61273880D01*
X203061270Y-61013884D01*
X202993398Y-60760581D01*
X202922158Y-60588592D01*
X202893046Y-60518309D01*
X202893041Y-60518299D01*
X202761924Y-60291196D01*
X202602281Y-60083148D01*
X202602274Y-60083140D01*
X202416860Y-59897726D01*
X202416851Y-59897718D01*
X202381573Y-59870648D01*
X208356500Y-59870648D01*
X208356500Y-60129351D01*
X208390837Y-60346147D01*
X208396968Y-60384854D01*
X208476909Y-60630885D01*
X208594353Y-60861382D01*
X208746408Y-61070668D01*
X208929332Y-61253592D01*
X209138618Y-61405647D01*
X209369115Y-61523091D01*
X209615146Y-61603032D01*
X209710961Y-61618207D01*
X209870649Y-61643500D01*
X209870654Y-61643500D01*
X210129351Y-61643500D01*
X210271294Y-61621017D01*
X210384854Y-61603032D01*
X210630885Y-61523091D01*
X210861382Y-61405647D01*
X211070668Y-61253592D01*
X211253592Y-61070668D01*
X211405647Y-60861382D01*
X211523091Y-60630885D01*
X211603032Y-60384854D01*
X211632883Y-60196382D01*
X211643500Y-60129351D01*
X211643500Y-59870648D01*
X211613648Y-59682175D01*
X211603032Y-59615146D01*
X211523091Y-59369115D01*
X211405647Y-59138618D01*
X211253592Y-58929332D01*
X211070668Y-58746408D01*
X210861382Y-58594353D01*
X210630885Y-58476909D01*
X210384854Y-58396968D01*
X210384852Y-58396967D01*
X210384850Y-58396967D01*
X210129351Y-58356500D01*
X210129346Y-58356500D01*
X209870654Y-58356500D01*
X209870649Y-58356500D01*
X209615149Y-58396967D01*
X209369112Y-58476910D01*
X209138617Y-58594353D01*
X208929329Y-58746410D01*
X208746410Y-58929329D01*
X208594353Y-59138617D01*
X208476910Y-59369112D01*
X208396967Y-59615149D01*
X208356500Y-59870648D01*
X202381573Y-59870648D01*
X202208803Y-59738075D01*
X201981700Y-59606958D01*
X201981690Y-59606953D01*
X201739428Y-59506605D01*
X201739421Y-59506603D01*
X201739419Y-59506602D01*
X201486116Y-59438730D01*
X201428339Y-59431123D01*
X201226127Y-59404500D01*
X201226120Y-59404500D01*
X200963880Y-59404500D01*
X200963872Y-59404500D01*
X200732772Y-59434926D01*
X200703884Y-59438730D01*
X200450581Y-59506602D01*
X200450571Y-59506605D01*
X200208309Y-59606953D01*
X200208304Y-59606956D01*
X200080499Y-59680744D01*
X200074597Y-59682175D01*
X200070011Y-59686150D01*
X200041048Y-59690314D01*
X200012599Y-59697216D01*
X200006861Y-59695230D01*
X200000853Y-59696094D01*
X199974231Y-59683936D01*
X199946572Y-59674363D01*
X199942819Y-59669590D01*
X199937297Y-59667069D01*
X199921473Y-59642446D01*
X199903382Y-59619441D01*
X199901965Y-59612091D01*
X199899523Y-59608291D01*
X199894500Y-59573356D01*
X199894500Y-59476386D01*
X199914185Y-59409347D01*
X199930819Y-59388705D01*
X201134741Y-58184783D01*
X205872052Y-53447471D01*
X205883100Y-53441438D01*
X205891209Y-53431807D01*
X205913183Y-53425012D01*
X205933373Y-53413988D01*
X205945932Y-53414886D01*
X205957960Y-53411167D01*
X205980118Y-53417331D01*
G37*
%TD.AperFunction*%
%TD*%
M02*
