M48
; DRILL file {KiCad 9.0.2} date 2025-07-28T12:51:32+0800
; FORMAT={-:-/ absolute / metric / decimal}
; #@! TF.CreationDate,2025-07-28T12:51:32+08:00
; #@! TF.GenerationSoftware,Kicad,Pcbnew,9.0.2
; #@! TF.FileFunction,Plated,1,2,PTH
FMAT,2
METRIC
; #@! TA.AperFunction,Plated,PTH,ViaDrill
T1C0.300
; #@! TA.AperFunction,Plated,PTH,ComponentDrill
T2C0.700
; #@! TA.AperFunction,Plated,PTH,ComponentDrill
T3C0.750
; #@! TA.AperFunction,Plated,PTH,ComponentDrill
T4C0.800
; #@! TA.AperFunction,Plated,PTH,ComponentDrill
T5C0.889
; #@! TA.AperFunction,Plated,PTH,ComponentDrill
T6C0.900
; #@! TA.AperFunction,Plated,PTH,ComponentDrill
T7C1.000
; #@! TA.AperFunction,Plated,PTH,ComponentDrill
T8C1.397
%
G90
G05
T1
X163.25Y-76.5
X172.25Y-64.5
X176.25Y-76.5
X178.5Y-77.75
X182.5Y-65.0
X184.5Y-79.5
X191.365Y-62.865
X191.365Y-94.725
X195.5Y-104.5
X199.5Y-96.0
X211.25Y-67.0
T2
X151.94Y-83.0
X155.69Y-80.25
X159.56Y-83.0
X162.13Y-88.5
X162.38Y-98.0
X163.31Y-80.25
X168.63Y-80.25
X169.75Y-88.5
X170.0Y-98.0
X176.25Y-80.25
X200.5Y-74.19
X200.5Y-81.81
X207.94Y-82.75
X215.56Y-82.75
T3
X213.5Y-74.0
X213.5Y-76.0
T4
X154.46Y-70.5
X154.46Y-76.5
X157.0Y-70.5
X157.0Y-76.5
X159.54Y-70.5
X159.54Y-76.5
X168.46Y-70.5
X168.46Y-76.5
X171.0Y-70.5
X171.0Y-76.5
X173.54Y-70.5
X173.54Y-76.5
X186.285Y-38.905
X188.825Y-38.905
X191.365Y-38.905
X193.905Y-38.905
X203.67Y-72.0
X203.67Y-78.0
X206.21Y-72.0
X206.21Y-78.0
X208.75Y-72.0
X208.75Y-78.0
T5
X152.34Y-50.127
X152.34Y-52.667
X152.34Y-55.207
X159.96Y-62.828
X162.5Y-62.828
X165.04Y-62.828
X207.46Y-50.792
X207.46Y-53.332
X207.46Y-55.872
X215.08Y-63.492
X217.62Y-63.492
X220.16Y-63.492
T6
X159.325Y-39.968
X159.325Y-45.047
X165.675Y-39.968
X165.675Y-45.047
X173.0Y-88.5
X173.21Y-97.226
X174.778Y-90.024
X174.988Y-98.75
X176.302Y-88.5
X176.512Y-97.226
X177.826Y-90.024
X178.036Y-98.75
X202.71Y-82.0
X205.25Y-82.0
X214.445Y-40.633
X214.445Y-45.712
X218.75Y-80.21
X218.75Y-82.75
X220.795Y-40.633
X220.795Y-45.712
T7
X158.75Y-86.96
X158.75Y-89.5
X182.26Y-67.84
X182.26Y-70.38
X182.26Y-72.92
X182.26Y-75.46
X182.26Y-78.0
X182.26Y-80.54
X182.26Y-83.08
X182.26Y-85.62
X182.26Y-88.16
X182.26Y-90.7
X182.26Y-93.24
X182.26Y-95.78
X182.26Y-98.32
X182.26Y-100.86
X182.26Y-103.4
X197.5Y-67.84
X197.5Y-70.38
X197.5Y-72.92
X197.5Y-75.46
X197.5Y-78.0
X197.5Y-80.54
X197.5Y-83.08
X197.5Y-85.62
X197.5Y-88.16
X197.5Y-90.7
X197.5Y-93.24
X197.5Y-95.78
X197.5Y-98.32
X197.5Y-100.86
X197.5Y-103.4
X201.71Y-90.46
X201.71Y-93.0
X201.71Y-95.54
X201.71Y-98.08
X204.25Y-90.46
X204.25Y-93.0
X204.25Y-95.54
X204.25Y-98.08
T8
X154.88Y-46.0
X154.88Y-59.335
X170.12Y-46.0
X170.12Y-59.335
X210.0Y-46.665
X210.0Y-60.0
X225.24Y-46.665
X225.24Y-60.0
M30
