%TF.GenerationSoftware,KiCad,Pcbnew,9.0.2*%
%TF.CreationDate,2025-07-28T12:51:29+08:00*%
%TF.ProjectId,PF-MKIII_Controller ,50462d4d-4b49-4494-995f-436f6e74726f,rev?*%
%TF.SameCoordinates,Original*%
%TF.FileFunction,Soldermask,Bot*%
%TF.FilePolarity,Negative*%
%FSLAX46Y46*%
G04 Gerber Fmt 4.6, Leading zero omitted, Abs format (unit mm)*
G04 Created by KiCad (PCBNEW 9.0.2) date 2025-07-28 12:51:29*
%MOMM*%
%LPD*%
G01*
G04 APERTURE LIST*
G04 Aperture macros list*
%AMRoundRect*
0 Rectangle with rounded corners*
0 $1 Rounding radius*
0 $2 $3 $4 $5 $6 $7 $8 $9 X,Y pos of 4 corners*
0 Add a 4 corners polygon primitive as box body*
4,1,4,$2,$3,$4,$5,$6,$7,$8,$9,$2,$3,0*
0 Add four circle primitives for the rounded corners*
1,1,$1+$1,$2,$3*
1,1,$1+$1,$4,$5*
1,1,$1+$1,$6,$7*
1,1,$1+$1,$8,$9*
0 Add four rect primitives between the rounded corners*
20,1,$1+$1,$2,$3,$4,$5,0*
20,1,$1+$1,$4,$5,$6,$7,0*
20,1,$1+$1,$6,$7,$8,$9,0*
20,1,$1+$1,$8,$9,$2,$3,0*%
G04 Aperture macros list end*
%ADD10C,1.400000*%
%ADD11C,1.800000*%
%ADD12R,1.800000X1.800000*%
%ADD13C,3.000000*%
%ADD14RoundRect,0.450000X-0.450000X-0.450000X0.450000X-0.450000X0.450000X0.450000X-0.450000X0.450000X0*%
%ADD15R,1.700000X1.700000*%
%ADD16C,1.700000*%
%ADD17RoundRect,0.250000X0.625000X-0.350000X0.625000X0.350000X-0.625000X0.350000X-0.625000X-0.350000X0*%
%ADD18O,1.750000X1.200000*%
%ADD19C,1.982000*%
%ADD20C,2.490000*%
%ADD21R,1.600000X1.600000*%
%ADD22O,1.600000X1.600000*%
%ADD23C,1.600000*%
G04 APERTURE END LIST*
D10*
%TO.C,R4*%
X207940000Y-82750000D03*
X215560000Y-82750000D03*
%TD*%
D11*
%TO.C,D1*%
X218750000Y-82750000D03*
D12*
X218750000Y-80210000D03*
%TD*%
D10*
%TO.C,R2*%
X168630000Y-80250000D03*
X176250000Y-80250000D03*
%TD*%
D13*
%TO.C,*%
X155000000Y-35000000D03*
%TD*%
D14*
%TO.C,D2*%
X173000000Y-88500000D03*
D11*
X174778000Y-90024000D03*
X176302000Y-88500000D03*
X177826000Y-90024000D03*
%TD*%
D13*
%TO.C,*%
X225000000Y-102500000D03*
%TD*%
D10*
%TO.C,R6*%
X169750000Y-88500000D03*
X162130000Y-88500000D03*
%TD*%
D15*
%TO.C,J5*%
X158750000Y-89500000D03*
D16*
X158750000Y-86960000D03*
%TD*%
D10*
%TO.C,R5*%
X200500000Y-74190000D03*
X200500000Y-81810000D03*
%TD*%
D12*
%TO.C,D5*%
X205250000Y-82000000D03*
D11*
X202710000Y-82000000D03*
%TD*%
D13*
%TO.C,*%
X155000000Y-102500000D03*
%TD*%
D14*
%TO.C,D3*%
X173210000Y-97226000D03*
D11*
X174988000Y-98750000D03*
X176512000Y-97226000D03*
X178036000Y-98750000D03*
%TD*%
D17*
%TO.C,BT1*%
X213500000Y-76000000D03*
D18*
X213500000Y-74000000D03*
%TD*%
D19*
%TO.C,J1*%
X159325000Y-39967500D03*
X165675000Y-39967500D03*
X159325000Y-45047500D03*
X165675000Y-45047500D03*
X159960000Y-62827500D03*
X162500000Y-62827500D03*
X165040000Y-62827500D03*
D20*
X154880000Y-46000000D03*
X154880000Y-59335000D03*
X170120000Y-59335000D03*
X170120000Y-46000000D03*
D19*
X152340000Y-50127500D03*
X152340000Y-52667500D03*
X152340000Y-55207500D03*
%TD*%
D21*
%TO.C,A2*%
X182260000Y-67840000D03*
D22*
X182260000Y-70380000D03*
X182260000Y-72920000D03*
X182260000Y-75460000D03*
X182260000Y-78000000D03*
X182260000Y-80540000D03*
X182260000Y-83080000D03*
X182260000Y-85620000D03*
X182260000Y-88160000D03*
X182260000Y-90700000D03*
X182260000Y-93240000D03*
X182260000Y-95780000D03*
X182260000Y-98320000D03*
X182260000Y-100860000D03*
X182260000Y-103400000D03*
X197500000Y-103400000D03*
X197500000Y-100860000D03*
X197500000Y-98320000D03*
X197500000Y-95780000D03*
X197500000Y-93240000D03*
X197500000Y-90700000D03*
X197500000Y-88160000D03*
X197500000Y-85620000D03*
X197500000Y-83080000D03*
X197500000Y-80540000D03*
X197500000Y-78000000D03*
X197500000Y-75460000D03*
X197500000Y-72920000D03*
X197500000Y-70380000D03*
X197500000Y-67840000D03*
%TD*%
D13*
%TO.C,*%
X225000000Y-35000000D03*
%TD*%
D19*
%TO.C,J2*%
X214445000Y-40632500D03*
X220795000Y-40632500D03*
X214445000Y-45712500D03*
X220795000Y-45712500D03*
X215080000Y-63492500D03*
X217620000Y-63492500D03*
X220160000Y-63492500D03*
D20*
X210000000Y-46665000D03*
X210000000Y-60000000D03*
X225240000Y-60000000D03*
X225240000Y-46665000D03*
D19*
X207460000Y-50792500D03*
X207460000Y-53332500D03*
X207460000Y-55872500D03*
%TD*%
D13*
%TO.C,J6*%
X179095000Y-39405000D03*
X179095000Y-61405000D03*
X201095000Y-39405000D03*
X201095000Y-61405000D03*
D23*
X186285000Y-38905000D03*
X188825000Y-38905000D03*
X191365000Y-38905000D03*
X193905000Y-38905000D03*
%TD*%
D10*
%TO.C,R7*%
X162380000Y-98000000D03*
X170000000Y-98000000D03*
%TD*%
%TO.C,R1*%
X151940000Y-83000000D03*
X159560000Y-83000000D03*
%TD*%
%TO.C,R3*%
X155690000Y-80250000D03*
X163310000Y-80250000D03*
%TD*%
D15*
%TO.C,U1*%
X201710000Y-98080000D03*
D16*
X204250000Y-98080000D03*
X201710000Y-95540000D03*
X204250000Y-95540000D03*
X201710000Y-93000000D03*
X204250000Y-93000000D03*
X201710000Y-90460000D03*
X204250000Y-90460000D03*
%TD*%
M02*
