%TF.GenerationSoftware,KiCad,Pcbnew,9.0.2*%
%TF.CreationDate,2025-07-28T12:51:29+08:00*%
%TF.ProjectId,PF-MKIII_Controller ,50462d4d-4b49-4494-995f-436f6e74726f,rev?*%
%TF.SameCoordinates,Original*%
%TF.FileFunction,Legend,Bot*%
%TF.FilePolarity,Positive*%
%FSLAX46Y46*%
G04 Gerber Fmt 4.6, Leading zero omitted, Abs format (unit mm)*
G04 Created by KiCad (PCBNEW 9.0.2) date 2025-07-28 12:51:29*
%MOMM*%
%LPD*%
G01*
G04 APERTURE LIST*
%ADD10C,0.150000*%
%ADD11C,0.120000*%
G04 APERTURE END LIST*
D10*
X202471904Y-100534819D02*
X202471904Y-101344342D01*
X202471904Y-101344342D02*
X202424285Y-101439580D01*
X202424285Y-101439580D02*
X202376666Y-101487200D01*
X202376666Y-101487200D02*
X202281428Y-101534819D01*
X202281428Y-101534819D02*
X202090952Y-101534819D01*
X202090952Y-101534819D02*
X201995714Y-101487200D01*
X201995714Y-101487200D02*
X201948095Y-101439580D01*
X201948095Y-101439580D02*
X201900476Y-101344342D01*
X201900476Y-101344342D02*
X201900476Y-100534819D01*
X200900476Y-101534819D02*
X201471904Y-101534819D01*
X201186190Y-101534819D02*
X201186190Y-100534819D01*
X201186190Y-100534819D02*
X201281428Y-100677676D01*
X201281428Y-100677676D02*
X201376666Y-100772914D01*
X201376666Y-100772914D02*
X201471904Y-100820533D01*
D11*
%TO.C,U1*%
X200110000Y-84730000D02*
X200110000Y-100180000D01*
X200110000Y-100180000D02*
X200110000Y-100180000D01*
X200110000Y-100180000D02*
X229310000Y-100180000D01*
X200440000Y-88936000D02*
X200440000Y-88936000D01*
X200440000Y-88936000D02*
X200440000Y-99604000D01*
X200440000Y-99604000D02*
X200440000Y-99604000D01*
X200440000Y-99604000D02*
X205774000Y-99604000D01*
X205774000Y-88936000D02*
X200440000Y-88936000D01*
X205774000Y-99604000D02*
X205774000Y-88936000D01*
X229310000Y-84730000D02*
X200110000Y-84730000D01*
X229310000Y-100180000D02*
X229310000Y-84730000D01*
X199910000Y-98080000D02*
X199574000Y-98320000D01*
X199574000Y-97840000D01*
X199910000Y-98080000D01*
G36*
X199910000Y-98080000D02*
G01*
X199574000Y-98320000D01*
X199574000Y-97840000D01*
X199910000Y-98080000D01*
G37*
%TD*%
M02*
